Crimson-Semibold.ufo
<glyph name="exclam" format="1">
  <advance width="255"/>
  <unicode hex="0021"/>
  <outline>
    <contour>
      <point x="62" y="56" type="curve" smooth="yes"/>
      <point x="62" y="91"/>
      <point x="91" y="119"/>
      <point x="127" y="119" type="curve"/>
      <point x="163" y="119"/>
      <point x="192" y="89"/>
      <point x="192" y="54" type="curve" smooth="yes"/>
      <point x="192" y="19"/>
      <point x="164" y="-11"/>
      <point x="128" y="-11" type="curve"/>
      <point x="92" y="-11"/>
      <point x="62" y="20"/>
    </contour>
    <contour>
      <point x="131" y="642" type="curve" smooth="yes"/>
      <point x="162" y="642"/>
      <point x="184" y="613"/>
      <point x="184" y="579" type="curve" smooth="yes"/>
      <point x="184" y="551"/>
      <point x="163" y="365"/>
      <point x="146" y="196" type="curve"/>
      <point x="142" y="186"/>
      <point x="138" y="179"/>
      <point x="128" y="177" type="curve"/>
      <point x="123" y="178"/>
      <point x="114" y="183"/>
      <point x="110" y="191" type="curve"/>
      <point x="98" y="305"/>
      <point x="73" y="529"/>
      <point x="73" y="580" type="curve" smooth="yes"/>
      <point x="73" y="615"/>
      <point x="97" y="642"/>
    </contour>
  </outline>
</glyph>
<glyph name="quotedbl" format="1">
  <advance width="307"/>
  <unicode hex="0022"/>
  <outline>
    <contour>
      <point x="235" y="700" type="curve" smooth="yes"/>
      <point x="248" y="700"/>
      <point x="256" y="696"/>
      <point x="264" y="685" type="curve"/>
      <point x="264" y="653"/>
      <point x="254" y="530"/>
      <point x="248" y="473" type="curve"/>
      <point x="244" y="467"/>
      <point x="234" y="456"/>
      <point x="226" y="452" type="curve"/>
      <point x="222" y="452"/>
      <point x="218" y="455"/>
      <point x="216" y="459" type="curve"/>
      <point x="193" y="537"/>
      <point x="178" y="593"/>
      <point x="178" y="623" type="curve" smooth="yes"/>
      <point x="178" y="653"/>
      <point x="200" y="700"/>
    </contour>
    <contour>
      <point x="95" y="700" type="curve" smooth="yes"/>
      <point x="108" y="700"/>
      <point x="116" y="696"/>
      <point x="124" y="685" type="curve"/>
      <point x="124" y="653"/>
      <point x="114" y="530"/>
      <point x="108" y="473" type="curve"/>
      <point x="104" y="467"/>
      <point x="94" y="456"/>
      <point x="86" y="452" type="curve"/>
      <point x="82" y="452"/>
      <point x="78" y="455"/>
      <point x="76" y="459" type="curve"/>
      <point x="53" y="537"/>
      <point x="38" y="593"/>
      <point x="38" y="623" type="curve" smooth="yes"/>
      <point x="38" y="653"/>
      <point x="60" y="700"/>
    </contour>
  </outline>
</glyph>
<glyph name="dollar" format="1">
  <advance width="508"/>
  <unicode hex="0024"/>
  <outline>
    <contour>
      <point x="291" y="676" type="line"/>
      <point x="299" y="676"/>
      <point x="328" y="675"/>
      <point x="328" y="668" type="curve" smooth="yes"/>
      <point x="322.437" y="634.34" type="line"/>
      <point x="351.292" y="629.064"/>
      <point x="378.771" y="620.85"/>
      <point x="415" y="613" type="curve"/>
      <point x="423" y="562"/>
      <point x="424" y="507"/>
      <point x="426" y="465" type="curve" smooth="yes"/>
      <point x="424" y="461"/>
      <point x="419" y="460"/>
      <point x="415" y="460" type="curve" smooth="yes"/>
      <point x="411" y="460"/>
      <point x="391" y="458"/>
      <point x="389" y="467" type="curve" smooth="yes"/>
      <point x="383.862" y="504.433"/>
      <point x="357.714" y="559.644"/>
      <point x="314.509" y="586.37" type="curve"/>
      <point x="279.155" y="372.446" type="line"/>
      <point x="287.846" y="366.844"/>
      <point x="296.531" y="361.377"/>
      <point x="305" y="356" type="curve" smooth="yes"/>
      <point x="369" y="316"/>
      <point x="458" y="277"/>
      <point x="458" y="166" type="curve" smooth="yes"/>
      <point x="458" y="60"/>
      <point x="357" y="-10"/>
      <point x="253" y="-10" type="curve" smooth="yes"/>
      <point x="240.891" y="-10"/>
      <point x="228.579" y="-9.4298"/>
      <point x="216.211" y="-8.42091" type="curve"/>
      <point x="210" y="-46" type="line"/>
      <point x="201" y="-46"/>
      <point x="173" y="-44"/>
      <point x="173" y="-37" type="curve" smooth="yes"/>
      <point x="178.442" y="-4.1176" type="line"/>
      <point x="142.226" y="1.06856"/>
      <point x="106.828" y="8.88576"/>
      <point x="76" y="16" type="curve"/>
      <point x="65" y="66"/>
      <point x="54" y="153"/>
      <point x="53" y="172" type="curve" smooth="yes"/>
      <point x="56" y="178"/>
      <point x="73" y="184"/>
      <point x="79" y="184" type="curve" smooth="yes"/>
      <point x="85" y="184"/>
      <point x="91" y="182"/>
      <point x="92" y="176" type="curve" smooth="yes"/>
      <point x="98.1826" y="145.087"/>
      <point x="125.269" y="73.5611"/>
      <point x="186.183" y="42.6581" type="curve"/>
      <point x="224.858" y="276.346" type="line" smooth="yes"/>
      <point x="222.885" y="277.563"/>
      <point x="220.931" y="278.78"/>
      <point x="219" y="280" type="curve" smooth="yes"/>
      <point x="147" y="325"/>
      <point x="65" y="371"/>
      <point x="65" y="469" type="curve" smooth="yes"/>
      <point x="65" y="569"/>
      <point x="163" y="640"/>
      <point x="261" y="640" type="curve" smooth="yes"/>
      <point x="269.381" y="640"/>
      <point x="277.303" y="639.708"/>
      <point x="284.904" y="639.168" type="curve"/>
    </contour>
    <contour>
      <point x="259.786" y="255.248" type="curve"/>
      <point x="222.62" y="30.3597" type="line"/>
      <point x="230.944" y="28.8258"/>
      <point x="239.731" y="28"/>
      <point x="249" y="28" type="curve" smooth="yes"/>
      <point x="297" y="28"/>
      <point x="353" y="56"/>
      <point x="353" y="132" type="curve" smooth="yes"/>
      <point x="353" y="192.289"/>
      <point x="306.998" y="226.291"/>
    </contour>
    <contour>
      <point x="244.633" y="395.836" type="curve"/>
      <point x="278.494" y="600.437" type="line"/>
      <point x="272.853" y="601.459"/>
      <point x="267.02" y="602"/>
      <point x="261" y="602" type="curve" smooth="yes"/>
      <point x="201" y="602"/>
      <point x="167" y="564"/>
      <point x="167" y="509" type="curve" smooth="yes"/>
      <point x="167" y="462.412"/>
      <point x="202.204" y="426.62"/>
    </contour>
  </outline>
</glyph>
<glyph name="parenleft" format="1">
  <advance width="277"/>
  <unicode hex="0028"/>
  <outline>
    <contour>
      <point x="127" y="295" type="curve" smooth="yes"/>
      <point x="127" y="101"/>
      <point x="203" y="-62"/>
      <point x="269" y="-120" type="curve"/>
      <point x="270" y="-122"/>
      <point x="261" y="-140"/>
      <point x="255" y="-144" type="curve"/>
      <point x="159" y="-81"/>
      <point x="35" y="63"/>
      <point x="35" y="295" type="curve" smooth="yes"/>
      <point x="35" y="527"/>
      <point x="159" y="670"/>
      <point x="255" y="733" type="curve"/>
      <point x="261" y="729"/>
      <point x="270" y="712"/>
      <point x="269" y="710" type="curve"/>
      <point x="203" y="652"/>
      <point x="127" y="489"/>
    </contour>
  </outline>
</glyph>
<glyph name="asterisk" format="1">
  <advance width="443"/>
  <unicode hex="002A"/>
  <outline>
    <contour>
      <point x="295" y="616" type="curve" smooth="yes"/>
      <point x="314" y="638"/>
      <point x="343" y="640"/>
      <point x="358" y="626" type="curve" smooth="yes"/>
      <point x="374" y="610"/>
      <point x="374" y="583"/>
      <point x="354" y="563" type="curve" smooth="yes"/>
      <point x="320" y="529"/>
      <point x="285" y="533"/>
      <point x="257" y="506" type="curve"/>
      <point x="257" y="506"/>
      <point x="251" y="497"/>
      <point x="251" y="492" type="curve" smooth="yes"/>
      <point x="251" y="488"/>
      <point x="255" y="485"/>
      <point x="260" y="483" type="curve" smooth="yes"/>
      <point x="295" y="467"/>
      <point x="323" y="478"/>
      <point x="367" y="458" type="curve" smooth="yes"/>
      <point x="393" y="447"/>
      <point x="405" y="421"/>
      <point x="396" y="402" type="curve" smooth="yes"/>
      <point x="386" y="382"/>
      <point x="361" y="374"/>
      <point x="335" y="386" type="curve" smooth="yes"/>
      <point x="292" y="407"/>
      <point x="284" y="442"/>
      <point x="250" y="460" type="curve"/>
      <point x="250" y="460"/>
      <point x="240" y="465"/>
      <point x="236" y="463" type="curve" smooth="yes"/>
      <point x="232" y="461"/>
      <point x="232" y="458"/>
      <point x="231" y="452" type="curve" smooth="yes"/>
      <point x="227" y="414"/>
      <point x="245" y="392"/>
      <point x="240" y="344" type="curve" smooth="yes"/>
      <point x="237" y="316"/>
      <point x="216" y="298"/>
      <point x="196" y="300" type="curve" smooth="yes"/>
      <point x="174" y="304"/>
      <point x="158" y="324"/>
      <point x="162" y="352" type="curve" smooth="yes"/>
      <point x="169" y="400"/>
      <point x="199" y="418"/>
      <point x="206" y="456" type="curve"/>
      <point x="206" y="456"/>
      <point x="208" y="466"/>
      <point x="204" y="470" type="curve" smooth="yes"/>
      <point x="202" y="473"/>
      <point x="199" y="473"/>
      <point x="193" y="472" type="curve" smooth="yes"/>
      <point x="156" y="464"/>
      <point x="139" y="439"/>
      <point x="92" y="429" type="curve" smooth="yes"/>
      <point x="64" y="423"/>
      <point x="40" y="438"/>
      <point x="36" y="458" type="curve" smooth="yes"/>
      <point x="32" y="480"/>
      <point x="47" y="501"/>
      <point x="75" y="506" type="curve" smooth="yes"/>
      <point x="122" y="514"/>
      <point x="149" y="491"/>
      <point x="188" y="496" type="curve"/>
      <point x="188" y="496"/>
      <point x="198" y="498"/>
      <point x="200" y="503" type="curve" smooth="yes"/>
      <point x="202" y="507"/>
      <point x="200" y="511"/>
      <point x="197" y="516" type="curve" smooth="yes"/>
      <point x="178" y="549"/>
      <point x="150" y="556"/>
      <point x="125" y="598" type="curve" smooth="yes"/>
      <point x="111" y="622"/>
      <point x="117" y="650"/>
      <point x="135" y="660" type="curve" smooth="yes"/>
      <point x="155" y="670"/>
      <point x="179" y="663"/>
      <point x="193" y="638" type="curve" smooth="yes"/>
      <point x="215" y="595"/>
      <point x="201" y="563"/>
      <point x="218" y="528" type="curve"/>
      <point x="218" y="528"/>
      <point x="223" y="518"/>
      <point x="228" y="517" type="curve" smooth="yes"/>
      <point x="232" y="517"/>
      <point x="235" y="518"/>
      <point x="239" y="522" type="curve" smooth="yes"/>
      <point x="265" y="550"/>
      <point x="263" y="580"/>
    </contour>
  </outline>
</glyph>
<glyph name="comma" format="1">
  <advance width="213"/>
  <unicode hex="002C"/>
  <outline>
    <contour>
      <point x="113" y="131" type="curve" smooth="yes"/>
      <point x="125" y="131"/>
      <point x="138" y="126"/>
      <point x="147" y="120" type="curve"/>
      <point x="155" y="106"/>
      <point x="163" y="83"/>
      <point x="163" y="52" type="curve" smooth="yes"/>
      <point x="163" y="-24"/>
      <point x="96" y="-116"/>
      <point x="36" y="-148" type="curve"/>
      <point x="27" y="-146"/>
      <point x="18" y="-132"/>
      <point x="18" y="-126" type="curve"/>
      <point x="38" y="-112"/>
      <point x="85" y="-73"/>
      <point x="85" y="-17" type="curve" smooth="yes"/>
      <point x="85" y="16"/>
      <point x="45" y="19"/>
      <point x="45" y="71" type="curve" smooth="yes"/>
      <point x="45" y="89"/>
      <point x="64" y="131"/>
    </contour>
  </outline>
</glyph>
<glyph name="period" format="1">
  <advance width="221"/>
  <unicode hex="002E"/>
  <outline>
    <contour>
      <point x="45" y="56" type="curve" smooth="yes"/>
      <point x="45" y="91"/>
      <point x="75" y="119"/>
      <point x="111" y="119" type="curve"/>
      <point x="147" y="119"/>
      <point x="175" y="89"/>
      <point x="175" y="54" type="curve" smooth="yes"/>
      <point x="175" y="19"/>
      <point x="147" y="-11"/>
      <point x="111" y="-11" type="curve"/>
      <point x="75" y="-11"/>
      <point x="45" y="20"/>
    </contour>
  </outline>
</glyph>
<glyph name="zero" format="1">
  <advance width="487"/>
  <unicode hex="0030"/>
  <outline>
    <contour>
      <point x="248" y="594" type="curve" smooth="yes"/>
      <point x="174" y="594"/>
      <point x="133" y="468"/>
      <point x="133" y="311" type="curve" smooth="yes"/>
      <point x="133" y="154"/>
      <point x="181" y="37"/>
      <point x="243" y="37" type="curve" smooth="yes"/>
      <point x="320" y="37"/>
      <point x="354" y="169"/>
      <point x="354" y="326" type="curve" smooth="yes"/>
      <point x="354" y="483"/>
      <point x="312" y="594"/>
    </contour>
    <contour>
      <point x="245" y="634" type="curve" smooth="yes"/>
      <point x="375" y="634"/>
      <point x="463" y="502"/>
      <point x="463" y="315" type="curve" smooth="yes"/>
      <point x="463" y="141"/>
      <point x="374" y="-3"/>
      <point x="245" y="-3" type="curve" smooth="yes"/>
      <point x="117" y="-3"/>
      <point x="24" y="128"/>
      <point x="24" y="315" type="curve" smooth="yes"/>
      <point x="24" y="489"/>
      <point x="116" y="634"/>
    </contour>
  </outline>
</glyph>
<glyph name="five" format="1">
  <advance width="487"/>
  <unicode hex="0035"/>
  <outline>
    <contour>
      <point x="245" y="410" type="curve" smooth="yes"/>
      <point x="347" y="410"/>
      <point x="440" y="319"/>
      <point x="440" y="224" type="curve" smooth="yes"/>
      <point x="440" y="85"/>
      <point x="307" y="-6"/>
      <point x="181" y="-6" type="curve" smooth="yes"/>
      <point x="135" y="-6"/>
      <point x="89" y="8"/>
      <point x="63" y="24" type="curve"/>
      <point x="57" y="30"/>
      <point x="47" y="52"/>
      <point x="47" y="65" type="curve" smooth="yes"/>
      <point x="47" y="91"/>
      <point x="65" y="116"/>
      <point x="93" y="116" type="curve" smooth="yes"/>
      <point x="121" y="116"/>
      <point x="137" y="88"/>
      <point x="153" y="70" type="curve" smooth="yes"/>
      <point x="171" y="50"/>
      <point x="200" y="35"/>
      <point x="226" y="35" type="curve" smooth="yes"/>
      <point x="284" y="35"/>
      <point x="333" y="81"/>
      <point x="333" y="184" type="curve" smooth="yes"/>
      <point x="333" y="260"/>
      <point x="269" y="334"/>
      <point x="183" y="334" type="curve"/>
      <point x="141" y="334"/>
      <point x="108" y="325"/>
      <point x="95" y="319" type="curve"/>
      <point x="90" y="319"/>
      <point x="87" y="330"/>
      <point x="87" y="336" type="curve"/>
      <point x="99" y="394"/>
      <point x="133" y="580"/>
      <point x="143" y="636" type="curve"/>
      <point x="200" y="636"/>
      <point x="275" y="636"/>
      <point x="307" y="636" type="curve"/>
      <point x="349" y="636"/>
      <point x="391" y="643"/>
      <point x="398" y="645" type="curve"/>
      <point x="404" y="642"/>
      <point x="411" y="640"/>
      <point x="411" y="632" type="curve" smooth="yes"/>
      <point x="411" y="620"/>
      <point x="389" y="566"/>
      <point x="377" y="549" type="curve"/>
      <point x="337" y="545"/>
      <point x="292" y="543"/>
      <point x="245" y="542" type="curve"/>
      <point x="229" y="542"/>
      <point x="181" y="542"/>
      <point x="169" y="542" type="curve"/>
      <point x="162" y="507"/>
      <point x="145" y="421"/>
      <point x="139" y="393" type="curve"/>
      <point x="165" y="401"/>
      <point x="213" y="410"/>
    </contour>
  </outline>
</glyph>
<glyph name="seven" format="1">
  <advance width="487"/>
  <unicode hex="0037"/>
  <outline>
    <contour>
      <point x="369.5" y="635" type="curve" smooth="yes"/>
      <point x="399.5" y="635"/>
      <point x="443.5" y="638"/>
      <point x="449.5" y="638" type="curve" smooth="yes"/>
      <point x="455.5" y="638"/>
      <point x="455.5" y="631"/>
      <point x="455.5" y="626" type="curve" smooth="yes"/>
      <point x="455.5" y="615"/>
      <point x="441.5" y="592"/>
      <point x="427.5" y="562" type="curve" smooth="yes"/>
      <point x="159.5" y="-5" type="line"/>
      <point x="156.5" y="-7"/>
      <point x="149.5" y="-8"/>
      <point x="145.5" y="-8" type="curve" smooth="yes"/>
      <point x="134.5" y="-8"/>
      <point x="101.5" y="-1"/>
      <point x="101.5" y="13" type="curve"/>
      <point x="173.5" y="121"/>
      <point x="337.5" y="452"/>
      <point x="383.5" y="548" type="curve"/>
      <point x="139.5" y="548" type="line" smooth="yes"/>
      <point x="94.5" y="548"/>
      <point x="79.5" y="514"/>
      <point x="65.5" y="468" type="curve" smooth="yes"/>
      <point x="64.5" y="464"/>
      <point x="61.5" y="462"/>
      <point x="53.5" y="462" type="curve" smooth="yes"/>
      <point x="46.5" y="462"/>
      <point x="35.5" y="464"/>
      <point x="31.5" y="468" type="curve"/>
      <point x="46.5" y="520"/>
      <point x="66.5" y="602"/>
      <point x="73.5" y="634" type="curve"/>
      <point x="81.5" y="634"/>
      <point x="369.5" y="635"/>
    </contour>
  </outline>
</glyph>
<glyph name="eight" format="1">
  <advance width="487"/>
  <unicode hex="0038"/>
  <outline>
    <contour>
      <point x="244.5" y="31" type="curve"/>
      <point x="302.5" y="31"/>
      <point x="336.5" y="72"/>
      <point x="336.5" y="128" type="curve"/>
      <point x="336.5" y="208"/>
      <point x="238.5" y="270"/>
      <point x="216.5" y="285" type="curve" smooth="yes"/>
      <point x="212.5" y="287"/>
      <point x="210.5" y="288"/>
      <point x="208.5" y="288" type="curve" smooth="yes"/>
      <point x="206.5" y="288"/>
      <point x="205.5" y="290"/>
      <point x="204.5" y="288" type="curve" smooth="yes"/>
      <point x="166.5" y="257"/>
      <point x="149.5" y="213"/>
      <point x="149.5" y="156" type="curve"/>
      <point x="149.5" y="86"/>
      <point x="188.5" y="31"/>
    </contour>
    <contour>
      <point x="240.5" y="600" type="curve"/>
      <point x="198.5" y="600"/>
      <point x="166.5" y="557"/>
      <point x="166.5" y="505" type="curve"/>
      <point x="166.5" y="432"/>
      <point x="230.5" y="393"/>
      <point x="262.5" y="375" type="curve" smooth="yes"/>
      <point x="264.5" y="373"/>
      <point x="267.5" y="372"/>
      <point x="270.5" y="372" type="curve" smooth="yes"/>
      <point x="272.5" y="372"/>
      <point x="274.5" y="372"/>
      <point x="276.5" y="374" type="curve" smooth="yes"/>
      <point x="306.5" y="401"/>
      <point x="320.5" y="438"/>
      <point x="320.5" y="486" type="curve"/>
      <point x="320.5" y="538"/>
      <point x="292.5" y="600"/>
    </contour>
    <contour>
      <point x="244.5" y="638" type="curve"/>
      <point x="334.5" y="638"/>
      <point x="418.5" y="586"/>
      <point x="418.5" y="492" type="curve"/>
      <point x="418.5" y="422"/>
      <point x="360.5" y="375"/>
      <point x="308.5" y="349" type="curve"/>
      <point x="305.5" y="348"/>
      <point x="306.5" y="346"/>
      <point x="308.5" y="344" type="curve" smooth="yes"/>
      <point x="356.5" y="316"/>
      <point x="442.5" y="248"/>
      <point x="442.5" y="167" type="curve"/>
      <point x="442.5" y="63"/>
      <point x="342.5" y="-8"/>
      <point x="238.5" y="-8" type="curve"/>
      <point x="132.5" y="-8"/>
      <point x="44.5" y="46"/>
      <point x="44.5" y="154" type="curve"/>
      <point x="44.5" y="240"/>
      <point x="122.5" y="290"/>
      <point x="172.5" y="312" type="curve" smooth="yes"/>
      <point x="174.5" y="314"/>
      <point x="175.5" y="316"/>
      <point x="172.5" y="318" type="curve" smooth="yes"/>
      <point x="134.5" y="346"/>
      <point x="64.5" y="399"/>
      <point x="64.5" y="483" type="curve"/>
      <point x="64.5" y="569"/>
      <point x="153.5" y="638"/>
    </contour>
  </outline>
</glyph>
<glyph name="semicolon" format="1">
  <advance width="244"/>
  <unicode hex="003B"/>
  <outline>
    <contour>
      <point x="133" y="131" type="curve" smooth="yes"/>
      <point x="145" y="131"/>
      <point x="160" y="126"/>
      <point x="169" y="120" type="curve"/>
      <point x="177" y="106"/>
      <point x="184" y="83"/>
      <point x="184" y="52" type="curve" smooth="yes"/>
      <point x="184" y="-24"/>
      <point x="117" y="-116"/>
      <point x="57" y="-148" type="curve"/>
      <point x="48" y="-146"/>
      <point x="39" y="-132"/>
      <point x="39" y="-126" type="curve"/>
      <point x="59" y="-112"/>
      <point x="106" y="-73"/>
      <point x="106" y="-17" type="curve" smooth="yes"/>
      <point x="106" y="16"/>
      <point x="65" y="19"/>
      <point x="65" y="71" type="curve" smooth="yes"/>
      <point x="65" y="89"/>
      <point x="84" y="131"/>
    </contour>
    <contour>
      <point x="55" y="368" type="curve" smooth="yes"/>
      <point x="55" y="403"/>
      <point x="85" y="431"/>
      <point x="121" y="431" type="curve"/>
      <point x="156" y="431"/>
      <point x="183" y="403"/>
      <point x="183" y="368" type="curve" smooth="yes"/>
      <point x="183" y="333"/>
      <point x="157" y="301"/>
      <point x="121" y="301" type="curve"/>
      <point x="85" y="301"/>
      <point x="55" y="333"/>
    </contour>
  </outline>
</glyph>
<glyph name="less" format="1">
  <advance width="494"/>
  <unicode hex="003C"/>
  <outline>
    <contour>
      <point x="444" y="40" type="curve" smooth="yes"/>
      <point x="444" y="33"/>
      <point x="434" y="-15"/>
      <point x="428" y="-15" type="curve" smooth="yes"/>
      <point x="427" y="-15"/>
      <point x="424" y="-14"/>
      <point x="422" y="-13" type="curve" smooth="yes"/>
      <point x="48" y="177" type="line" smooth="yes"/>
      <point x="33" y="185"/>
      <point x="30" y="200"/>
      <point x="30" y="217" type="curve" smooth="yes"/>
      <point x="30" y="228"/>
      <point x="38" y="236"/>
      <point x="48" y="241" type="curve" smooth="yes"/>
      <point x="418" y="428" type="line" smooth="yes"/>
      <point x="420" y="429"/>
      <point x="423" y="430"/>
      <point x="424" y="430" type="curve" smooth="yes"/>
      <point x="427" y="430"/>
      <point x="433" y="415"/>
      <point x="440" y="378" type="curve" smooth="yes"/>
      <point x="441" y="372"/>
      <point x="438" y="369"/>
      <point x="438" y="369" type="curve"/>
      <point x="116" y="209" type="line"/>
      <point x="440" y="46" type="line"/>
      <point x="440" y="46"/>
      <point x="444" y="45"/>
    </contour>
  </outline>
</glyph>
<glyph name="equal" format="1">
  <advance width="561"/>
  <unicode hex="003D"/>
  <outline>
    <contour>
      <point x="478" y="127" type="curve"/>
      <point x="317" y="127"/>
      <point x="244" y="127"/>
      <point x="72" y="127" type="curve"/>
      <point x="60" y="127"/>
      <point x="74" y="179"/>
      <point x="88" y="184" type="curve"/>
      <point x="491" y="184" type="line"/>
      <point x="505" y="184"/>
      <point x="492" y="134"/>
    </contour>
    <contour>
      <point x="478" y="271" type="curve"/>
      <point x="317" y="271"/>
      <point x="244" y="271"/>
      <point x="72" y="271" type="curve"/>
      <point x="60" y="271"/>
      <point x="74" y="323"/>
      <point x="88" y="328" type="curve"/>
      <point x="491" y="328" type="line"/>
      <point x="505" y="328"/>
      <point x="492" y="278"/>
    </contour>
  </outline>
</glyph>
<glyph name="greater" format="1">
  <advance width="494"/>
  <unicode hex="003E"/>
  <outline>
    <contour>
      <point x="50" y="40" type="curve" smooth="yes"/>
      <point x="50" y="44"/>
      <point x="53" y="46"/>
      <point x="53" y="46" type="curve"/>
      <point x="378" y="209" type="line"/>
      <point x="56" y="369" type="line"/>
      <point x="56" y="369"/>
      <point x="54" y="372"/>
      <point x="54" y="378" type="curve" smooth="yes"/>
      <point x="58" y="406"/>
      <point x="66" y="430"/>
      <point x="70" y="430" type="curve" smooth="yes"/>
      <point x="71" y="430"/>
      <point x="73" y="429"/>
      <point x="75" y="428" type="curve" smooth="yes"/>
      <point x="446" y="241" type="line" smooth="yes"/>
      <point x="456" y="236"/>
      <point x="464" y="228"/>
      <point x="464" y="217" type="curve" smooth="yes"/>
      <point x="464" y="200"/>
      <point x="461" y="185"/>
      <point x="446" y="177" type="curve" smooth="yes"/>
      <point x="72" y="-13" type="line" smooth="yes"/>
      <point x="70" y="-14"/>
      <point x="67" y="-15"/>
      <point x="66" y="-15" type="curve" smooth="yes"/>
      <point x="60" y="-15"/>
      <point x="50" y="32"/>
    </contour>
  </outline>
</glyph>
<glyph name="C" format="1">
  <advance width="676"/>
  <unicode hex="0043"/>
  <outline>
    <contour>
      <point x="387" y="667" type="curve" smooth="yes"/>
      <point x="453" y="667"/>
      <point x="531" y="661"/>
      <point x="597" y="647" type="curve"/>
      <point x="598" y="641"/>
      <point x="626" y="509"/>
      <point x="626" y="498" type="curve"/>
      <point x="626" y="490"/>
      <point x="613" y="482"/>
      <point x="602" y="482" type="curve"/>
      <point x="596" y="482"/>
      <point x="591" y="483"/>
      <point x="588" y="487" type="curve"/>
      <point x="580" y="522"/>
      <point x="548" y="627"/>
      <point x="394" y="627" type="curve" smooth="yes"/>
      <point x="250" y="627"/>
      <point x="175" y="488"/>
      <point x="175" y="348" type="curve" smooth="yes"/>
      <point x="175" y="192"/>
      <point x="250" y="34"/>
      <point x="412" y="34" type="curve" smooth="yes"/>
      <point x="473" y="34"/>
      <point x="512" y="53"/>
      <point x="540" y="78" type="curve" smooth="yes"/>
      <point x="581" y="114"/>
      <point x="602" y="178"/>
      <point x="606" y="198" type="curve"/>
      <point x="620" y="198"/>
      <point x="636" y="192"/>
      <point x="640" y="188" type="curve"/>
      <point x="640" y="172"/>
      <point x="615" y="49"/>
      <point x="601" y="40" type="curve"/>
      <point x="542" y="13"/>
      <point x="476" y="-6"/>
      <point x="384" y="-6" type="curve" smooth="yes"/>
      <point x="191" y="-6"/>
      <point x="45" y="139"/>
      <point x="45" y="322" type="curve" smooth="yes"/>
      <point x="45" y="512"/>
      <point x="193" y="667"/>
    </contour>
  </outline>
</glyph>
<glyph name="D" format="1">
  <advance width="736"/>
  <unicode hex="0044"/>
  <outline>
    <contour>
      <point x="230" y="543" type="curve" smooth="yes"/>
      <point x="230" y="130" type="line"/>
      <point x="230" y="120"/>
      <point x="231" y="67"/>
      <point x="237" y="54" type="curve" smooth="yes"/>
      <point x="244" y="42"/>
      <point x="277" y="35"/>
      <point x="309" y="35" type="curve" smooth="yes"/>
      <point x="461" y="35"/>
      <point x="561" y="124"/>
      <point x="561" y="319" type="curve" smooth="yes"/>
      <point x="561" y="530"/>
      <point x="440" y="622"/>
      <point x="294" y="622" type="curve" smooth="yes"/>
      <point x="276" y="622"/>
      <point x="239" y="620"/>
      <point x="235" y="610" type="curve" smooth="yes"/>
      <point x="230" y="596"/>
      <point x="230" y="572"/>
    </contour>
    <contour>
      <point x="322" y="659" type="curve" smooth="yes"/>
      <point x="547" y="659"/>
      <point x="690" y="530"/>
      <point x="690" y="335" type="curve" smooth="yes"/>
      <point x="690" y="133"/>
      <point x="561" y="-3"/>
      <point x="312" y="-3" type="curve" smooth="yes"/>
      <point x="269" y="-3"/>
      <point x="82" y="-3"/>
      <point x="43" y="-3" type="curve"/>
      <point x="39" y="3"/>
      <point x="39" y="24"/>
      <point x="43" y="30" type="curve"/>
      <point x="55" y="30"/>
      <point x="105" y="34"/>
      <point x="109" y="46" type="curve" smooth="yes"/>
      <point x="115" y="64"/>
      <point x="116" y="94"/>
      <point x="116" y="130" type="curve" smooth="yes"/>
      <point x="116" y="528" type="line" smooth="yes"/>
      <point x="116" y="564"/>
      <point x="115" y="594"/>
      <point x="109" y="612" type="curve" smooth="yes"/>
      <point x="105" y="624"/>
      <point x="55" y="628"/>
      <point x="43" y="628" type="curve"/>
      <point x="39" y="634"/>
      <point x="39" y="655"/>
      <point x="43" y="661" type="curve"/>
      <point x="86" y="659"/>
      <point x="133" y="657"/>
      <point x="173" y="657" type="curve" smooth="yes"/>
      <point x="213" y="657"/>
      <point x="270" y="659"/>
    </contour>
  </outline>
</glyph>
<glyph name="E" format="1">
  <advance width="596"/>
  <unicode hex="0045"/>
  <outline>
    <contour>
      <point x="173" y="656" type="curve" smooth="yes"/>
      <point x="241" y="656"/>
      <point x="413" y="664"/>
      <point x="497" y="664" type="curve"/>
      <point x="504" y="614"/>
      <point x="517" y="567"/>
      <point x="526" y="522" type="curve"/>
      <point x="523" y="519"/>
      <point x="512" y="517"/>
      <point x="505" y="517" type="curve" smooth="yes"/>
      <point x="498" y="517"/>
      <point x="492" y="519"/>
      <point x="490" y="524" type="curve" smooth="yes"/>
      <point x="468" y="592"/>
      <point x="435" y="620"/>
      <point x="378" y="620" type="curve" smooth="yes"/>
      <point x="294" y="620" type="line" smooth="yes"/>
      <point x="276" y="620"/>
      <point x="238" y="619"/>
      <point x="234" y="609" type="curve" smooth="yes"/>
      <point x="229" y="595"/>
      <point x="230" y="571"/>
      <point x="230" y="543" type="curve" smooth="yes"/>
      <point x="230" y="362" type="line" smooth="yes"/>
      <point x="230" y="356"/>
      <point x="250" y="353"/>
      <point x="272" y="353" type="curve" smooth="yes"/>
      <point x="325" y="353" type="line" smooth="yes"/>
      <point x="403" y="353"/>
      <point x="408" y="362"/>
      <point x="424" y="424" type="curve" smooth="yes"/>
      <point x="425" y="429"/>
      <point x="431" y="432"/>
      <point x="438" y="432" type="curve" smooth="yes"/>
      <point x="445" y="432"/>
      <point x="453" y="429"/>
      <point x="456" y="426" type="curve"/>
      <point x="456" y="236" type="line"/>
      <point x="454" y="234"/>
      <point x="446" y="232"/>
      <point x="439" y="232" type="curve" smooth="yes"/>
      <point x="432" y="232"/>
      <point x="426" y="235"/>
      <point x="424" y="240" type="curve" smooth="yes"/>
      <point x="410" y="292"/>
      <point x="401" y="299"/>
      <point x="392" y="304" type="curve" smooth="yes"/>
      <point x="380" y="310"/>
      <point x="339" y="311"/>
      <point x="301" y="311" type="curve" smooth="yes"/>
      <point x="273" y="311"/>
      <point x="230" y="310"/>
      <point x="230" y="300" type="curve" smooth="yes"/>
      <point x="230" y="130" type="line" smooth="yes"/>
      <point x="230" y="120"/>
      <point x="229" y="66"/>
      <point x="236" y="54" type="curve" smooth="yes"/>
      <point x="246" y="42"/>
      <point x="270" y="40"/>
      <point x="304" y="40" type="curve"/>
      <point x="366" y="40" type="line" smooth="yes"/>
      <point x="404" y="40"/>
      <point x="445" y="47"/>
      <point x="471" y="68" type="curve" smooth="yes"/>
      <point x="494" y="87"/>
      <point x="513" y="117"/>
      <point x="529" y="166" type="curve" smooth="yes"/>
      <point x="530" y="170"/>
      <point x="536" y="172"/>
      <point x="543" y="172" type="curve" smooth="yes"/>
      <point x="553" y="172"/>
      <point x="568" y="169"/>
      <point x="571" y="166" type="curve"/>
      <point x="552" y="112"/>
      <point x="524" y="41"/>
      <point x="517" y="-3" type="curve"/>
      <point x="449" y="-3"/>
      <point x="308" y="-1"/>
      <point x="174" y="-1" type="curve" smooth="yes"/>
      <point x="115" y="-1"/>
      <point x="69" y="-3"/>
      <point x="43" y="-3" type="curve"/>
      <point x="39" y="3"/>
      <point x="39" y="24"/>
      <point x="43" y="30" type="curve"/>
      <point x="55" y="30"/>
      <point x="105" y="34"/>
      <point x="109" y="46" type="curve" smooth="yes"/>
      <point x="115" y="64"/>
      <point x="116" y="94"/>
      <point x="116" y="130" type="curve" smooth="yes"/>
      <point x="116" y="528" type="line" smooth="yes"/>
      <point x="116" y="564"/>
      <point x="115" y="594"/>
      <point x="109" y="612" type="curve" smooth="yes"/>
      <point x="105" y="624"/>
      <point x="55" y="629"/>
      <point x="43" y="629" type="curve"/>
      <point x="39" y="635"/>
      <point x="39" y="656"/>
      <point x="43" y="662" type="curve"/>
      <point x="83" y="659"/>
      <point x="133" y="656"/>
    </contour>
  </outline>
</glyph>
<glyph name="F" format="1">
  <advance width="543"/>
  <unicode hex="0046"/>
  <outline>
    <contour>
      <point x="173" y="656" type="curve" smooth="yes"/>
      <point x="241" y="656"/>
      <point x="413" y="664"/>
      <point x="497" y="664" type="curve"/>
      <point x="504" y="614"/>
      <point x="517" y="567"/>
      <point x="526" y="522" type="curve"/>
      <point x="523" y="519"/>
      <point x="512" y="517"/>
      <point x="505" y="517" type="curve" smooth="yes"/>
      <point x="498" y="517"/>
      <point x="492" y="519"/>
      <point x="490" y="524" type="curve" smooth="yes"/>
      <point x="468" y="592"/>
      <point x="435" y="620"/>
      <point x="378" y="620" type="curve" smooth="yes"/>
      <point x="294" y="620" type="line" smooth="yes"/>
      <point x="276" y="620"/>
      <point x="238" y="619"/>
      <point x="234" y="609" type="curve" smooth="yes"/>
      <point x="229" y="595"/>
      <point x="230" y="571"/>
      <point x="230" y="543" type="curve" smooth="yes"/>
      <point x="230" y="360" type="line" smooth="yes"/>
      <point x="230" y="354"/>
      <point x="250" y="351"/>
      <point x="272" y="351" type="curve" smooth="yes"/>
      <point x="325" y="351" type="line" smooth="yes"/>
      <point x="403" y="351"/>
      <point x="408" y="360"/>
      <point x="424" y="422" type="curve" smooth="yes"/>
      <point x="425" y="427"/>
      <point x="431" y="430"/>
      <point x="438" y="430" type="curve" smooth="yes"/>
      <point x="445" y="430"/>
      <point x="453" y="427"/>
      <point x="456" y="424" type="curve"/>
      <point x="456" y="234" type="line"/>
      <point x="454" y="232"/>
      <point x="446" y="230"/>
      <point x="439" y="230" type="curve" smooth="yes"/>
      <point x="432" y="230"/>
      <point x="426" y="233"/>
      <point x="424" y="238" type="curve" smooth="yes"/>
      <point x="410" y="290"/>
      <point x="401" y="297"/>
      <point x="392" y="302" type="curve" smooth="yes"/>
      <point x="380" y="308"/>
      <point x="339" y="309"/>
      <point x="301" y="309" type="curve" smooth="yes"/>
      <point x="273" y="309"/>
      <point x="230" y="308"/>
      <point x="230" y="298" type="curve" smooth="yes"/>
      <point x="230" y="130" type="line" smooth="yes"/>
      <point x="230" y="94"/>
      <point x="230" y="64"/>
      <point x="236" y="46" type="curve" smooth="yes"/>
      <point x="240" y="34"/>
      <point x="300" y="29"/>
      <point x="312" y="29" type="curve"/>
      <point x="316" y="23"/>
      <point x="316" y="2"/>
      <point x="312" y="-4" type="curve"/>
      <point x="272" y="-1"/>
      <point x="212" y="2"/>
      <point x="172" y="2" type="curve" smooth="yes"/>
      <point x="128" y="2"/>
      <point x="82" y="-2"/>
      <point x="43" y="-4" type="curve"/>
      <point x="39" y="2"/>
      <point x="39" y="23"/>
      <point x="43" y="29" type="curve"/>
      <point x="55" y="29"/>
      <point x="105" y="34"/>
      <point x="109" y="46" type="curve" smooth="yes"/>
      <point x="115" y="64"/>
      <point x="116" y="94"/>
      <point x="116" y="130" type="curve" smooth="yes"/>
      <point x="116" y="528" type="line" smooth="yes"/>
      <point x="116" y="564"/>
      <point x="115" y="594"/>
      <point x="109" y="612" type="curve" smooth="yes"/>
      <point x="105" y="624"/>
      <point x="55" y="628"/>
      <point x="43" y="628" type="curve"/>
      <point x="39" y="634"/>
      <point x="39" y="655"/>
      <point x="43" y="661" type="curve"/>
      <point x="86" y="659"/>
      <point x="133" y="656"/>
    </contour>
  </outline>
</glyph>
<glyph name="G" format="1">
  <advance width="722"/>
  <unicode hex="0047"/>
  <outline>
    <contour>
      <point x="517" y="179" type="curve"/>
      <point x="517" y="204"/>
      <point x="518" y="223"/>
      <point x="512" y="242" type="curve" smooth="yes"/>
      <point x="507" y="260"/>
      <point x="454" y="263"/>
      <point x="442" y="263" type="curve"/>
      <point x="438" y="265"/>
      <point x="436" y="291"/>
      <point x="441" y="296" type="curve"/>
      <point x="487" y="294"/>
      <point x="534" y="290"/>
      <point x="579" y="290" type="curve" smooth="yes"/>
      <point x="619" y="290"/>
      <point x="657" y="294"/>
      <point x="697" y="296" type="curve"/>
      <point x="701" y="287"/>
      <point x="701" y="265"/>
      <point x="697" y="263" type="curve"/>
      <point x="687" y="263"/>
      <point x="644" y="257"/>
      <point x="637" y="248" type="curve" smooth="yes"/>
      <point x="631" y="238"/>
      <point x="629" y="214"/>
      <point x="629" y="190" type="curve"/>
      <point x="629" y="172"/>
      <point x="629" y="123"/>
      <point x="629" y="101" type="curve" smooth="yes"/>
      <point x="629" y="86"/>
      <point x="637" y="74"/>
      <point x="637" y="66" type="curve" smooth="yes"/>
      <point x="637" y="58"/>
      <point x="624" y="51"/>
      <point x="609" y="44" type="curve" smooth="yes"/>
      <point x="556" y="20"/>
      <point x="495" y="-6"/>
      <point x="383" y="-6" type="curve" smooth="yes"/>
      <point x="189" y="-6"/>
      <point x="44" y="139"/>
      <point x="44" y="322" type="curve" smooth="yes"/>
      <point x="44" y="509"/>
      <point x="192" y="667"/>
      <point x="386" y="667" type="curve" smooth="yes"/>
      <point x="452" y="667"/>
      <point x="530" y="661"/>
      <point x="596" y="647" type="curve"/>
      <point x="597" y="641"/>
      <point x="624" y="509"/>
      <point x="624" y="498" type="curve"/>
      <point x="624" y="490"/>
      <point x="612" y="482"/>
      <point x="601" y="482" type="curve"/>
      <point x="595" y="482"/>
      <point x="590" y="483"/>
      <point x="587" y="487" type="curve"/>
      <point x="579" y="522"/>
      <point x="548" y="627"/>
      <point x="394" y="627" type="curve" smooth="yes"/>
      <point x="246" y="627"/>
      <point x="174" y="485"/>
      <point x="174" y="345" type="curve" smooth="yes"/>
      <point x="174" y="189"/>
      <point x="251" y="34"/>
      <point x="409" y="34" type="curve" smooth="yes"/>
      <point x="454" y="34"/>
      <point x="485" y="44"/>
      <point x="509" y="56" type="curve" smooth="yes"/>
      <point x="514" y="58"/>
      <point x="517" y="62"/>
      <point x="517" y="70" type="curve" smooth="yes"/>
      <point x="517" y="91"/>
      <point x="517" y="155"/>
    </contour>
  </outline>
</glyph>
<glyph name="I" format="1">
  <advance width="345"/>
  <unicode hex="0049"/>
  <outline>
    <contour>
      <point x="173" y="656" type="curve" smooth="yes"/>
      <point x="213" y="656"/>
      <point x="262" y="659"/>
      <point x="302" y="662" type="curve"/>
      <point x="306" y="656"/>
      <point x="306" y="635"/>
      <point x="302" y="629" type="curve"/>
      <point x="290" y="629"/>
      <point x="240" y="624"/>
      <point x="236" y="612" type="curve" smooth="yes"/>
      <point x="230" y="594"/>
      <point x="230" y="564"/>
      <point x="230" y="528" type="curve" smooth="yes"/>
      <point x="230" y="130" type="line" smooth="yes"/>
      <point x="230" y="94"/>
      <point x="230" y="64"/>
      <point x="236" y="46" type="curve" smooth="yes"/>
      <point x="240" y="34"/>
      <point x="290" y="29"/>
      <point x="302" y="29" type="curve"/>
      <point x="306" y="23"/>
      <point x="306" y="2"/>
      <point x="302" y="-4" type="curve"/>
      <point x="262" y="-1"/>
      <point x="212" y="2"/>
      <point x="172" y="2" type="curve" smooth="yes"/>
      <point x="132" y="2"/>
      <point x="83" y="-1"/>
      <point x="43" y="-4" type="curve"/>
      <point x="39" y="2"/>
      <point x="39" y="23"/>
      <point x="43" y="29" type="curve"/>
      <point x="55" y="29"/>
      <point x="105" y="34"/>
      <point x="109" y="46" type="curve" smooth="yes"/>
      <point x="115" y="64"/>
      <point x="116" y="94"/>
      <point x="116" y="130" type="curve" smooth="yes"/>
      <point x="116" y="528" type="line" smooth="yes"/>
      <point x="116" y="564"/>
      <point x="115" y="594"/>
      <point x="109" y="612" type="curve" smooth="yes"/>
      <point x="105" y="624"/>
      <point x="55" y="629"/>
      <point x="43" y="629" type="curve"/>
      <point x="39" y="635"/>
      <point x="39" y="656"/>
      <point x="43" y="662" type="curve"/>
      <point x="83" y="659"/>
      <point x="133" y="656"/>
    </contour>
  </outline>
</glyph>
<glyph name="L" format="1">
  <advance width="572"/>
  <unicode hex="004C"/>
  <outline>
    <contour>
      <point x="230" y="130" type="line" smooth="yes"/>
      <point x="230" y="120"/>
      <point x="229" y="66"/>
      <point x="236" y="54" type="curve" smooth="yes"/>
      <point x="246" y="42"/>
      <point x="270" y="40"/>
      <point x="304" y="40" type="curve"/>
      <point x="366" y="40" type="line" smooth="yes"/>
      <point x="404" y="40"/>
      <point x="445" y="47"/>
      <point x="471" y="68" type="curve" smooth="yes"/>
      <point x="494" y="87"/>
      <point x="513" y="117"/>
      <point x="529" y="166" type="curve" smooth="yes"/>
      <point x="530" y="170"/>
      <point x="536" y="172"/>
      <point x="543" y="172" type="curve" smooth="yes"/>
      <point x="553" y="172"/>
      <point x="568" y="169"/>
      <point x="571" y="166" type="curve"/>
      <point x="552" y="112"/>
      <point x="524" y="41"/>
      <point x="517" y="-3" type="curve"/>
      <point x="449" y="-3"/>
      <point x="308" y="-1"/>
      <point x="174" y="-1" type="curve" smooth="yes"/>
      <point x="115" y="-1"/>
      <point x="69" y="-3"/>
      <point x="43" y="-3" type="curve"/>
      <point x="39" y="3"/>
      <point x="39" y="24"/>
      <point x="43" y="30" type="curve"/>
      <point x="55" y="30"/>
      <point x="105" y="34"/>
      <point x="109" y="46" type="curve" smooth="yes"/>
      <point x="115" y="64"/>
      <point x="116" y="94"/>
      <point x="116" y="130" type="curve" smooth="yes"/>
      <point x="116" y="528" type="line" smooth="yes"/>
      <point x="116" y="564"/>
      <point x="115" y="594"/>
      <point x="109" y="612" type="curve" smooth="yes"/>
      <point x="105" y="624"/>
      <point x="55" y="629"/>
      <point x="43" y="629" type="curve"/>
      <point x="39" y="635"/>
      <point x="39" y="656"/>
      <point x="43" y="662" type="curve"/>
      <point x="83" y="659"/>
      <point x="133" y="656"/>
      <point x="173" y="656" type="curve" smooth="yes"/>
      <point x="213" y="656"/>
      <point x="262" y="659"/>
      <point x="302" y="662" type="curve"/>
      <point x="306" y="656"/>
      <point x="306" y="635"/>
      <point x="302" y="629" type="curve"/>
      <point x="290" y="629"/>
      <point x="240" y="624"/>
      <point x="236" y="612" type="curve" smooth="yes"/>
      <point x="230" y="594"/>
      <point x="230" y="564"/>
      <point x="230" y="528" type="curve" smooth="yes"/>
    </contour>
  </outline>
</glyph>
<glyph name="M" format="1">
  <advance width="908"/>
  <unicode hex="004D"/>
  <outline>
    <contour>
      <point x="168" y="656" type="curve" smooth="yes"/>
      <point x="202" y="656"/>
      <point x="230" y="660"/>
      <point x="261" y="662" type="curve"/>
      <point x="285" y="598"/>
      <point x="388" y="366"/>
      <point x="461" y="192" type="curve"/>
      <point x="461" y="191"/>
      <point x="464" y="190"/>
      <point x="465" y="190" type="curve" smooth="yes"/>
      <point x="466" y="190"/>
      <point x="470" y="193"/>
      <point x="470" y="195" type="curve"/>
      <point x="500" y="271"/>
      <point x="554" y="410"/>
      <point x="605" y="544" type="curve" smooth="yes"/>
      <point x="622" y="588"/>
      <point x="644" y="660"/>
      <point x="644" y="660" type="curve"/>
      <point x="664" y="658"/>
      <point x="718" y="656"/>
      <point x="737" y="656" type="curve" smooth="yes"/>
      <point x="771" y="656"/>
      <point x="820" y="660"/>
      <point x="852" y="662" type="curve"/>
      <point x="854" y="658"/>
      <point x="857" y="632"/>
      <point x="855" y="628" type="curve"/>
      <point x="844" y="628"/>
      <point x="802" y="622"/>
      <point x="794" y="614" type="curve" smooth="yes"/>
      <point x="787" y="606"/>
      <point x="785" y="594"/>
      <point x="785" y="574" type="curve" smooth="yes"/>
      <point x="787" y="504"/>
      <point x="793" y="275"/>
      <point x="797" y="146" type="curve" smooth="yes"/>
      <point x="799" y="107"/>
      <point x="799" y="72"/>
      <point x="809" y="47" type="curve" smooth="yes"/>
      <point x="815" y="33"/>
      <point x="868" y="30"/>
      <point x="876" y="30" type="curve"/>
      <point x="880" y="21"/>
      <point x="880" y="2"/>
      <point x="878" y="-4" type="curve"/>
      <point x="838" y="-2"/>
      <point x="794" y="3"/>
      <point x="750" y="3" type="curve" smooth="yes"/>
      <point x="704" y="3"/>
      <point x="658" y="-2"/>
      <point x="612" y="-4" type="curve"/>
      <point x="609" y="-1"/>
      <point x="607" y="22"/>
      <point x="611" y="30" type="curve"/>
      <point x="623" y="30"/>
      <point x="668" y="34"/>
      <point x="678" y="44" type="curve" smooth="yes"/>
      <point x="684" y="50"/>
      <point x="687" y="71"/>
      <point x="687" y="83" type="curve" smooth="yes"/>
      <point x="687" y="95"/>
      <point x="685" y="126"/>
      <point x="685" y="142" type="curve"/>
      <point x="683" y="214"/>
      <point x="677" y="450"/>
      <point x="674" y="531" type="curve"/>
      <point x="674" y="534"/>
      <point x="673" y="554"/>
      <point x="666" y="554" type="curve" smooth="yes"/>
      <point x="664" y="554"/>
      <point x="663" y="552"/>
      <point x="661" y="547" type="curve"/>
      <point x="620" y="444"/>
      <point x="505" y="140"/>
      <point x="467" y="44" type="curve"/>
      <point x="463" y="35"/>
      <point x="441" y="-1"/>
      <point x="427" y="-2" type="curve" smooth="yes"/>
      <point x="424" y="-2"/>
      <point x="421" y="-1"/>
      <point x="418" y="0" type="curve"/>
      <point x="184" y="554" type="line"/>
      <point x="178" y="341"/>
      <point x="174" y="188"/>
      <point x="171" y="104" type="curve" smooth="yes"/>
      <point x="171" y="88"/>
      <point x="173" y="62"/>
      <point x="175" y="54" type="curve" smooth="yes"/>
      <point x="181" y="36"/>
      <point x="250" y="30"/>
      <point x="258" y="30" type="curve"/>
      <point x="262" y="24"/>
      <point x="262" y="2"/>
      <point x="260" y="-4" type="curve"/>
      <point x="220" y="-2"/>
      <point x="189" y="3"/>
      <point x="145" y="3" type="curve" smooth="yes"/>
      <point x="99" y="3"/>
      <point x="70" y="-2"/>
      <point x="24" y="-4" type="curve"/>
      <point x="21" y="0"/>
      <point x="20" y="19"/>
      <point x="24" y="28" type="curve"/>
      <point x="36" y="28"/>
      <point x="97" y="36"/>
      <point x="107" y="56" type="curve" smooth="yes"/>
      <point x="113" y="68"/>
      <point x="118" y="107"/>
      <point x="119" y="125" type="curve" smooth="yes"/>
      <point x="127" y="303"/>
      <point x="133" y="544"/>
      <point x="134" y="576" type="curve" smooth="yes"/>
      <point x="134" y="586"/>
      <point x="135" y="599"/>
      <point x="130" y="608" type="curve" smooth="yes"/>
      <point x="124" y="620"/>
      <point x="76" y="629"/>
      <point x="62" y="629" type="curve"/>
      <point x="58" y="633"/>
      <point x="60" y="660"/>
      <point x="62" y="662" type="curve"/>
      <point x="108" y="660"/>
      <point x="122" y="656"/>
    </contour>
  </outline>
</glyph>
<glyph name="N" format="1">
  <advance width="769"/>
  <unicode hex="004E"/>
  <outline>
    <contour>
      <point x="148" y="658" type="curve" smooth="yes"/>
      <point x="180" y="658"/>
      <point x="217" y="660"/>
      <point x="240" y="662" type="curve"/>
      <point x="284" y="583"/>
      <point x="480" y="361"/>
      <point x="597" y="207" type="curve"/>
      <point x="598" y="211"/>
      <point x="598" y="249"/>
      <point x="598" y="256" type="curve"/>
      <point x="598" y="510" type="line"/>
      <point x="598" y="547"/>
      <point x="595" y="593"/>
      <point x="587" y="609" type="curve" smooth="yes"/>
      <point x="580" y="623"/>
      <point x="523" y="630"/>
      <point x="509" y="630" type="curve"/>
      <point x="505" y="634"/>
      <point x="504" y="655"/>
      <point x="508" y="663" type="curve"/>
      <point x="551" y="661"/>
      <point x="581" y="656"/>
      <point x="626" y="656" type="curve" smooth="yes"/>
      <point x="671" y="656"/>
      <point x="701" y="661"/>
      <point x="744" y="663" type="curve"/>
      <point x="746" y="657"/>
      <point x="749" y="640"/>
      <point x="743" y="630" type="curve"/>
      <point x="733" y="630"/>
      <point x="670" y="624"/>
      <point x="662" y="608" type="curve" smooth="yes"/>
      <point x="655" y="594"/>
      <point x="652" y="549"/>
      <point x="652" y="512" type="curve" smooth="yes"/>
      <point x="652" y="139" type="line" smooth="yes"/>
      <point x="652" y="81"/>
      <point x="654" y="51"/>
      <point x="656" y="-1" type="curve"/>
      <point x="653" y="-4"/>
      <point x="637" y="-5"/>
      <point x="634" y="-5" type="curve" smooth="yes"/>
      <point x="625" y="-5"/>
      <point x="612" y="4"/>
      <point x="602" y="18" type="curve" smooth="yes"/>
      <point x="181" y="544" type="line"/>
      <point x="181" y="136" type="line" smooth="yes"/>
      <point x="181" y="100"/>
      <point x="183" y="68"/>
      <point x="191" y="53" type="curve" smooth="yes"/>
      <point x="197" y="39"/>
      <point x="258" y="30"/>
      <point x="270" y="30" type="curve"/>
      <point x="276" y="22"/>
      <point x="274" y="2"/>
      <point x="272" y="-4" type="curve"/>
      <point x="232" y="-2"/>
      <point x="196" y="3"/>
      <point x="152" y="3" type="curve" smooth="yes"/>
      <point x="106" y="3"/>
      <point x="82" y="-2"/>
      <point x="36" y="-4" type="curve"/>
      <point x="32" y="3"/>
      <point x="32" y="23"/>
      <point x="36" y="29" type="curve"/>
      <point x="48" y="29"/>
      <point x="107" y="37"/>
      <point x="115" y="52" type="curve" smooth="yes"/>
      <point x="123" y="67"/>
      <point x="126" y="99"/>
      <point x="126" y="137" type="curve"/>
      <point x="126" y="203"/>
      <point x="126" y="465"/>
      <point x="126" y="531" type="curve"/>
      <point x="126" y="564"/>
      <point x="123" y="593"/>
      <point x="112" y="610" type="curve" smooth="yes"/>
      <point x="104" y="622"/>
      <point x="52" y="630"/>
      <point x="40" y="630" type="curve"/>
      <point x="35" y="636"/>
      <point x="35" y="658"/>
      <point x="39" y="663" type="curve"/>
      <point x="77" y="661"/>
      <point x="108" y="658"/>
    </contour>
  </outline>
</glyph>
<glyph name="O" format="1">
  <advance width="752"/>
  <unicode hex="004F"/>
  <outline>
    <contour>
      <point x="357" y="627" type="curve"/>
      <point x="223" y="627"/>
      <point x="174" y="484"/>
      <point x="174" y="356" type="curve"/>
      <point x="174" y="202"/>
      <point x="243" y="30"/>
      <point x="395" y="30" type="curve"/>
      <point x="529" y="30"/>
      <point x="579" y="172"/>
      <point x="579" y="300" type="curve"/>
      <point x="579" y="454"/>
      <point x="509" y="627"/>
    </contour>
    <contour>
      <point x="376" y="667" type="curve" smooth="yes"/>
      <point x="552" y="667"/>
      <point x="709" y="521"/>
      <point x="709" y="328" type="curve" smooth="yes"/>
      <point x="709" y="141"/>
      <point x="552" y="-10"/>
      <point x="376" y="-10" type="curve" smooth="yes"/>
      <point x="200" y="-10"/>
      <point x="44" y="136"/>
      <point x="44" y="328" type="curve" smooth="yes"/>
      <point x="44" y="515"/>
      <point x="200" y="667"/>
    </contour>
  </outline>
</glyph>
<glyph name="U" format="1">
  <advance width="728"/>
  <unicode hex="0055"/>
  <outline>
    <contour>
      <point x="158" y="656" type="curve" smooth="yes"/>
      <point x="198" y="656"/>
      <point x="247" y="659"/>
      <point x="287" y="662" type="curve"/>
      <point x="291" y="656"/>
      <point x="291" y="635"/>
      <point x="287" y="629" type="curve"/>
      <point x="275" y="629"/>
      <point x="224" y="624"/>
      <point x="220" y="612" type="curve" smooth="yes"/>
      <point x="214" y="594"/>
      <point x="214" y="564"/>
      <point x="214" y="528" type="curve" smooth="yes"/>
      <point x="214" y="313" type="line" smooth="yes"/>
      <point x="214" y="237"/>
      <point x="223" y="182"/>
      <point x="251" y="136" type="curve" smooth="yes"/>
      <point x="286" y="72"/>
      <point x="346" y="59"/>
      <point x="395" y="59" type="curve" smooth="yes"/>
      <point x="487" y="59"/>
      <point x="571" y="118"/>
      <point x="573" y="292" type="curve" smooth="yes"/>
      <point x="573" y="512" type="line" smooth="yes"/>
      <point x="573" y="552"/>
      <point x="570" y="590"/>
      <point x="561" y="608" type="curve" smooth="yes"/>
      <point x="554" y="622"/>
      <point x="502" y="630"/>
      <point x="488" y="630" type="curve"/>
      <point x="483" y="637"/>
      <point x="484" y="656"/>
      <point x="487" y="662" type="curve"/>
      <point x="531" y="659"/>
      <point x="560" y="656"/>
      <point x="605" y="656" type="curve" smooth="yes"/>
      <point x="650" y="656"/>
      <point x="674" y="660"/>
      <point x="718" y="662" type="curve"/>
      <point x="722" y="656"/>
      <point x="723" y="639"/>
      <point x="718" y="630" type="curve"/>
      <point x="706" y="630"/>
      <point x="648" y="624"/>
      <point x="640" y="608" type="curve" smooth="yes"/>
      <point x="632" y="590"/>
      <point x="628" y="553"/>
      <point x="628" y="513" type="curve" smooth="yes"/>
      <point x="628" y="281" type="line" smooth="yes"/>
      <point x="628" y="79"/>
      <point x="510" y="-6"/>
      <point x="360" y="-6" type="curve" smooth="yes"/>
      <point x="282" y="-6"/>
      <point x="211" y="19"/>
      <point x="165" y="70" type="curve" smooth="yes"/>
      <point x="122" y="117"/>
      <point x="100" y="184"/>
      <point x="100" y="276" type="curve" smooth="yes"/>
      <point x="100" y="528" type="line" smooth="yes"/>
      <point x="100" y="564"/>
      <point x="101" y="594"/>
      <point x="94" y="612" type="curve" smooth="yes"/>
      <point x="90" y="624"/>
      <point x="39" y="629"/>
      <point x="27" y="629" type="curve"/>
      <point x="23" y="635"/>
      <point x="23" y="656"/>
      <point x="27" y="662" type="curve"/>
      <point x="67" y="659"/>
      <point x="118" y="656"/>
    </contour>
  </outline>
</glyph>
<glyph name="V" format="1">
  <advance width="663"/>
  <unicode hex="0056"/>
  <outline>
    <contour>
      <point x="126" y="656" type="curve" smooth="yes"/>
      <point x="169" y="656"/>
      <point x="219" y="659"/>
      <point x="259" y="662" type="curve"/>
      <point x="262" y="656"/>
      <point x="262" y="633"/>
      <point x="258" y="629" type="curve"/>
      <point x="248" y="629"/>
      <point x="197" y="625"/>
      <point x="197" y="599" type="curve" smooth="yes"/>
      <point x="197" y="586"/>
      <point x="206" y="559"/>
      <point x="218" y="528" type="curve" smooth="yes"/>
      <point x="263" y="416"/>
      <point x="363" y="163"/>
      <point x="365" y="159" type="curve"/>
      <point x="368" y="166"/>
      <point x="477" y="431"/>
      <point x="512" y="522" type="curve" smooth="yes"/>
      <point x="521" y="546"/>
      <point x="532" y="578"/>
      <point x="532" y="598" type="curve" smooth="yes"/>
      <point x="532" y="623"/>
      <point x="471" y="629"/>
      <point x="459" y="629" type="curve"/>
      <point x="454" y="633"/>
      <point x="455" y="656"/>
      <point x="459" y="662" type="curve"/>
      <point x="501" y="659"/>
      <point x="529" y="656"/>
      <point x="571" y="656" type="curve" smooth="yes"/>
      <point x="616" y="656"/>
      <point x="636" y="660"/>
      <point x="676" y="662" type="curve"/>
      <point x="680" y="656"/>
      <point x="679" y="633"/>
      <point x="675" y="629" type="curve"/>
      <point x="665" y="629"/>
      <point x="622" y="625"/>
      <point x="608" y="607" type="curve" smooth="yes"/>
      <point x="594" y="590"/>
      <point x="577" y="551"/>
      <point x="563" y="515" type="curve" smooth="yes"/>
      <point x="485" y="323"/>
      <point x="440" y="217"/>
      <point x="362" y="31" type="curve" smooth="yes"/>
      <point x="352" y="9"/>
      <point x="331" y="-6"/>
      <point x="319" y="-6" type="curve" smooth="yes"/>
      <point x="313" y="-6"/>
      <point x="311" y="2"/>
      <point x="307" y="8" type="curve"/>
      <point x="273" y="97"/>
      <point x="141" y="416"/>
      <point x="103" y="512" type="curve"/>
      <point x="89" y="546"/>
      <point x="76" y="578"/>
      <point x="63" y="601" type="curve" smooth="yes"/>
      <point x="51" y="622"/>
      <point x="9" y="629"/>
      <point x="-3" y="629" type="curve"/>
      <point x="-6" y="633"/>
      <point x="-6" y="658"/>
      <point x="-3" y="662" type="curve"/>
      <point x="39" y="659"/>
      <point x="82" y="656"/>
    </contour>
  </outline>
</glyph>
<glyph name="W" format="1">
  <advance width="928"/>
  <unicode hex="0057"/>
  <outline>
    <contour>
      <point x="131" y="656" type="curve" smooth="yes"/>
      <point x="174" y="656"/>
      <point x="216" y="659"/>
      <point x="256" y="662" type="curve"/>
      <point x="259" y="656"/>
      <point x="259" y="633"/>
      <point x="255" y="629" type="curve"/>
      <point x="245" y="629"/>
      <point x="194" y="625"/>
      <point x="194" y="599" type="curve"/>
      <point x="194" y="588"/>
      <point x="204" y="561"/>
      <point x="214" y="529" type="curve" smooth="yes"/>
      <point x="247" y="426"/>
      <point x="298" y="273"/>
      <point x="319" y="202" type="curve"/>
      <point x="343" y="280"/>
      <point x="432" y="545"/>
      <point x="459" y="627" type="curve" smooth="yes"/>
      <point x="465" y="646"/>
      <point x="481" y="662"/>
      <point x="492" y="662" type="curve" smooth="yes"/>
      <point x="496" y="662"/>
      <point x="500" y="657"/>
      <point x="504" y="646" type="curve"/>
      <point x="540" y="551"/>
      <point x="639" y="282"/>
      <point x="673" y="182" type="curve"/>
      <point x="695" y="258"/>
      <point x="751" y="436"/>
      <point x="775" y="522" type="curve" smooth="yes"/>
      <point x="782" y="547"/>
      <point x="791" y="578"/>
      <point x="791" y="598" type="curve" smooth="yes"/>
      <point x="791" y="623"/>
      <point x="730" y="629"/>
      <point x="718" y="629" type="curve"/>
      <point x="713" y="633"/>
      <point x="714" y="656"/>
      <point x="718" y="662" type="curve"/>
      <point x="760" y="659"/>
      <point x="789" y="656"/>
      <point x="831" y="656" type="curve" smooth="yes"/>
      <point x="876" y="656"/>
      <point x="896" y="660"/>
      <point x="936" y="662" type="curve"/>
      <point x="940" y="656"/>
      <point x="939" y="633"/>
      <point x="935" y="629" type="curve"/>
      <point x="925" y="629"/>
      <point x="884" y="623"/>
      <point x="868" y="607" type="curve" smooth="yes"/>
      <point x="854" y="591"/>
      <point x="842" y="566"/>
      <point x="830" y="528" type="curve" smooth="yes"/>
      <point x="772" y="339"/>
      <point x="733" y="218"/>
      <point x="675" y="36" type="curve" smooth="yes"/>
      <point x="668" y="14"/>
      <point x="648" y="-6"/>
      <point x="636" y="-6" type="curve" smooth="yes"/>
      <point x="630" y="-6"/>
      <point x="624" y="2"/>
      <point x="621" y="8" type="curve"/>
      <point x="589" y="102"/>
      <point x="489" y="362"/>
      <point x="455" y="460" type="curve"/>
      <point x="427" y="368"/>
      <point x="369" y="198"/>
      <point x="318" y="38" type="curve" smooth="yes"/>
      <point x="314" y="24"/>
      <point x="294" y="-6"/>
      <point x="282" y="-6" type="curve" smooth="yes"/>
      <point x="276" y="-6"/>
      <point x="270" y="2"/>
      <point x="267" y="8" type="curve"/>
      <point x="238" y="100"/>
      <point x="128" y="423"/>
      <point x="97" y="521" type="curve"/>
      <point x="86" y="556"/>
      <point x="76" y="583"/>
      <point x="62" y="602" type="curve" smooth="yes"/>
      <point x="49" y="622"/>
      <point x="12" y="629"/>
      <point x="-1" y="629" type="curve"/>
      <point x="-5" y="633"/>
      <point x="-4" y="658"/>
      <point x="-1" y="662" type="curve"/>
      <point x="42" y="659"/>
      <point x="87" y="656"/>
    </contour>
  </outline>
</glyph>
<glyph name="X" format="1">
  <advance width="690"/>
  <unicode hex="0058"/>
  <outline>
    <contour>
      <point x="168" y="656" type="curve" smooth="yes"/>
      <point x="217" y="656"/>
      <point x="264" y="660"/>
      <point x="304" y="662" type="curve"/>
      <point x="306" y="656"/>
      <point x="307" y="629"/>
      <point x="302" y="629" type="curve"/>
      <point x="288" y="629"/>
      <point x="245" y="622"/>
      <point x="245" y="602" type="curve" smooth="yes"/>
      <point x="245" y="595"/>
      <point x="249" y="585"/>
      <point x="255" y="576" type="curve" smooth="yes"/>
      <point x="369" y="403" type="line"/>
      <point x="421" y="471"/>
      <point x="490" y="557"/>
      <point x="505" y="588" type="curve" smooth="yes"/>
      <point x="506" y="592"/>
      <point x="509" y="597"/>
      <point x="509" y="601" type="curve" smooth="yes"/>
      <point x="509" y="613"/>
      <point x="483" y="628"/>
      <point x="438" y="628" type="curve"/>
      <point x="434" y="628"/>
      <point x="432" y="656"/>
      <point x="436" y="662" type="curve"/>
      <point x="474" y="658"/>
      <point x="519" y="656"/>
      <point x="556" y="656" type="curve" smooth="yes"/>
      <point x="608" y="656"/>
      <point x="645" y="659"/>
      <point x="671" y="662" type="curve"/>
      <point x="674" y="656"/>
      <point x="676" y="631"/>
      <point x="670" y="628" type="curve"/>
      <point x="662" y="628"/>
      <point x="606" y="626"/>
      <point x="570" y="582" type="curve"/>
      <point x="532" y="534"/>
      <point x="429" y="413"/>
      <point x="393" y="365" type="curve"/>
      <point x="435" y="301"/>
      <point x="583" y="79"/>
      <point x="591" y="71" type="curve"/>
      <point x="615" y="39"/>
      <point x="665" y="29"/>
      <point x="689" y="29" type="curve"/>
      <point x="693" y="22"/>
      <point x="693" y="1"/>
      <point x="690" y="-4" type="curve"/>
      <point x="650" y="-2"/>
      <point x="599" y="2"/>
      <point x="558" y="2" type="curve" smooth="yes"/>
      <point x="502" y="2"/>
      <point x="462" y="-2"/>
      <point x="406" y="-4" type="curve"/>
      <point x="401" y="1"/>
      <point x="402" y="29"/>
      <point x="407" y="29" type="curve" smooth="yes"/>
      <point x="418" y="29"/>
      <point x="464" y="40"/>
      <point x="464" y="58" type="curve" smooth="yes"/>
      <point x="464" y="61"/>
      <point x="462" y="66"/>
      <point x="460" y="69" type="curve" smooth="yes"/>
      <point x="318" y="286" type="line"/>
      <point x="280" y="236"/>
      <point x="189" y="112"/>
      <point x="167" y="74" type="curve" smooth="yes"/>
      <point x="164" y="68"/>
      <point x="160" y="62"/>
      <point x="160" y="58" type="curve" smooth="yes"/>
      <point x="160" y="43"/>
      <point x="196" y="29"/>
      <point x="239" y="29" type="curve"/>
      <point x="243" y="23"/>
      <point x="244" y="3"/>
      <point x="242" y="-4" type="curve"/>
      <point x="207" y="-2"/>
      <point x="156" y="2"/>
      <point x="119" y="2" type="curve" smooth="yes"/>
      <point x="67" y="2"/>
      <point x="34" y="-2"/>
      <point x="-6" y="-4" type="curve"/>
      <point x="-10" y="2"/>
      <point x="-8" y="24"/>
      <point x="-5" y="29" type="curve"/>
      <point x="3" y="29"/>
      <point x="70" y="32"/>
      <point x="100" y="72" type="curve"/>
      <point x="138" y="120"/>
      <point x="254" y="279"/>
      <point x="290" y="327" type="curve"/>
      <point x="270" y="357"/>
      <point x="149" y="542"/>
      <point x="149" y="542" type="curve" smooth="yes"/>
      <point x="129" y="574"/>
      <point x="110" y="601"/>
      <point x="89" y="614" type="curve" smooth="yes"/>
      <point x="73" y="624"/>
      <point x="39" y="629"/>
      <point x="27" y="629" type="curve"/>
      <point x="22" y="629"/>
      <point x="22" y="657"/>
      <point x="27" y="662" type="curve"/>
      <point x="76" y="660"/>
      <point x="119" y="656"/>
    </contour>
  </outline>
</glyph>
<glyph name="Y" format="1">
  <advance width="611"/>
  <unicode hex="0059"/>
  <outline>
    <contour>
      <point x="247" y="130" type="curve" smooth="yes"/>
      <point x="247" y="276" type="line" smooth="yes"/>
      <point x="247" y="283"/>
      <point x="244" y="291"/>
      <point x="240" y="300" type="curve" smooth="yes"/>
      <point x="198" y="380"/>
      <point x="136" y="489"/>
      <point x="107" y="542" type="curve"/>
      <point x="89" y="574"/>
      <point x="78" y="586"/>
      <point x="58" y="604" type="curve" smooth="yes"/>
      <point x="42" y="622"/>
      <point x="8" y="629"/>
      <point x="-4" y="629" type="curve"/>
      <point x="-9" y="633"/>
      <point x="-8" y="656"/>
      <point x="-4" y="662" type="curve"/>
      <point x="40" y="659"/>
      <point x="84" y="656"/>
      <point x="130" y="656" type="curve" smooth="yes"/>
      <point x="175" y="656"/>
      <point x="225" y="659"/>
      <point x="265" y="662" type="curve"/>
      <point x="268" y="656"/>
      <point x="269" y="633"/>
      <point x="264" y="629" type="curve"/>
      <point x="250" y="629"/>
      <point x="203" y="626"/>
      <point x="203" y="600" type="curve" smooth="yes"/>
      <point x="203" y="594"/>
      <point x="207" y="586"/>
      <point x="213" y="576" type="curve" smooth="yes"/>
      <point x="341" y="348" type="line"/>
      <point x="368" y="390"/>
      <point x="442" y="529"/>
      <point x="470" y="585" type="curve" smooth="yes"/>
      <point x="472" y="591"/>
      <point x="474" y="598"/>
      <point x="474" y="604" type="curve" smooth="yes"/>
      <point x="474" y="616"/>
      <point x="435" y="628"/>
      <point x="401" y="628" type="curve"/>
      <point x="397" y="632"/>
      <point x="397" y="658"/>
      <point x="400" y="662" type="curve"/>
      <point x="442" y="659"/>
      <point x="466" y="656"/>
      <point x="508" y="656" type="curve" smooth="yes"/>
      <point x="556" y="656"/>
      <point x="579" y="660"/>
      <point x="619" y="662" type="curve"/>
      <point x="622" y="656"/>
      <point x="622" y="632"/>
      <point x="618" y="628" type="curve"/>
      <point x="608" y="628"/>
      <point x="556" y="628"/>
      <point x="537" y="596" type="curve" smooth="yes"/>
      <point x="508" y="548"/>
      <point x="402" y="370"/>
      <point x="366" y="300" type="curve" smooth="yes"/>
      <point x="361" y="291"/>
      <point x="361" y="282"/>
      <point x="361" y="274" type="curve" smooth="yes"/>
      <point x="361" y="130" type="line" smooth="yes"/>
      <point x="361" y="94"/>
      <point x="361" y="64"/>
      <point x="367" y="46" type="curve" smooth="yes"/>
      <point x="371" y="34"/>
      <point x="421" y="29"/>
      <point x="433" y="29" type="curve"/>
      <point x="437" y="23"/>
      <point x="437" y="2"/>
      <point x="433" y="-4" type="curve"/>
      <point x="393" y="-1"/>
      <point x="343" y="2"/>
      <point x="303" y="2" type="curve" smooth="yes"/>
      <point x="263" y="2"/>
      <point x="214" y="-1"/>
      <point x="174" y="-4" type="curve"/>
      <point x="170" y="2"/>
      <point x="170" y="23"/>
      <point x="174" y="29" type="curve"/>
      <point x="186" y="29"/>
      <point x="236" y="34"/>
      <point x="240" y="46" type="curve" smooth="yes"/>
      <point x="246" y="64"/>
      <point x="247" y="94"/>
    </contour>
  </outline>
</glyph>
<glyph name="bracketleft" format="1">
  <advance width="283"/>
  <unicode hex="005B"/>
  <outline>
    <contour>
      <point x="96" y="744" type="curve" smooth="yes"/>
      <point x="188" y="744"/>
      <point x="257" y="751"/>
      <point x="275" y="755" type="curve"/>
      <point x="276" y="755"/>
      <point x="279" y="752"/>
      <point x="279" y="746" type="curve" smooth="yes"/>
      <point x="279" y="736"/>
      <point x="273" y="727"/>
      <point x="269" y="725" type="curve" smooth="yes"/>
      <point x="235" y="711"/>
      <point x="169" y="703"/>
      <point x="155" y="700" type="curve"/>
      <point x="155" y="-86" type="line"/>
      <point x="169" y="-89"/>
      <point x="235" y="-97"/>
      <point x="269" y="-111" type="curve" smooth="yes"/>
      <point x="273" y="-113"/>
      <point x="279" y="-122"/>
      <point x="279" y="-132" type="curve" smooth="yes"/>
      <point x="279" y="-138"/>
      <point x="276" y="-141"/>
      <point x="275" y="-141" type="curve"/>
      <point x="257" y="-137"/>
      <point x="188" y="-130"/>
      <point x="96" y="-130" type="curve" smooth="yes"/>
      <point x="80" y="-130"/>
      <point x="77" y="-113"/>
      <point x="77" y="-107" type="curve"/>
      <point x="77" y="721" type="line"/>
      <point x="77" y="727"/>
      <point x="80" y="744"/>
    </contour>
  </outline>
</glyph>
<glyph name="backslash" format="1">
  <advance width="410"/>
  <unicode hex="005C"/>
  <outline>
    <contour>
      <point x="29" y="752" type="curve"/>
      <point x="33" y="757"/>
      <point x="40" y="759"/>
      <point x="48" y="759" type="curve" smooth="yes"/>
      <point x="66" y="759"/>
      <point x="78" y="751"/>
      <point x="81" y="743" type="curve" smooth="yes"/>
      <point x="81" y="743"/>
      <point x="379" y="-16"/>
      <point x="379" y="-22" type="curve"/>
      <point x="378" y="-26"/>
      <point x="366" y="-32"/>
      <point x="353" y="-32" type="curve" smooth="yes"/>
      <point x="345" y="-32"/>
      <point x="332" y="-26"/>
      <point x="328" y="-16" type="curve" smooth="yes"/>
      <point x="214" y="276"/>
      <point x="119" y="524"/>
    </contour>
  </outline>
</glyph>
<glyph name="asciicircum" format="1">
  <advance width="390"/>
  <unicode hex="005E"/>
  <outline>
    <contour>
      <point x="186" y="657" type="curve" smooth="yes"/>
      <point x="192" y="657"/>
      <point x="200" y="652"/>
      <point x="204" y="644" type="curve" smooth="yes"/>
      <point x="250" y="560"/>
      <point x="274" y="518"/>
      <point x="322" y="438" type="curve"/>
      <point x="322" y="428"/>
      <point x="312" y="421"/>
      <point x="305" y="421" type="curve"/>
      <point x="253" y="472"/>
      <point x="186" y="554"/>
      <point x="186" y="554" type="curve"/>
      <point x="186" y="554"/>
      <point x="120" y="472"/>
      <point x="68" y="421" type="curve"/>
      <point x="61" y="421"/>
      <point x="50" y="428"/>
      <point x="50" y="438" type="curve"/>
      <point x="98" y="518"/>
      <point x="123" y="560"/>
      <point x="169" y="644" type="curve" smooth="yes"/>
      <point x="173" y="652"/>
      <point x="180" y="657"/>
    </contour>
  </outline>
</glyph>
<glyph name="a" format="1">
  <advance width="452"/>
  <unicode hex="0061"/>
  <outline>
    <contour>
      <point x="207" y="54" type="curve" smooth="yes"/>
      <point x="237" y="54"/>
      <point x="271" y="77"/>
      <point x="271" y="85" type="curve" smooth="yes"/>
      <point x="271" y="223" type="line"/>
      <point x="247" y="214"/>
      <point x="210" y="202"/>
      <point x="191" y="192" type="curve" smooth="yes"/>
      <point x="159" y="176"/>
      <point x="142" y="150"/>
      <point x="142" y="120" type="curve" smooth="yes"/>
      <point x="142" y="80"/>
      <point x="175" y="54"/>
    </contour>
    <contour>
      <point x="244" y="442" type="curve" smooth="yes"/>
      <point x="314" y="442"/>
      <point x="374" y="382"/>
      <point x="374" y="298" type="curve" smooth="yes"/>
      <point x="374" y="101" type="line" smooth="yes"/>
      <point x="374" y="74"/>
      <point x="383" y="57"/>
      <point x="401" y="57" type="curve" smooth="yes"/>
      <point x="417" y="57"/>
      <point x="428" y="66"/>
      <point x="432" y="68" type="curve"/>
      <point x="436" y="67"/>
      <point x="437" y="60"/>
      <point x="437" y="56" type="curve"/>
      <point x="437" y="50"/>
      <point x="436" y="44"/>
      <point x="433" y="39" type="curve"/>
      <point x="420" y="27"/>
      <point x="376" y="-6"/>
      <point x="344" y="-6" type="curve" smooth="yes"/>
      <point x="313" y="-6"/>
      <point x="283" y="24"/>
      <point x="275" y="52" type="curve"/>
      <point x="265" y="42"/>
      <point x="193" y="-8"/>
      <point x="157" y="-8" type="curve" smooth="yes"/>
      <point x="86" y="-8"/>
      <point x="33" y="48"/>
      <point x="33" y="110" type="curve" smooth="yes"/>
      <point x="33" y="150"/>
      <point x="61" y="182"/>
      <point x="85" y="190" type="curve" smooth="yes"/>
      <point x="132" y="206"/>
      <point x="225" y="241"/>
      <point x="265" y="257" type="curve"/>
      <point x="270" y="263"/>
      <point x="271" y="268"/>
      <point x="271" y="280" type="curve" smooth="yes"/>
      <point x="271" y="306" type="line" smooth="yes"/>
      <point x="271" y="354"/>
      <point x="240" y="404"/>
      <point x="198" y="404" type="curve" smooth="yes"/>
      <point x="162" y="404"/>
      <point x="149" y="374"/>
      <point x="141" y="332" type="curve" smooth="yes"/>
      <point x="135" y="304"/>
      <point x="120" y="286"/>
      <point x="90" y="286" type="curve" smooth="yes"/>
      <point x="66" y="286"/>
      <point x="47" y="306"/>
      <point x="47" y="330" type="curve" smooth="yes"/>
      <point x="47" y="338"/>
      <point x="51" y="353"/>
      <point x="57" y="363" type="curve"/>
      <point x="79" y="384"/>
      <point x="164" y="442"/>
    </contour>
  </outline>
</glyph>
<glyph name="b" format="1">
  <advance width="520"/>
  <unicode hex="0062"/>
  <outline>
    <contour>
      <point x="226" y="-8" type="curve" smooth="yes"/>
      <point x="192" y="-8"/>
      <point x="149" y="9"/>
      <point x="126" y="12" type="curve" smooth="yes"/>
      <point x="106" y="15"/>
      <point x="90" y="17"/>
      <point x="75" y="11" type="curve"/>
      <point x="71" y="11"/>
      <point x="57" y="28"/>
      <point x="57" y="34" type="curve"/>
      <point x="65" y="53"/>
      <point x="69" y="88"/>
      <point x="69" y="131" type="curve" smooth="yes"/>
      <point x="69" y="558" type="line" smooth="yes"/>
      <point x="69" y="573"/>
      <point x="69" y="594"/>
      <point x="63" y="608" type="curve" smooth="yes"/>
      <point x="57" y="621"/>
      <point x="22" y="626"/>
      <point x="2" y="626" type="curve"/>
      <point x="0" y="626"/>
      <point x="-1" y="653"/>
      <point x="3" y="655" type="curve"/>
      <point x="84" y="663"/>
      <point x="148" y="684"/>
      <point x="170" y="694" type="curve"/>
      <point x="176" y="694"/>
      <point x="183" y="684"/>
      <point x="183" y="678" type="curve"/>
      <point x="183" y="678"/>
      <point x="172" y="640"/>
      <point x="172" y="584" type="curve" smooth="yes"/>
      <point x="172" y="404" type="line" smooth="yes"/>
      <point x="172" y="399"/>
      <point x="172" y="388"/>
      <point x="178" y="393" type="curve" smooth="yes"/>
      <point x="193" y="405"/>
      <point x="252" y="443"/>
      <point x="288" y="443" type="curve" smooth="yes"/>
      <point x="406" y="443"/>
      <point x="484" y="341"/>
      <point x="484" y="234" type="curve" smooth="yes"/>
      <point x="484" y="88"/>
      <point x="362" y="-8"/>
    </contour>
    <contour>
      <point x="239" y="377" type="curve" smooth="yes"/>
      <point x="212" y="377"/>
      <point x="185" y="362"/>
      <point x="176" y="352" type="curve" smooth="yes"/>
      <point x="173" y="349"/>
      <point x="172" y="346"/>
      <point x="172" y="342" type="curve" smooth="yes"/>
      <point x="172" y="98" type="line" smooth="yes"/>
      <point x="172" y="60"/>
      <point x="209" y="31"/>
      <point x="252" y="31" type="curve" smooth="yes"/>
      <point x="320" y="31"/>
      <point x="370" y="117"/>
      <point x="370" y="195" type="curve" smooth="yes"/>
      <point x="370" y="321"/>
      <point x="315" y="377"/>
    </contour>
  </outline>
</glyph>
<glyph name="c" format="1">
  <advance width="434"/>
  <unicode hex="0063"/>
  <outline>
    <contour>
      <point x="397" y="384" type="curve" smooth="yes"/>
      <point x="397" y="352"/>
      <point x="375" y="329"/>
      <point x="349" y="329" type="curve"/>
      <point x="325" y="329"/>
      <point x="307" y="356"/>
      <point x="291" y="370" type="curve" smooth="yes"/>
      <point x="272" y="386"/>
      <point x="254" y="395"/>
      <point x="228" y="395" type="curve" smooth="yes"/>
      <point x="180" y="395"/>
      <point x="137" y="325"/>
      <point x="137" y="242" type="curve" smooth="yes"/>
      <point x="137" y="114"/>
      <point x="213" y="67"/>
      <point x="290" y="67" type="curve" smooth="yes"/>
      <point x="346" y="67"/>
      <point x="382" y="98"/>
      <point x="399" y="117" type="curve"/>
      <point x="403" y="116"/>
      <point x="409" y="108"/>
      <point x="409" y="101" type="curve"/>
      <point x="409" y="95"/>
      <point x="407" y="86"/>
      <point x="405" y="82" type="curve" smooth="yes"/>
      <point x="387" y="54"/>
      <point x="327" y="-8"/>
      <point x="241" y="-8" type="curve" smooth="yes"/>
      <point x="125" y="-8"/>
      <point x="35" y="79"/>
      <point x="35" y="197" type="curve" smooth="yes"/>
      <point x="35" y="331"/>
      <point x="166" y="443"/>
      <point x="287" y="443" type="curve" smooth="yes"/>
      <point x="332" y="443"/>
      <point x="365" y="434"/>
      <point x="383" y="422" type="curve"/>
      <point x="389" y="415"/>
      <point x="397" y="402"/>
    </contour>
  </outline>
</glyph>
<glyph name="g" format="1">
  <advance width="471"/>
  <unicode hex="0067"/>
  <outline>
    <contour>
      <point x="215" y="408" type="curve"/>
      <point x="161" y="408"/>
      <point x="144" y="351"/>
      <point x="144" y="300" type="curve"/>
      <point x="144" y="242"/>
      <point x="171" y="176"/>
      <point x="227" y="176" type="curve"/>
      <point x="281" y="176"/>
      <point x="295" y="233"/>
      <point x="295" y="283" type="curve"/>
      <point x="295" y="341"/>
      <point x="272" y="408"/>
    </contour>
    <contour>
      <point x="257" y="-9" type="curve" smooth="yes"/>
      <point x="229" y="-9"/>
      <point x="169" y="-10"/>
      <point x="156" y="-12" type="curve"/>
      <point x="141" y="-22"/>
      <point x="117" y="-43"/>
      <point x="117" y="-67" type="curve" smooth="yes"/>
      <point x="117" y="-133"/>
      <point x="167" y="-174"/>
      <point x="245" y="-174" type="curve" smooth="yes"/>
      <point x="327" y="-174"/>
      <point x="379" y="-124"/>
      <point x="379" y="-80" type="curve" smooth="yes"/>
      <point x="379" y="-44"/>
      <point x="337" y="-9"/>
    </contour>
    <contour>
      <point x="313" y="81" type="curve" smooth="yes"/>
      <point x="399" y="79"/>
      <point x="457" y="19"/>
      <point x="457" y="-26" type="curve" smooth="yes"/>
      <point x="457" y="-128"/>
      <point x="331" y="-222"/>
      <point x="193" y="-222" type="curve" smooth="yes"/>
      <point x="103" y="-222"/>
      <point x="23" y="-179"/>
      <point x="23" y="-104" type="curve" smooth="yes"/>
      <point x="23" y="-62"/>
      <point x="83" y="-22"/>
      <point x="119" y="-4" type="curve"/>
      <point x="85" y="6"/>
      <point x="48" y="46"/>
      <point x="48" y="92" type="curve"/>
      <point x="56" y="111"/>
      <point x="105" y="146"/>
      <point x="133" y="162" type="curve"/>
      <point x="80" y="187"/>
      <point x="45" y="238"/>
      <point x="45" y="291" type="curve" smooth="yes"/>
      <point x="45" y="372"/>
      <point x="120" y="442"/>
      <point x="219" y="442" type="curve" smooth="yes"/>
      <point x="263" y="442"/>
      <point x="296" y="431"/>
      <point x="319" y="418" type="curve" smooth="yes"/>
      <point x="330" y="413"/>
      <point x="327" y="413"/>
      <point x="333" y="412" type="curve"/>
      <point x="449" y="426" type="line"/>
      <point x="454" y="424"/>
      <point x="459" y="421"/>
      <point x="459" y="416" type="curve" smooth="yes"/>
      <point x="459" y="408"/>
      <point x="445" y="376"/>
      <point x="435" y="370" type="curve"/>
      <point x="411" y="372"/>
      <point x="388" y="373"/>
      <point x="375" y="375" type="curve"/>
      <point x="373" y="375"/>
      <point x="369" y="374"/>
      <point x="369" y="372" type="curve"/>
      <point x="379" y="358"/>
      <point x="394" y="329"/>
      <point x="394" y="292" type="curve" smooth="yes"/>
      <point x="394" y="216"/>
      <point x="319" y="142"/>
      <point x="219" y="142" type="curve" smooth="yes"/>
      <point x="201" y="142"/>
      <point x="178" y="146"/>
      <point x="165" y="150" type="curve"/>
      <point x="151" y="140"/>
      <point x="135" y="125"/>
      <point x="135" y="112" type="curve" smooth="yes"/>
      <point x="135" y="100"/>
      <point x="157" y="82"/>
      <point x="189" y="82" type="curve" smooth="yes"/>
      <point x="241" y="82"/>
      <point x="273" y="82"/>
    </contour>
  </outline>
</glyph>
<glyph name="i" format="1">
  <advance width="294"/>
  <unicode hex="0069"/>
  <outline>
    <contour>
      <point x="206" y="317" type="curve"/>
      <point x="206" y="130" type="line" smooth="yes"/>
      <point x="206" y="96"/>
      <point x="206" y="64"/>
      <point x="212" y="46" type="curve" smooth="yes"/>
      <point x="216" y="34"/>
      <point x="260" y="29"/>
      <point x="272" y="29" type="curve"/>
      <point x="276" y="23"/>
      <point x="276" y="2"/>
      <point x="272" y="-4" type="curve"/>
      <point x="232" y="-1"/>
      <point x="193" y="2"/>
      <point x="153" y="2" type="curve" smooth="yes"/>
      <point x="112" y="2"/>
      <point x="72" y="-1"/>
      <point x="32" y="-4" type="curve"/>
      <point x="28" y="2"/>
      <point x="28" y="23"/>
      <point x="32" y="29" type="curve"/>
      <point x="44" y="29"/>
      <point x="91" y="34"/>
      <point x="95" y="46" type="curve" smooth="yes"/>
      <point x="102" y="64"/>
      <point x="102" y="94"/>
      <point x="102" y="130" type="curve" smooth="yes"/>
      <point x="102" y="282" type="line" smooth="yes"/>
      <point x="102" y="294"/>
      <point x="102" y="335"/>
      <point x="95" y="349" type="curve" smooth="yes"/>
      <point x="87" y="365"/>
      <point x="38" y="368"/>
      <point x="31" y="368" type="curve"/>
      <point x="29" y="370"/>
      <point x="27" y="394"/>
      <point x="31" y="396" type="curve"/>
      <point x="95" y="402"/>
      <point x="161" y="424"/>
      <point x="200" y="444" type="curve"/>
      <point x="206" y="443"/>
      <point x="214" y="431"/>
      <point x="214" y="427" type="curve"/>
      <point x="212" y="419"/>
      <point x="206" y="377"/>
      <point x="206" y="365" type="curve"/>
      <point x="206" y="354"/>
      <point x="206" y="320"/>
    </contour>
    <contour>
      <point x="84" y="604" type="curve" smooth="yes"/>
      <point x="84" y="638"/>
      <point x="111" y="666"/>
      <point x="145" y="666" type="curve" smooth="yes"/>
      <point x="179" y="666"/>
      <point x="207" y="638"/>
      <point x="207" y="604" type="curve" smooth="yes"/>
      <point x="207" y="570"/>
      <point x="179" y="544"/>
      <point x="145" y="544" type="curve" smooth="yes"/>
      <point x="111" y="544"/>
      <point x="84" y="570"/>
    </contour>
  </outline>
</glyph>
<glyph name="k" format="1">
  <advance width="554"/>
  <unicode hex="006B"/>
  <outline>
    <contour>
      <point x="194" y="130" type="line" smooth="yes"/>
      <point x="194" y="94"/>
      <point x="194" y="64"/>
      <point x="200" y="46" type="curve" smooth="yes"/>
      <point x="204" y="34"/>
      <point x="251" y="29"/>
      <point x="263" y="29" type="curve"/>
      <point x="267" y="23"/>
      <point x="267" y="2"/>
      <point x="263" y="-4" type="curve"/>
      <point x="223" y="-1"/>
      <point x="181" y="2"/>
      <point x="141" y="2" type="curve" smooth="yes"/>
      <point x="100" y="2"/>
      <point x="60" y="-1"/>
      <point x="20" y="-4" type="curve"/>
      <point x="16" y="2"/>
      <point x="16" y="23"/>
      <point x="20" y="29" type="curve"/>
      <point x="32" y="29"/>
      <point x="79" y="34"/>
      <point x="83" y="46" type="curve" smooth="yes"/>
      <point x="89" y="64"/>
      <point x="90" y="94"/>
      <point x="90" y="130" type="curve" smooth="yes"/>
      <point x="90" y="558" type="line" smooth="yes"/>
      <point x="90" y="574"/>
      <point x="90" y="594"/>
      <point x="84" y="608" type="curve" smooth="yes"/>
      <point x="78" y="621"/>
      <point x="43" y="626"/>
      <point x="23" y="626" type="curve"/>
      <point x="21" y="626"/>
      <point x="20" y="653"/>
      <point x="24" y="655" type="curve"/>
      <point x="105" y="663"/>
      <point x="169" y="684"/>
      <point x="191" y="694" type="curve"/>
      <point x="197" y="694"/>
      <point x="204" y="684"/>
      <point x="204" y="678" type="curve"/>
      <point x="204" y="678"/>
      <point x="194" y="632"/>
      <point x="194" y="584" type="curve"/>
      <point x="193" y="236" type="line"/>
      <point x="210" y="242"/>
      <point x="237" y="262"/>
      <point x="271" y="292" type="curve" smooth="yes"/>
      <point x="332" y="344"/>
      <point x="361" y="369"/>
      <point x="361" y="381" type="curve" smooth="yes"/>
      <point x="361" y="395"/>
      <point x="319" y="399"/>
      <point x="305" y="400" type="curve"/>
      <point x="301" y="408"/>
      <point x="302" y="430"/>
      <point x="307" y="432" type="curve"/>
      <point x="321" y="430"/>
      <point x="384" y="428"/>
      <point x="421" y="428" type="curve" smooth="yes"/>
      <point x="456" y="428"/>
      <point x="486" y="430"/>
      <point x="520" y="432" type="curve"/>
      <point x="525" y="424"/>
      <point x="523" y="404"/>
      <point x="519" y="400" type="curve"/>
      <point x="497" y="398"/>
      <point x="455" y="390"/>
      <point x="431" y="374" type="curve" smooth="yes"/>
      <point x="415" y="362"/>
      <point x="344" y="304"/>
      <point x="284" y="252" type="curve"/>
      <point x="357" y="170"/>
      <point x="405" y="118"/>
      <point x="445" y="76" type="curve" smooth="yes"/>
      <point x="485" y="35"/>
      <point x="521" y="31"/>
      <point x="550" y="31" type="curve"/>
      <point x="554" y="24"/>
      <point x="553" y="8"/>
      <point x="551" y="4" type="curve"/>
      <point x="539" y="0"/>
      <point x="500" y="-5"/>
      <point x="468" y="-5" type="curve" smooth="yes"/>
      <point x="410" y="-5"/>
      <point x="360" y="20"/>
      <point x="338" y="46" type="curve" smooth="yes"/>
      <point x="338" y="46"/>
      <point x="260" y="130"/>
      <point x="207" y="192" type="curve" smooth="yes"/>
      <point x="203" y="198"/>
      <point x="194" y="202"/>
      <point x="194" y="202" type="curve"/>
    </contour>
  </outline>
</glyph>
<glyph name="l" format="1">
  <advance width="283"/>
  <unicode hex="006C"/>
  <outline>
    <contour>
      <point x="90" y="558" type="line" smooth="yes"/>
      <point x="90" y="574"/>
      <point x="90" y="594"/>
      <point x="84" y="608" type="curve" smooth="yes"/>
      <point x="78" y="621"/>
      <point x="43" y="626"/>
      <point x="23" y="626" type="curve"/>
      <point x="21" y="626"/>
      <point x="20" y="653"/>
      <point x="24" y="655" type="curve"/>
      <point x="105" y="663"/>
      <point x="169" y="684"/>
      <point x="191" y="694" type="curve"/>
      <point x="197" y="694"/>
      <point x="204" y="684"/>
      <point x="204" y="678" type="curve"/>
      <point x="204" y="678"/>
      <point x="194" y="632"/>
      <point x="194" y="584" type="curve"/>
      <point x="194" y="130" type="line" smooth="yes"/>
      <point x="194" y="94"/>
      <point x="194" y="64"/>
      <point x="200" y="46" type="curve" smooth="yes"/>
      <point x="204" y="34"/>
      <point x="251" y="29"/>
      <point x="263" y="29" type="curve"/>
      <point x="267" y="23"/>
      <point x="267" y="2"/>
      <point x="263" y="-4" type="curve"/>
      <point x="223" y="-1"/>
      <point x="181" y="2"/>
      <point x="141" y="2" type="curve" smooth="yes"/>
      <point x="100" y="2"/>
      <point x="60" y="-1"/>
      <point x="20" y="-4" type="curve"/>
      <point x="16" y="2"/>
      <point x="16" y="23"/>
      <point x="20" y="29" type="curve"/>
      <point x="32" y="29"/>
      <point x="79" y="34"/>
      <point x="83" y="46" type="curve" smooth="yes"/>
      <point x="89" y="64"/>
      <point x="90" y="94"/>
      <point x="90" y="130" type="curve" smooth="yes"/>
    </contour>
  </outline>
</glyph>
<glyph name="p" format="1">
  <advance width="532"/>
  <unicode hex="0070"/>
  <outline>
    <contour>
      <point x="308" y="443" type="curve" smooth="yes"/>
      <point x="430" y="443"/>
      <point x="496" y="331"/>
      <point x="496" y="233" type="curve" smooth="yes"/>
      <point x="496" y="92"/>
      <point x="368" y="-8"/>
      <point x="257" y="-8" type="curve" smooth="yes"/>
      <point x="230" y="-8"/>
      <point x="203" y="0"/>
      <point x="193" y="2" type="curve"/>
      <point x="191" y="2"/>
      <point x="190" y="-2"/>
      <point x="190" y="-12" type="curve" smooth="yes"/>
      <point x="190" y="-88" type="line" smooth="yes"/>
      <point x="190" y="-124"/>
      <point x="190" y="-154"/>
      <point x="196" y="-172" type="curve" smooth="yes"/>
      <point x="200" y="-184"/>
      <point x="247" y="-189"/>
      <point x="259" y="-189" type="curve"/>
      <point x="263" y="-195"/>
      <point x="263" y="-216"/>
      <point x="259" y="-222" type="curve"/>
      <point x="219" y="-219"/>
      <point x="177" y="-216"/>
      <point x="137" y="-216" type="curve" smooth="yes"/>
      <point x="96" y="-216"/>
      <point x="56" y="-219"/>
      <point x="16" y="-222" type="curve"/>
      <point x="11" y="-216"/>
      <point x="11" y="-195"/>
      <point x="16" y="-189" type="curve"/>
      <point x="28" y="-189"/>
      <point x="75" y="-184"/>
      <point x="79" y="-172" type="curve" smooth="yes"/>
      <point x="85" y="-154"/>
      <point x="86" y="-124"/>
      <point x="86" y="-88" type="curve" smooth="yes"/>
      <point x="86" y="282" type="line" smooth="yes"/>
      <point x="86" y="294"/>
      <point x="85" y="335"/>
      <point x="79" y="349" type="curve" smooth="yes"/>
      <point x="71" y="365"/>
      <point x="22" y="368"/>
      <point x="15" y="368" type="curve"/>
      <point x="12" y="370"/>
      <point x="10" y="394"/>
      <point x="15" y="396" type="curve"/>
      <point x="78" y="402"/>
      <point x="145" y="421"/>
      <point x="184" y="441" type="curve"/>
      <point x="190" y="440"/>
      <point x="198" y="431"/>
      <point x="198" y="427" type="curve"/>
      <point x="196" y="421"/>
      <point x="190" y="401"/>
      <point x="190" y="389" type="curve" smooth="yes"/>
      <point x="190" y="385"/>
      <point x="191" y="383"/>
      <point x="193" y="384" type="curve" smooth="yes"/>
      <point x="209" y="400"/>
      <point x="272" y="443"/>
    </contour>
    <contour>
      <point x="259" y="377" type="curve" smooth="yes"/>
      <point x="220" y="377"/>
      <point x="190" y="354"/>
      <point x="190" y="344" type="curve" smooth="yes"/>
      <point x="190" y="98" type="line" smooth="yes"/>
      <point x="190" y="52"/>
      <point x="235" y="32"/>
      <point x="270" y="32" type="curve" smooth="yes"/>
      <point x="328" y="32"/>
      <point x="382" y="99"/>
      <point x="382" y="197" type="curve" smooth="yes"/>
      <point x="382" y="308"/>
      <point x="337" y="377"/>
    </contour>
  </outline>
</glyph>
<glyph name="q" format="1">
  <advance width="517"/>
  <unicode hex="0071"/>
  <outline>
    <contour>
      <point x="259" y="398" type="curve" smooth="yes"/>
      <point x="177" y="398"/>
      <point x="148" y="305"/>
      <point x="148" y="239" type="curve" smooth="yes"/>
      <point x="148" y="139"/>
      <point x="193" y="54"/>
      <point x="273" y="54" type="curve" smooth="yes"/>
      <point x="311" y="54"/>
      <point x="343" y="76"/>
      <point x="343" y="86" type="curve" smooth="yes"/>
      <point x="343" y="338" type="line" smooth="yes"/>
      <point x="343" y="364"/>
      <point x="307" y="398"/>
    </contour>
    <contour>
      <point x="293" y="442" type="curve" smooth="yes"/>
      <point x="327" y="442"/>
      <point x="379" y="418"/>
      <point x="411" y="418" type="curve" smooth="yes"/>
      <point x="425" y="418"/>
      <point x="433" y="421"/>
      <point x="439" y="423" type="curve"/>
      <point x="445" y="422"/>
      <point x="458" y="406"/>
      <point x="458" y="400" type="curve"/>
      <point x="451" y="384"/>
      <point x="447" y="350"/>
      <point x="447" y="306" type="curve" smooth="yes"/>
      <point x="447" y="-88" type="line" smooth="yes"/>
      <point x="447" y="-124"/>
      <point x="447" y="-154"/>
      <point x="453" y="-172" type="curve" smooth="yes"/>
      <point x="457" y="-184"/>
      <point x="504" y="-189"/>
      <point x="516" y="-189" type="curve"/>
      <point x="520" y="-195"/>
      <point x="520" y="-216"/>
      <point x="516" y="-222" type="curve"/>
      <point x="476" y="-219"/>
      <point x="434" y="-216"/>
      <point x="394" y="-216" type="curve" smooth="yes"/>
      <point x="354" y="-216"/>
      <point x="313" y="-219"/>
      <point x="273" y="-222" type="curve"/>
      <point x="269" y="-216"/>
      <point x="269" y="-195"/>
      <point x="273" y="-189" type="curve"/>
      <point x="285" y="-189"/>
      <point x="332" y="-184"/>
      <point x="336" y="-172" type="curve" smooth="yes"/>
      <point x="342" y="-154"/>
      <point x="343" y="-124"/>
      <point x="343" y="-88" type="curve" smooth="yes"/>
      <point x="343" y="28" type="line" smooth="yes"/>
      <point x="343" y="34"/>
      <point x="342" y="44"/>
      <point x="336" y="40" type="curve" smooth="yes"/>
      <point x="321" y="28"/>
      <point x="262" y="-8"/>
      <point x="217" y="-8" type="curve" smooth="yes"/>
      <point x="109" y="-8"/>
      <point x="35" y="98"/>
      <point x="35" y="196" type="curve" smooth="yes"/>
      <point x="35" y="343"/>
      <point x="176" y="442"/>
    </contour>
  </outline>
</glyph>
<glyph name="s" format="1">
  <advance width="387"/>
  <unicode hex="0073"/>
  <outline>
    <contour>
      <point x="210" y="443" type="curve" smooth="yes"/>
      <point x="253" y="443"/>
      <point x="279" y="432"/>
      <point x="317" y="426" type="curve"/>
      <point x="325" y="394"/>
      <point x="334" y="336"/>
      <point x="334" y="310" type="curve" smooth="yes"/>
      <point x="334" y="306"/>
      <point x="326" y="304"/>
      <point x="320" y="304" type="curve" smooth="yes"/>
      <point x="314" y="304"/>
      <point x="308" y="306"/>
      <point x="302" y="310" type="curve"/>
      <point x="292" y="351"/>
      <point x="262" y="407"/>
      <point x="206" y="407" type="curve" smooth="yes"/>
      <point x="166" y="407"/>
      <point x="142" y="384"/>
      <point x="142" y="348" type="curve" smooth="yes"/>
      <point x="142" y="296"/>
      <point x="193" y="281"/>
      <point x="237" y="257" type="curve" smooth="yes"/>
      <point x="285" y="231"/>
      <point x="348" y="202"/>
      <point x="348" y="128" type="curve" smooth="yes"/>
      <point x="348" y="38"/>
      <point x="265" y="-10"/>
      <point x="173" y="-10" type="curve" smooth="yes"/>
      <point x="128" y="-10"/>
      <point x="90" y="3"/>
      <point x="56" y="10" type="curve"/>
      <point x="50" y="32"/>
      <point x="44" y="110"/>
      <point x="44" y="128" type="curve"/>
      <point x="46" y="132"/>
      <point x="55" y="134"/>
      <point x="60" y="134" type="curve" smooth="yes"/>
      <point x="65" y="134"/>
      <point x="73" y="132"/>
      <point x="76" y="128" type="curve"/>
      <point x="89" y="64"/>
      <point x="138" y="26"/>
      <point x="184" y="26" type="curve" smooth="yes"/>
      <point x="222" y="26"/>
      <point x="248" y="53"/>
      <point x="248" y="90" type="curve" smooth="yes"/>
      <point x="248" y="146"/>
      <point x="188" y="162"/>
      <point x="136" y="192" type="curve" smooth="yes"/>
      <point x="87" y="220"/>
      <point x="44" y="252"/>
      <point x="44" y="312" type="curve" smooth="yes"/>
      <point x="44" y="399"/>
      <point x="134" y="443"/>
    </contour>
  </outline>
</glyph>
<glyph name="t" format="1">
  <advance width="328"/>
  <unicode hex="0074"/>
  <outline>
    <contour>
      <point x="187" y="430" type="curve"/>
      <point x="191" y="430"/>
      <point x="291" y="430"/>
      <point x="307" y="430" type="curve"/>
      <point x="311" y="430"/>
      <point x="313" y="424"/>
      <point x="313" y="418" type="curve" smooth="yes"/>
      <point x="313" y="409"/>
      <point x="305" y="394"/>
      <point x="295" y="386" type="curve"/>
      <point x="280" y="386"/>
      <point x="203" y="386"/>
      <point x="187" y="386" type="curve"/>
      <point x="187" y="131" type="line" smooth="yes"/>
      <point x="187" y="78"/>
      <point x="206" y="52"/>
      <point x="246" y="52" type="curve" smooth="yes"/>
      <point x="273" y="52"/>
      <point x="300" y="72"/>
      <point x="305" y="76" type="curve"/>
      <point x="307" y="74"/>
      <point x="310" y="69"/>
      <point x="310" y="65" type="curve" smooth="yes"/>
      <point x="310" y="59"/>
      <point x="306" y="50"/>
      <point x="304" y="48" type="curve" smooth="yes"/>
      <point x="292" y="35"/>
      <point x="249" y="-7"/>
      <point x="199" y="-7" type="curve" smooth="yes"/>
      <point x="143" y="-7"/>
      <point x="83" y="21"/>
      <point x="83" y="120" type="curve" smooth="yes"/>
      <point x="83" y="386" type="line"/>
      <point x="69" y="386"/>
      <point x="31" y="386"/>
      <point x="18" y="386" type="curve"/>
      <point x="14" y="387"/>
      <point x="13" y="393"/>
      <point x="13" y="397" type="curve"/>
      <point x="18" y="406"/>
      <point x="36" y="424"/>
      <point x="42" y="430" type="curve"/>
      <point x="56" y="430"/>
      <point x="73" y="430"/>
      <point x="83" y="430" type="curve"/>
      <point x="83" y="436"/>
      <point x="83" y="474"/>
      <point x="83" y="488" type="curve"/>
      <point x="111" y="515"/>
      <point x="149" y="557"/>
      <point x="165" y="574" type="curve"/>
      <point x="173" y="580"/>
      <point x="187" y="580"/>
      <point x="187" y="575" type="curve"/>
      <point x="187" y="548"/>
      <point x="187" y="456"/>
    </contour>
  </outline>
</glyph>
<glyph name="y" format="1">
  <advance width="501"/>
  <unicode hex="0079"/>
  <outline>
    <contour>
      <point x="119" y="430" type="curve" smooth="yes"/>
      <point x="159" y="430"/>
      <point x="211" y="435"/>
      <point x="232" y="437" type="curve"/>
      <point x="236" y="431"/>
      <point x="235" y="407"/>
      <point x="230" y="404" type="curve"/>
      <point x="220" y="404"/>
      <point x="176" y="398"/>
      <point x="176" y="382" type="curve" smooth="yes"/>
      <point x="176" y="380"/>
      <point x="176" y="376"/>
      <point x="178" y="372" type="curve" smooth="yes"/>
      <point x="196" y="337"/>
      <point x="282" y="138"/>
      <point x="282" y="138" type="curve"/>
      <point x="282" y="138"/>
      <point x="330" y="256"/>
      <point x="366" y="340" type="curve" smooth="yes"/>
      <point x="371" y="351"/>
      <point x="375" y="365"/>
      <point x="375" y="374" type="curve" smooth="yes"/>
      <point x="375" y="396"/>
      <point x="331" y="404"/>
      <point x="310" y="404" type="curve"/>
      <point x="305" y="406"/>
      <point x="306" y="431"/>
      <point x="310" y="437" type="curve"/>
      <point x="332" y="434"/>
      <point x="367" y="430"/>
      <point x="407" y="430" type="curve" smooth="yes"/>
      <point x="447" y="430"/>
      <point x="483" y="435"/>
      <point x="501" y="437" type="curve"/>
      <point x="505" y="431"/>
      <point x="504" y="408"/>
      <point x="500" y="404" type="curve"/>
      <point x="490" y="404"/>
      <point x="441" y="398"/>
      <point x="428" y="370" type="curve"/>
      <point x="398" y="300"/>
      <point x="331" y="153"/>
      <point x="271" y="16" type="curve" smooth="yes"/>
      <point x="243" y="-47"/>
      <point x="221" y="-101"/>
      <point x="185" y="-152" type="curve" smooth="yes"/>
      <point x="151" y="-197"/>
      <point x="111" y="-223"/>
      <point x="81" y="-223" type="curve" smooth="yes"/>
      <point x="50" y="-223"/>
      <point x="24" y="-207"/>
      <point x="24" y="-175" type="curve"/>
      <point x="24" y="-157"/>
      <point x="33" y="-145"/>
      <point x="42" y="-137" type="curve"/>
      <point x="105" y="-137"/>
      <point x="145" y="-122"/>
      <point x="181" y="-70" type="curve" smooth="yes"/>
      <point x="199" y="-45"/>
      <point x="214" y="-4"/>
      <point x="222" y="16" type="curve"/>
      <point x="174" y="129"/>
      <point x="91" y="310"/>
      <point x="61" y="374" type="curve"/>
      <point x="49" y="400"/>
      <point x="12" y="404"/>
      <point x="2" y="404" type="curve"/>
      <point x="-2" y="408"/>
      <point x="-1" y="433"/>
      <point x="2" y="437" type="curve"/>
      <point x="25" y="435"/>
      <point x="79" y="430"/>
    </contour>
  </outline>
</glyph>
<glyph name="bar" format="1">
  <advance width="204"/>
  <unicode hex="007C"/>
  <outline>
    <contour>
      <point x="128" y="-107" type="line" smooth="yes"/>
      <point x="128" y="-115"/>
      <point x="83" y="-123"/>
      <point x="81" y="-123" type="curve" smooth="yes"/>
      <point x="74" y="-123"/>
      <point x="76" y="-119"/>
      <point x="76" y="-115" type="curve" smooth="yes"/>
      <point x="76" y="757" type="line"/>
      <point x="76" y="757"/>
      <point x="75" y="763"/>
      <point x="81" y="765" type="curve" smooth="yes"/>
      <point x="98" y="770"/>
      <point x="116" y="771"/>
      <point x="119" y="771" type="curve" smooth="yes"/>
      <point x="128" y="771"/>
      <point x="127" y="765"/>
      <point x="127" y="765" type="curve"/>
    </contour>
  </outline>
</glyph>
<glyph name="exclamdown" format="1">
  <advance width="231"/>
  <unicode hex="00A1"/>
  <outline>
    <contour>
      <point x="51" y="372" type="curve" smooth="yes"/>
      <point x="51" y="407"/>
      <point x="79" y="436"/>
      <point x="115" y="436" type="curve"/>
      <point x="151" y="436"/>
      <point x="181" y="406"/>
      <point x="181" y="370" type="curve" smooth="yes"/>
      <point x="181" y="335"/>
      <point x="151" y="306"/>
      <point x="115" y="306" type="curve"/>
      <point x="79" y="306"/>
      <point x="51" y="337"/>
    </contour>
    <contour>
      <point x="111" y="-216" type="curve" smooth="yes"/>
      <point x="80" y="-216"/>
      <point x="59" y="-188"/>
      <point x="59" y="-154" type="curve" smooth="yes"/>
      <point x="59" y="-126"/>
      <point x="80" y="60"/>
      <point x="97" y="229" type="curve"/>
      <point x="101" y="239"/>
      <point x="105" y="246"/>
      <point x="115" y="248" type="curve"/>
      <point x="120" y="247"/>
      <point x="129" y="242"/>
      <point x="133" y="234" type="curve"/>
      <point x="145" y="120"/>
      <point x="170" y="-103"/>
      <point x="170" y="-154" type="curve" smooth="yes"/>
      <point x="170" y="-189"/>
      <point x="145" y="-216"/>
    </contour>
  </outline>
</glyph>
<glyph name="sterling" format="1">
  <advance width="475"/>
  <unicode hex="00A3"/>
  <outline>
    <contour>
      <point x="314" y="636" type="curve" smooth="yes"/>
      <point x="349" y="636"/>
      <point x="364" y="627"/>
      <point x="386" y="613" type="curve" smooth="yes"/>
      <point x="390" y="609"/>
      <point x="395" y="593"/>
      <point x="395" y="583" type="curve" smooth="yes"/>
      <point x="395" y="547"/>
      <point x="374" y="530"/>
      <point x="352" y="530" type="curve" smooth="yes"/>
      <point x="327" y="530"/>
      <point x="313" y="547"/>
      <point x="300" y="561" type="curve" smooth="yes"/>
      <point x="286" y="575"/>
      <point x="277" y="585"/>
      <point x="261" y="585" type="curve" smooth="yes"/>
      <point x="215" y="585"/>
      <point x="202" y="528"/>
      <point x="202" y="459" type="curve" smooth="yes"/>
      <point x="202" y="414.778"/>
      <point x="212.714" y="378.77"/>
      <point x="221.336" y="345" type="curve"/>
      <point x="381" y="345" type="line"/>
      <point x="395" y="334"/>
      <point x="378" y="310"/>
      <point x="372" y="306" type="curve"/>
      <point x="229.734" y="306" type="line"/>
      <point x="231.149" y="296.719"/>
      <point x="232" y="287.431"/>
      <point x="232" y="278" type="curve" smooth="yes"/>
      <point x="232" y="203"/>
      <point x="178" y="133"/>
      <point x="153" y="110" type="curve"/>
      <point x="169" y="118"/>
      <point x="186" y="121"/>
      <point x="203" y="121" type="curve" smooth="yes"/>
      <point x="249" y="121"/>
      <point x="273" y="76"/>
      <point x="343" y="76" type="curve" smooth="yes"/>
      <point x="389" y="76"/>
      <point x="416" y="124"/>
      <point x="424" y="140" type="curve" smooth="yes"/>
      <point x="426" y="141"/>
      <point x="436" y="134"/>
      <point x="438" y="128" type="curve" smooth="yes"/>
      <point x="440" y="123"/>
      <point x="440" y="118"/>
      <point x="439" y="112" type="curve" smooth="yes"/>
      <point x="428" y="80"/>
      <point x="377" y="-8"/>
      <point x="299" y="-8" type="curve" smooth="yes"/>
      <point x="222" y="-8"/>
      <point x="190" y="50"/>
      <point x="127" y="50" type="curve" smooth="yes"/>
      <point x="99" y="50"/>
      <point x="77" y="10"/>
      <point x="60" y="-6" type="curve"/>
      <point x="52" y="-6"/>
      <point x="44" y="7"/>
      <point x="44" y="16" type="curve" smooth="yes"/>
      <point x="44" y="45"/>
      <point x="80" y="78"/>
      <point x="94" y="94" type="curve" smooth="yes"/>
      <point x="120" y="122"/>
      <point x="138" y="183"/>
      <point x="138" y="232" type="curve" smooth="yes"/>
      <point x="138" y="248.442"/>
      <point x="132.368" y="276.983"/>
      <point x="126.248" y="306" type="curve"/>
      <point x="50" y="306" type="line"/>
      <point x="44" y="312"/>
      <point x="63" y="345"/>
      <point x="72" y="345" type="curve" smooth="yes"/>
      <point x="118.038" y="345" type="line"/>
      <point x="114.019" y="364.782"/>
      <point x="111" y="381.969"/>
      <point x="111" y="392" type="curve" smooth="yes"/>
      <point x="109" y="528"/>
      <point x="220" y="636"/>
    </contour>
  </outline>
</glyph>
<glyph name="yen" format="1">
  <advance width="681"/>
  <unicode hex="00A5"/>
  <outline>
    <contour>
      <point x="280" y="224" type="line"/>
      <point x="182" y="224" type="line"/>
      <point x="176" y="230"/>
      <point x="193" y="264"/>
      <point x="202" y="264" type="curve" smooth="yes"/>
      <point x="278.904" y="264" type="line" smooth="yes"/>
      <point x="278.145" y="267.872"/>
      <point x="276.917" y="272.166"/>
      <point x="275" y="276" type="curve" smooth="yes"/>
      <point x="236" y="352"/>
      <point x="170" y="469"/>
      <point x="140" y="522" type="curve" smooth="yes"/>
      <point x="122" y="554"/>
      <point x="112" y="566"/>
      <point x="92" y="584" type="curve" smooth="yes"/>
      <point x="76" y="602"/>
      <point x="42" y="608"/>
      <point x="30" y="608" type="curve"/>
      <point x="25" y="612"/>
      <point x="26" y="635"/>
      <point x="30" y="641" type="curve"/>
      <point x="74" y="638"/>
      <point x="119" y="636"/>
      <point x="164" y="636" type="curve" smooth="yes"/>
      <point x="210" y="636"/>
      <point x="258" y="638"/>
      <point x="298" y="641" type="curve"/>
      <point x="301" y="635"/>
      <point x="302" y="612"/>
      <point x="297" y="608" type="curve"/>
      <point x="283" y="608"/>
      <point x="237" y="605"/>
      <point x="237" y="579" type="curve" smooth="yes"/>
      <point x="237" y="573"/>
      <point x="240" y="566"/>
      <point x="246" y="556" type="curve" smooth="yes"/>
      <point x="375" y="328" type="line"/>
      <point x="402" y="370"/>
      <point x="476" y="508"/>
      <point x="504" y="564" type="curve" smooth="yes"/>
      <point x="506" y="570"/>
      <point x="508" y="578"/>
      <point x="508" y="584" type="curve" smooth="yes"/>
      <point x="508" y="596"/>
      <point x="468" y="608"/>
      <point x="434" y="608" type="curve"/>
      <point x="430" y="612"/>
      <point x="430" y="637"/>
      <point x="433" y="641" type="curve"/>
      <point x="475" y="638"/>
      <point x="499" y="635"/>
      <point x="541" y="635" type="curve" smooth="yes"/>
      <point x="589" y="635"/>
      <point x="612" y="639"/>
      <point x="652" y="641" type="curve"/>
      <point x="655" y="635"/>
      <point x="655" y="612"/>
      <point x="651" y="608" type="curve"/>
      <point x="641" y="608"/>
      <point x="589" y="608"/>
      <point x="570" y="576" type="curve" smooth="yes"/>
      <point x="541" y="528"/>
      <point x="435" y="347"/>
      <point x="400" y="278" type="curve" smooth="yes"/>
      <point x="397.401" y="273.323"/>
      <point x="396.153" y="268.375"/>
      <point x="395.554" y="264" type="curve"/>
      <point x="491" y="264" type="line"/>
      <point x="505" y="253"/>
      <point x="487" y="228"/>
      <point x="481" y="224" type="curve"/>
      <point x="394.858" y="224" type="line"/>
      <point x="394.77" y="211.481"/>
      <point x="394.651" y="197.389"/>
      <point x="394.53" y="184" type="curve"/>
      <point x="491" y="184" type="line"/>
      <point x="505" y="173"/>
      <point x="487" y="148"/>
      <point x="481" y="144" type="curve"/>
      <point x="394.145" y="144" type="line"/>
      <point x="394.057" y="135.39"/>
      <point x="394" y="130"/>
      <point x="394" y="130" type="curve" smooth="yes"/>
      <point x="394" y="94"/>
      <point x="394" y="64"/>
      <point x="400" y="46" type="curve" smooth="yes"/>
      <point x="404" y="34"/>
      <point x="455" y="29"/>
      <point x="467" y="29" type="curve"/>
      <point x="471" y="23"/>
      <point x="471" y="2"/>
      <point x="467" y="-4" type="curve"/>
      <point x="427" y="-1"/>
      <point x="377" y="2"/>
      <point x="337" y="2" type="curve" smooth="yes"/>
      <point x="297" y="2"/>
      <point x="247" y="-1"/>
      <point x="207" y="-4" type="curve"/>
      <point x="203" y="2"/>
      <point x="203" y="23"/>
      <point x="207" y="29" type="curve"/>
      <point x="219" y="29"/>
      <point x="270" y="34"/>
      <point x="274" y="46" type="curve" smooth="yes"/>
      <point x="280" y="64"/>
      <point x="280" y="94"/>
      <point x="280" y="130" type="curve" smooth="yes"/>
      <point x="280" y="144" type="line"/>
      <point x="182" y="144" type="line"/>
      <point x="176" y="150"/>
      <point x="193" y="184"/>
      <point x="202" y="184" type="curve" smooth="yes"/>
      <point x="280" y="184" type="line"/>
    </contour>
  </outline>
</glyph>
<glyph name="section" format="1">
  <advance width="454"/>
  <unicode hex="00A7"/>
  <outline>
    <contour>
      <point x="142" y="-85" type="curve" smooth="yes"/>
      <point x="128" y="-85"/>
      <point x="109" y="-80"/>
      <point x="96" y="-74" type="curve"/>
      <point x="92" y="-66"/>
      <point x="90" y="-54"/>
      <point x="90" y="-48" type="curve" smooth="yes"/>
      <point x="90" y="-30"/>
      <point x="106" y="-8"/>
      <point x="128" y="-8" type="curve" smooth="yes"/>
      <point x="146" y="-8"/>
      <point x="158" y="-19"/>
      <point x="168" y="-26" type="curve" smooth="yes"/>
      <point x="176" y="-32"/>
      <point x="187" y="-35"/>
      <point x="202" y="-35" type="curve" smooth="yes"/>
      <point x="233" y="-35"/>
      <point x="280" y="-19"/>
      <point x="280" y="19" type="curve" smooth="yes"/>
      <point x="280" y="65"/>
      <point x="202" y="141"/>
      <point x="155" y="184" type="curve" smooth="yes"/>
      <point x="97" y="238"/>
      <point x="37" y="297"/>
      <point x="37" y="386" type="curve" smooth="yes"/>
      <point x="37" y="456.84"/>
      <point x="123.013" y="560.695"/>
      <point x="165.466" y="595.527" type="curve"/>
      <point x="141.141" y="570.832"/>
      <point x="125.963" y="540.424"/>
      <point x="122.675" y="508.917" type="curve"/>
      <point x="108.02" y="487.417"/>
      <point x="99" y="469.037"/>
      <point x="99" y="436" type="curve" smooth="yes"/>
      <point x="99" y="353"/>
      <point x="158" y="290"/>
      <point x="212" y="240" type="curve" smooth="yes"/>
      <point x="260" y="196"/>
      <point x="332" y="142"/>
      <point x="332" y="72" type="curve" smooth="yes"/>
      <point x="332" y="67.0785"/>
      <point x="331.705" y="62.1684"/>
      <point x="331.125" y="57.2868" type="curve" smooth="yes"/>
      <point x="326.562" y="50.3487"/>
      <point x="321.479" y="43.1"/>
      <point x="316" y="35" type="curve" smooth="yes"/>
      <point x="316" y="35"/>
      <point x="292" y="15"/>
      <point x="284" y="-3" type="curve" smooth="yes"/>
      <point x="278" y="-14"/>
      <point x="282" y="-22"/>
      <point x="280" y="-34" type="curve"/>
      <point x="282.58" y="-32.2347"/>
      <point x="285.441" y="-30.0638"/>
      <point x="288.534" y="-27.5266" type="curve"/>
      <point x="254.823" y="-61.7493"/>
      <point x="203.545" y="-85"/>
    </contour>
    <contour>
      <point x="288.534" y="-27.5266" type="curve"/>
      <point x="330.987" y="7.30505"/>
      <point x="417" y="111.16"/>
      <point x="417" y="182" type="curve" smooth="yes"/>
      <point x="417" y="271"/>
      <point x="358" y="330"/>
      <point x="300" y="384" type="curve" smooth="yes"/>
      <point x="253" y="427"/>
      <point x="174" y="503"/>
      <point x="174" y="549" type="curve" smooth="yes"/>
      <point x="174" y="587"/>
      <point x="222" y="603"/>
      <point x="253" y="603" type="curve" smooth="yes"/>
      <point x="268" y="603"/>
      <point x="280" y="598"/>
      <point x="288" y="592" type="curve" smooth="yes"/>
      <point x="298" y="586"/>
      <point x="309" y="576"/>
      <point x="327" y="576" type="curve" smooth="yes"/>
      <point x="349" y="576"/>
      <point x="364" y="596"/>
      <point x="364" y="614" type="curve" smooth="yes"/>
      <point x="364" y="620"/>
      <point x="363" y="632"/>
      <point x="358" y="642" type="curve"/>
      <point x="344" y="648"/>
      <point x="326" y="653"/>
      <point x="312" y="653" type="curve" smooth="yes"/>
      <point x="250.455" y="653"/>
      <point x="199.177" y="629.749"/>
      <point x="165.466" y="595.527" type="curve"/>
      <point x="168.559" y="598.064"/>
      <point x="171.42" y="600.235"/>
      <point x="174" y="602" type="curve"/>
      <point x="172" y="590"/>
      <point x="176" y="582"/>
      <point x="170" y="571" type="curve" smooth="yes"/>
      <point x="162" y="553"/>
      <point x="139" y="532"/>
      <point x="139" y="532" type="curve" smooth="yes"/>
      <point x="133.02" y="523.529"/>
      <point x="127.538" y="516.051"/>
      <point x="122.675" y="508.917" type="curve" smooth="yes"/>
      <point x="122.227" y="504.628"/>
      <point x="122" y="500.318"/>
      <point x="122" y="496" type="curve" smooth="yes"/>
      <point x="122" y="426"/>
      <point x="194" y="372"/>
      <point x="242" y="328" type="curve" smooth="yes"/>
      <point x="296" y="278"/>
      <point x="355" y="215"/>
      <point x="355" y="132" type="curve" smooth="yes"/>
      <point x="355" y="98.4823"/>
      <point x="345.715" y="79.4718"/>
      <point x="331.125" y="57.2868" type="curve"/>
      <point x="327.456" y="26.4213"/>
      <point x="312.396" y="-3.30153"/>
    </contour>
  </outline>
</glyph>
<glyph name="dieresis" format="1">
  <advance width="372"/>
  <unicode hex="00A8"/>
  <outline>
    <contour>
      <point x="285" y="573" type="curve"/>
      <point x="317" y="573"/>
      <point x="344" y="547"/>
      <point x="344" y="515" type="curve"/>
      <point x="344" y="483"/>
      <point x="316" y="457"/>
      <point x="284" y="457" type="curve"/>
      <point x="252" y="457"/>
      <point x="226" y="484"/>
      <point x="226" y="516" type="curve"/>
      <point x="226" y="548"/>
      <point x="253" y="573"/>
    </contour>
    <contour>
      <point x="88" y="573" type="curve"/>
      <point x="120" y="573"/>
      <point x="147" y="547"/>
      <point x="147" y="515" type="curve"/>
      <point x="147" y="483"/>
      <point x="120" y="457"/>
      <point x="88" y="457" type="curve"/>
      <point x="56" y="457"/>
      <point x="29" y="484"/>
      <point x="29" y="516" type="curve"/>
      <point x="29" y="548"/>
      <point x="56" y="573"/>
    </contour>
  </outline>
</glyph>
<glyph name="copyright" format="1">
  <advance width="656"/>
  <unicode hex="00A9"/>
  <outline>
    <contour>
      <point x="449" y="264" type="curve"/>
      <point x="449" y="260"/>
      <point x="436" y="204"/>
      <point x="430" y="202" type="curve" smooth="yes"/>
      <point x="401" y="191"/>
      <point x="369" y="179"/>
      <point x="329" y="179" type="curve" smooth="yes"/>
      <point x="246" y="179"/>
      <point x="185" y="236"/>
      <point x="185" y="320" type="curve" smooth="yes"/>
      <point x="185" y="404"/>
      <point x="251" y="469"/>
      <point x="331" y="469" type="curve" smooth="yes"/>
      <point x="359" y="469"/>
      <point x="401" y="461"/>
      <point x="430" y="452" type="curve"/>
      <point x="430" y="450"/>
      <point x="445" y="394"/>
      <point x="445" y="390" type="curve" smooth="yes"/>
      <point x="445" y="386"/>
      <point x="435" y="382"/>
      <point x="429" y="382" type="curve"/>
      <point x="427" y="382"/>
      <point x="425" y="382"/>
      <point x="423" y="384" type="curve"/>
      <point x="419" y="398"/>
      <point x="402" y="439"/>
      <point x="338" y="439" type="curve" smooth="yes"/>
      <point x="282" y="439"/>
      <point x="249" y="384"/>
      <point x="249" y="328" type="curve" smooth="yes"/>
      <point x="249" y="256"/>
      <point x="293" y="207"/>
      <point x="345" y="207" type="curve" smooth="yes"/>
      <point x="373" y="207"/>
      <point x="395" y="215"/>
      <point x="407" y="226" type="curve" smooth="yes"/>
      <point x="421" y="240"/>
      <point x="427" y="266"/>
      <point x="429" y="268" type="curve"/>
      <point x="433" y="268"/>
      <point x="447" y="266"/>
    </contour>
    <contour>
      <point x="94" y="326" type="curve" smooth="yes"/>
      <point x="94" y="196"/>
      <point x="198" y="92"/>
      <point x="328" y="92" type="curve" smooth="yes"/>
      <point x="458" y="92"/>
      <point x="563" y="196"/>
      <point x="563" y="326" type="curve" smooth="yes"/>
      <point x="563" y="456"/>
      <point x="458" y="561"/>
      <point x="328" y="561" type="curve" smooth="yes"/>
      <point x="198" y="561"/>
      <point x="94" y="456"/>
    </contour>
    <contour>
      <point x="55" y="326" type="curve" smooth="yes"/>
      <point x="55" y="477"/>
      <point x="176" y="599"/>
      <point x="327" y="599" type="curve" smooth="yes"/>
      <point x="478" y="599"/>
      <point x="601" y="477"/>
      <point x="601" y="326" type="curve" smooth="yes"/>
      <point x="601" y="175"/>
      <point x="478" y="54"/>
      <point x="327" y="54" type="curve" smooth="yes"/>
      <point x="176" y="54"/>
      <point x="55" y="175"/>
    </contour>
  </outline>
</glyph>
<glyph name="guillemotleft" format="1">
  <advance width="490"/>
  <unicode hex="00AB"/>
  <outline>
    <contour>
      <point x="207" y="247" type="curve" smooth="yes"/>
      <point x="207" y="255"/>
      <point x="209" y="258"/>
      <point x="213" y="264" type="curve"/>
      <point x="344" y="343"/>
      <point x="420" y="421"/>
      <point x="423" y="423" type="curve"/>
      <point x="434" y="420"/>
      <point x="444" y="414"/>
      <point x="447" y="408" type="curve"/>
      <point x="442" y="394"/>
      <point x="348" y="286"/>
      <point x="306" y="248" type="curve"/>
      <point x="348" y="210"/>
      <point x="442" y="102"/>
      <point x="447" y="88" type="curve"/>
      <point x="444" y="82"/>
      <point x="434" y="75"/>
      <point x="423" y="72" type="curve"/>
      <point x="420" y="74"/>
      <point x="344" y="153"/>
      <point x="213" y="232" type="curve"/>
      <point x="210" y="236"/>
      <point x="207" y="241"/>
    </contour>
    <contour>
      <point x="23" y="247" type="curve" smooth="yes"/>
      <point x="23" y="255"/>
      <point x="25" y="258"/>
      <point x="29" y="264" type="curve"/>
      <point x="160" y="343"/>
      <point x="236" y="421"/>
      <point x="239" y="423" type="curve"/>
      <point x="250" y="420"/>
      <point x="260" y="414"/>
      <point x="263" y="408" type="curve"/>
      <point x="258" y="394"/>
      <point x="165" y="286"/>
      <point x="123" y="248" type="curve"/>
      <point x="165" y="210"/>
      <point x="258" y="102"/>
      <point x="263" y="88" type="curve"/>
      <point x="260" y="82"/>
      <point x="250" y="75"/>
      <point x="239" y="72" type="curve"/>
      <point x="236" y="74"/>
      <point x="160" y="153"/>
      <point x="29" y="232" type="curve"/>
      <point x="26" y="236"/>
      <point x="23" y="241"/>
    </contour>
  </outline>
</glyph>
<glyph name="logicalnot" format="1">
  <advance width="588"/>
  <unicode hex="00AC"/>
  <outline>
    <contour>
      <point x="518" y="420" type="line"/>
      <point x="518" y="169" type="line"/>
      <point x="517" y="168"/>
      <point x="486" y="157"/>
      <point x="465" y="157" type="curve" smooth="yes"/>
      <point x="460" y="157"/>
      <point x="454" y="161"/>
      <point x="452" y="164" type="curve"/>
      <point x="452" y="175"/>
      <point x="452" y="305"/>
      <point x="452" y="363" type="curve"/>
      <point x="52" y="363" type="line"/>
      <point x="52" y="363"/>
      <point x="46" y="363"/>
      <point x="46" y="373" type="curve"/>
      <point x="46" y="373"/>
      <point x="50" y="420"/>
      <point x="60" y="420" type="curve" smooth="yes"/>
    </contour>
  </outline>
</glyph>
<glyph name="registered" format="1">
  <advance width="654"/>
  <unicode hex="00AE"/>
  <outline>
    <contour>
      <point x="323" y="527" type="curve" smooth="yes"/>
      <point x="367" y="527"/>
      <point x="414" y="501"/>
      <point x="414" y="453" type="curve" smooth="yes"/>
      <point x="414" y="421"/>
      <point x="380" y="394"/>
      <point x="356" y="386" type="curve"/>
      <point x="382" y="348"/>
      <point x="409" y="316"/>
      <point x="423" y="299" type="curve" smooth="yes"/>
      <point x="444" y="275"/>
      <point x="462" y="270"/>
      <point x="475" y="269" type="curve"/>
      <point x="477" y="266"/>
      <point x="475" y="254"/>
      <point x="475" y="253" type="curve"/>
      <point x="455" y="253"/>
      <point x="431" y="254"/>
      <point x="419" y="255" type="curve" smooth="yes"/>
      <point x="401" y="256"/>
      <point x="386" y="264"/>
      <point x="372" y="282" type="curve" smooth="yes"/>
      <point x="369" y="286"/>
      <point x="320" y="352"/>
      <point x="307" y="373" type="curve" smooth="yes"/>
      <point x="306" y="375"/>
      <point x="301" y="379"/>
      <point x="297" y="379" type="curve" smooth="yes"/>
      <point x="295" y="379"/>
      <point x="288" y="379"/>
      <point x="286" y="379" type="curve"/>
      <point x="286" y="310" type="line"/>
      <point x="286" y="295"/>
      <point x="286" y="283"/>
      <point x="289" y="276" type="curve" smooth="yes"/>
      <point x="291" y="271"/>
      <point x="311" y="268"/>
      <point x="316" y="268" type="curve"/>
      <point x="318" y="265"/>
      <point x="318" y="255"/>
      <point x="316" y="253" type="curve"/>
      <point x="299" y="254"/>
      <point x="278" y="256"/>
      <point x="261" y="256" type="curve" smooth="yes"/>
      <point x="244" y="256"/>
      <point x="220" y="254"/>
      <point x="203" y="253" type="curve"/>
      <point x="201" y="255"/>
      <point x="201" y="265"/>
      <point x="203" y="268" type="curve"/>
      <point x="208" y="268"/>
      <point x="229" y="271"/>
      <point x="231" y="276" type="curve" smooth="yes"/>
      <point x="234" y="283"/>
      <point x="233" y="295"/>
      <point x="233" y="310" type="curve" smooth="yes"/>
      <point x="233" y="471" type="line" smooth="yes"/>
      <point x="233" y="486"/>
      <point x="234" y="498"/>
      <point x="231" y="505" type="curve" smooth="yes"/>
      <point x="229" y="510"/>
      <point x="208" y="512"/>
      <point x="203" y="512" type="curve"/>
      <point x="201" y="515"/>
      <point x="201" y="525"/>
      <point x="203" y="527" type="curve"/>
      <point x="221" y="526"/>
      <point x="245" y="526"/>
      <point x="262" y="526" type="curve" smooth="yes"/>
      <point x="279" y="526"/>
      <point x="299" y="527"/>
    </contour>
    <contour>
      <point x="359" y="447" type="curve" smooth="yes"/>
      <point x="359" y="482"/>
      <point x="346" y="509"/>
      <point x="309" y="509" type="curve" smooth="yes"/>
      <point x="302" y="509"/>
      <point x="290" y="509"/>
      <point x="288" y="505" type="curve" smooth="yes"/>
      <point x="286" y="500"/>
      <point x="286" y="489"/>
      <point x="286" y="476" type="curve" smooth="yes"/>
      <point x="286" y="398" type="line"/>
      <point x="286" y="398"/>
      <point x="300" y="398"/>
      <point x="304" y="398" type="curve" smooth="yes"/>
      <point x="335" y="398"/>
      <point x="359" y="415"/>
    </contour>
    <contour>
      <point x="93" y="384" type="curve" smooth="yes"/>
      <point x="93" y="254"/>
      <point x="197" y="149"/>
      <point x="327" y="149" type="curve" smooth="yes"/>
      <point x="457" y="149"/>
      <point x="562" y="254"/>
      <point x="562" y="384" type="curve" smooth="yes"/>
      <point x="562" y="514"/>
      <point x="457" y="618"/>
      <point x="327" y="618" type="curve" smooth="yes"/>
      <point x="197" y="618"/>
      <point x="93" y="514"/>
    </contour>
    <contour>
      <point x="54" y="384" type="curve" smooth="yes"/>
      <point x="54" y="535"/>
      <point x="175" y="657"/>
      <point x="326" y="657" type="curve" smooth="yes"/>
      <point x="477" y="657"/>
      <point x="600" y="535"/>
      <point x="600" y="384" type="curve" smooth="yes"/>
      <point x="600" y="233"/>
      <point x="477" y="111"/>
      <point x="326" y="111" type="curve" smooth="yes"/>
      <point x="175" y="111"/>
      <point x="54" y="233"/>
    </contour>
  </outline>
</glyph>
<glyph name="macron" format="1">
  <advance width="476"/>
  <unicode hex="00AF"/>
  <outline>
    <contour>
      <point x="559" y="558" type="curve" smooth="yes"/>
      <point x="559" y="560"/>
      <point x="560" y="596"/>
      <point x="571" y="596" type="curve" smooth="yes"/>
      <point x="782" y="596" type="line" smooth="yes"/>
      <point x="784" y="596"/>
      <point x="787" y="596"/>
      <point x="787" y="590" type="curve" smooth="yes"/>
      <point x="787" y="585"/>
      <point x="787" y="574"/>
      <point x="782" y="556" type="curve" smooth="yes"/>
      <point x="780" y="550"/>
      <point x="774" y="548"/>
      <point x="774" y="548" type="curve"/>
      <point x="565" y="548" type="line"/>
      <point x="565" y="548"/>
      <point x="559" y="548"/>
    </contour>
  </outline>
</glyph>
<glyph name="degree" format="1">
  <advance width="284"/>
  <unicode hex="00B0"/>
  <outline>
    <contour>
      <point x="79" y="536" type="curve" smooth="yes"/>
      <point x="79" y="501"/>
      <point x="108" y="473"/>
      <point x="143" y="473" type="curve" smooth="yes"/>
      <point x="178" y="473"/>
      <point x="205" y="501"/>
      <point x="205" y="536" type="curve" smooth="yes"/>
      <point x="205" y="571"/>
      <point x="178" y="600"/>
      <point x="143" y="600" type="curve" smooth="yes"/>
      <point x="108" y="600"/>
      <point x="79" y="571"/>
    </contour>
    <contour>
      <point x="37" y="536" type="curve" smooth="yes"/>
      <point x="37" y="594"/>
      <point x="85" y="641"/>
      <point x="143" y="641" type="curve" smooth="yes"/>
      <point x="201" y="641"/>
      <point x="247" y="594"/>
      <point x="247" y="536" type="curve" smooth="yes"/>
      <point x="247" y="478"/>
      <point x="201" y="431"/>
      <point x="143" y="431" type="curve" smooth="yes"/>
      <point x="85" y="431"/>
      <point x="37" y="478"/>
    </contour>
  </outline>
</glyph>
<glyph name="plusminus" format="1">
  <advance width="585"/>
  <unicode hex="00B1"/>
  <outline>
    <contour>
      <point x="64" y="65" type="curve"/>
      <point x="104" y="65"/>
      <point x="498" y="65"/>
      <point x="522" y="65" type="curve"/>
      <point x="527" y="65"/>
      <point x="532" y="59"/>
      <point x="532" y="52" type="curve" smooth="yes"/>
      <point x="532" y="33"/>
      <point x="524" y="17"/>
      <point x="516" y="8" type="curve"/>
      <point x="57" y="8" type="line"/>
      <point x="55" y="8"/>
      <point x="51" y="10"/>
      <point x="51" y="20" type="curve" smooth="yes"/>
      <point x="51" y="24"/>
      <point x="55" y="55"/>
    </contour>
    <contour>
      <point x="64" y="363" type="curve"/>
      <point x="262" y="363" type="line"/>
      <point x="262" y="363"/>
      <point x="262" y="552"/>
      <point x="262" y="562" type="curve"/>
      <point x="276" y="570"/>
      <point x="298" y="573"/>
      <point x="304" y="573" type="curve" smooth="yes"/>
      <point x="314" y="573"/>
      <point x="319" y="570"/>
      <point x="319" y="566" type="curve"/>
      <point x="319" y="363" type="line"/>
      <point x="359" y="363"/>
      <point x="482" y="363"/>
      <point x="522" y="363" type="curve"/>
      <point x="527" y="363"/>
      <point x="532" y="357"/>
      <point x="532" y="350" type="curve" smooth="yes"/>
      <point x="532" y="331"/>
      <point x="524" y="315"/>
      <point x="516" y="306" type="curve"/>
      <point x="319" y="306" type="line"/>
      <point x="319" y="306"/>
      <point x="319" y="144"/>
      <point x="319" y="106" type="curve"/>
      <point x="307" y="98"/>
      <point x="284" y="94"/>
      <point x="274" y="94" type="curve" smooth="yes"/>
      <point x="268" y="94"/>
      <point x="262" y="99"/>
      <point x="262" y="103" type="curve" smooth="yes"/>
      <point x="262" y="306" type="line"/>
      <point x="57" y="306" type="line"/>
      <point x="55" y="306"/>
      <point x="51" y="308"/>
      <point x="51" y="318" type="curve" smooth="yes"/>
      <point x="51" y="322"/>
      <point x="55" y="353"/>
    </contour>
  </outline>
</glyph>
<glyph name="uni00B2" format="1">
  <advance width="354"/>
  <unicode hex="00B2"/>
  <outline>
    <contour>
      <point x="315" y="371" type="curve"/>
      <point x="306" y="342"/>
      <point x="286" y="276"/>
      <point x="277" y="254" type="curve"/>
      <point x="48" y="254" type="line"/>
      <point x="44" y="256"/>
      <point x="38" y="263"/>
      <point x="38" y="267" type="curve"/>
      <point x="82" y="315"/>
      <point x="123" y="356"/>
      <point x="168" y="414" type="curve" smooth="yes"/>
      <point x="199" y="455"/>
      <point x="215" y="491"/>
      <point x="215" y="528" type="curve" smooth="yes"/>
      <point x="215" y="569"/>
      <point x="188" y="596"/>
      <point x="150" y="596" type="curve" smooth="yes"/>
      <point x="106" y="596"/>
      <point x="83" y="560"/>
      <point x="71" y="546" type="curve"/>
      <point x="67" y="544"/>
      <point x="55" y="554"/>
      <point x="55" y="562" type="curve"/>
      <point x="72" y="594"/>
      <point x="120" y="645"/>
      <point x="178" y="645" type="curve" smooth="yes"/>
      <point x="248" y="645"/>
      <point x="295" y="605"/>
      <point x="295" y="539" type="curve" smooth="yes"/>
      <point x="295" y="495"/>
      <point x="266" y="457"/>
      <point x="232" y="421" type="curve" smooth="yes"/>
      <point x="204" y="391"/>
      <point x="164" y="355"/>
      <point x="122" y="317" type="curve"/>
      <point x="238" y="317" type="line" smooth="yes"/>
      <point x="274" y="317"/>
      <point x="285" y="356"/>
      <point x="293" y="372" type="curve" smooth="yes"/>
      <point x="294" y="374"/>
      <point x="297" y="376"/>
      <point x="301" y="376" type="curve" smooth="yes"/>
      <point x="305" y="376"/>
      <point x="312" y="374"/>
    </contour>
  </outline>
</glyph>
<glyph name="paragraph" format="1">
  <advance width="505"/>
  <unicode hex="00B6"/>
  <outline>
    <contour>
      <point x="338" y="336" type="curve"/>
      <point x="338" y="372"/>
      <point x="338" y="589"/>
      <point x="338" y="602" type="curve"/>
      <point x="334" y="606"/>
      <point x="319" y="607"/>
      <point x="309" y="607" type="curve" smooth="yes"/>
      <point x="299" y="607"/>
      <point x="286" y="607"/>
      <point x="280" y="601" type="curve"/>
      <point x="280" y="601"/>
      <point x="280" y="432"/>
      <point x="280" y="330" type="curve"/>
      <point x="286" y="330"/>
      <point x="334" y="333"/>
    </contour>
    <contour>
      <point x="337" y="292" type="curve"/>
      <point x="323" y="291"/>
      <point x="296" y="289"/>
      <point x="280" y="288" type="curve"/>
      <point x="280" y="226"/>
      <point x="280" y="179"/>
      <point x="280" y="117" type="curve" smooth="yes"/>
      <point x="280" y="84"/>
      <point x="281" y="62"/>
      <point x="285" y="47" type="curve" smooth="yes"/>
      <point x="286" y="42"/>
      <point x="302" y="41"/>
      <point x="309" y="41" type="curve" smooth="yes"/>
      <point x="318" y="41"/>
      <point x="332" y="42"/>
      <point x="333" y="46" type="curve" smooth="yes"/>
      <point x="338" y="62"/>
      <point x="338" y="88"/>
      <point x="338" y="114" type="curve" smooth="yes"/>
      <point x="338" y="114"/>
      <point x="337" y="258"/>
    </contour>
    <contour>
      <point x="382" y="299" type="curve"/>
      <point x="382" y="228"/>
      <point x="382" y="182"/>
      <point x="382" y="116" type="curve" smooth="yes"/>
      <point x="382" y="83"/>
      <point x="382" y="66"/>
      <point x="387" y="51" type="curve" smooth="yes"/>
      <point x="392" y="36"/>
      <point x="446" y="28"/>
      <point x="456" y="28" type="curve"/>
      <point x="460" y="23"/>
      <point x="459" y="0"/>
      <point x="457" y="-4" type="curve"/>
      <point x="407" y="-2"/>
      <point x="374" y="2"/>
      <point x="312" y="2" type="curve" smooth="yes"/>
      <point x="258" y="2"/>
      <point x="204" y="-2"/>
      <point x="164" y="-4" type="curve"/>
      <point x="160" y="4"/>
      <point x="162" y="26"/>
      <point x="166" y="28" type="curve"/>
      <point x="176" y="28"/>
      <point x="225" y="36"/>
      <point x="231" y="50" type="curve" smooth="yes"/>
      <point x="237" y="66"/>
      <point x="236" y="90"/>
      <point x="236" y="116" type="curve" smooth="yes"/>
      <point x="236" y="116"/>
      <point x="236" y="253"/>
      <point x="236" y="287" type="curve"/>
      <point x="108" y="287"/>
      <point x="33" y="374"/>
      <point x="33" y="469" type="curve" smooth="yes"/>
      <point x="33" y="593"/>
      <point x="134" y="652"/>
      <point x="216" y="652" type="curve" smooth="yes"/>
      <point x="275" y="652"/>
      <point x="259" y="648"/>
      <point x="318" y="648" type="curve" smooth="yes"/>
      <point x="385" y="648"/>
      <point x="438" y="653"/>
      <point x="438" y="653" type="curve"/>
      <point x="443" y="648"/>
      <point x="443" y="623"/>
      <point x="438" y="620" type="curve"/>
      <point x="423" y="620"/>
      <point x="391" y="612"/>
      <point x="386" y="600" type="curve" smooth="yes"/>
      <point x="384" y="593"/>
      <point x="383" y="587"/>
      <point x="383" y="536" type="curve" smooth="yes"/>
      <point x="383" y="475"/>
      <point x="383" y="360"/>
      <point x="383" y="341" type="curve"/>
      <point x="388" y="340"/>
      <point x="432" y="354"/>
      <point x="432" y="354" type="curve"/>
      <point x="437" y="354"/>
      <point x="439" y="350"/>
      <point x="439" y="346" type="curve" smooth="yes"/>
      <point x="438" y="336"/>
      <point x="420" y="312"/>
      <point x="413" y="309" type="curve" smooth="yes"/>
      <point x="402" y="304"/>
      <point x="390" y="300"/>
    </contour>
  </outline>
</glyph>
<glyph name="periodcentered" format="1">
  <advance width="234"/>
  <unicode hex="00B7"/>
  <outline>
    <contour>
      <point x="51" y="264" type="curve" smooth="yes"/>
      <point x="51" y="300"/>
      <point x="81" y="330"/>
      <point x="117" y="330" type="curve"/>
      <point x="153" y="330"/>
      <point x="183" y="300"/>
      <point x="183" y="264" type="curve" smooth="yes"/>
      <point x="183" y="228"/>
      <point x="154" y="197"/>
      <point x="118" y="197" type="curve"/>
      <point x="81" y="197"/>
      <point x="51" y="228"/>
    </contour>
  </outline>
</glyph>
<glyph name="cedilla" format="1">
  <advance width="473"/>
  <unicode hex="00B8"/>
  <outline>
    <contour>
      <point x="466" y="-26" type="curve"/>
      <point x="470" y="-26"/>
      <point x="486" y="-25"/>
      <point x="490" y="-25" type="curve"/>
      <point x="516" y="-25"/>
      <point x="537" y="-48"/>
      <point x="537" y="-74" type="curve" smooth="yes"/>
      <point x="537" y="-121"/>
      <point x="499" y="-154"/>
      <point x="447" y="-154" type="curve" smooth="yes"/>
      <point x="427" y="-154"/>
      <point x="408" y="-145"/>
      <point x="402" y="-139" type="curve"/>
      <point x="400" y="-135"/>
      <point x="396" y="-125"/>
      <point x="396" y="-120" type="curve" smooth="yes"/>
      <point x="396" y="-116"/>
      <point x="396" y="-114"/>
      <point x="398" y="-114" type="curve"/>
      <point x="404" y="-117"/>
      <point x="427" y="-128"/>
      <point x="448" y="-128" type="curve" smooth="yes"/>
      <point x="479" y="-128"/>
      <point x="491" y="-112"/>
      <point x="491" y="-96" type="curve" smooth="yes"/>
      <point x="491" y="-77"/>
      <point x="479" y="-63"/>
      <point x="462" y="-63" type="curve" smooth="yes"/>
      <point x="454" y="-63"/>
      <point x="446" y="-66"/>
      <point x="436" y="-70" type="curve"/>
      <point x="434" y="-70"/>
      <point x="424" y="-61"/>
      <point x="425" y="-56" type="curve"/>
      <point x="434" y="-41"/>
      <point x="448" y="-17"/>
      <point x="455" y="-3" type="curve"/>
      <point x="482" y="-3" type="line"/>
      <point x="482" y="-3"/>
      <point x="468" y="-22"/>
    </contour>
  </outline>
</glyph>
<glyph name="ordmasculine" format="1">
  <advance width="398"/>
  <unicode hex="00BA"/>
  <outline>
    <contour>
      <point x="191" y="526" type="curve"/>
      <point x="135" y="526"/>
      <point x="123" y="464"/>
      <point x="123" y="412" type="curve"/>
      <point x="123" y="350"/>
      <point x="147" y="277"/>
      <point x="207" y="277" type="curve"/>
      <point x="261" y="277"/>
      <point x="275" y="339"/>
      <point x="275" y="390" type="curve"/>
      <point x="275" y="452"/>
      <point x="250" y="526"/>
    </contour>
    <contour>
      <point x="199" y="553" type="curve" smooth="yes"/>
      <point x="292" y="553"/>
      <point x="361" y="488"/>
      <point x="361" y="404" type="curve" smooth="yes"/>
      <point x="361" y="320"/>
      <point x="290" y="249"/>
      <point x="199" y="249" type="curve" smooth="yes"/>
      <point x="106" y="249"/>
      <point x="37" y="316"/>
      <point x="37" y="400" type="curve" smooth="yes"/>
      <point x="37" y="484"/>
      <point x="107" y="553"/>
    </contour>
  </outline>
</glyph>
<glyph name="guillemotright" format="1">
  <advance width="490"/>
  <unicode hex="00BB"/>
  <outline>
    <contour>
      <point x="283" y="247" type="curve" smooth="yes"/>
      <point x="283" y="241"/>
      <point x="280" y="236"/>
      <point x="277" y="232" type="curve"/>
      <point x="146" y="153"/>
      <point x="70" y="74"/>
      <point x="67" y="72" type="curve"/>
      <point x="56" y="75"/>
      <point x="46" y="82"/>
      <point x="43" y="88" type="curve"/>
      <point x="48" y="102"/>
      <point x="142" y="210"/>
      <point x="184" y="248" type="curve"/>
      <point x="142" y="286"/>
      <point x="48" y="394"/>
      <point x="43" y="408" type="curve"/>
      <point x="46" y="414"/>
      <point x="56" y="420"/>
      <point x="67" y="423" type="curve"/>
      <point x="70" y="421"/>
      <point x="146" y="343"/>
      <point x="277" y="264" type="curve"/>
      <point x="281" y="258"/>
      <point x="283" y="255"/>
    </contour>
    <contour>
      <point x="467" y="247" type="curve" smooth="yes"/>
      <point x="467" y="241"/>
      <point x="464" y="236"/>
      <point x="461" y="232" type="curve"/>
      <point x="330" y="153"/>
      <point x="254" y="74"/>
      <point x="251" y="72" type="curve"/>
      <point x="240" y="75"/>
      <point x="230" y="82"/>
      <point x="227" y="88" type="curve"/>
      <point x="232" y="102"/>
      <point x="325" y="210"/>
      <point x="367" y="248" type="curve"/>
      <point x="325" y="286"/>
      <point x="232" y="394"/>
      <point x="227" y="408" type="curve"/>
      <point x="230" y="414"/>
      <point x="240" y="420"/>
      <point x="251" y="423" type="curve"/>
      <point x="254" y="421"/>
      <point x="330" y="343"/>
      <point x="461" y="264" type="curve"/>
      <point x="465" y="258"/>
      <point x="467" y="255"/>
    </contour>
  </outline>
</glyph>
<glyph name="onehalf" format="1">
  <advance width="749"/>
  <unicode hex="00BD"/>
  <outline>
    <contour>
      <point x="578" y="389" type="curve" smooth="yes"/>
      <point x="648" y="389"/>
      <point x="696" y="350"/>
      <point x="696" y="284" type="curve" smooth="yes"/>
      <point x="696" y="240"/>
      <point x="666" y="202"/>
      <point x="632" y="166" type="curve" smooth="yes"/>
      <point x="604" y="136"/>
      <point x="564" y="99"/>
      <point x="522" y="61" type="curve"/>
      <point x="638" y="61" type="line" smooth="yes"/>
      <point x="674" y="61"/>
      <point x="685" y="100"/>
      <point x="693" y="116" type="curve" smooth="yes"/>
      <point x="694" y="118"/>
      <point x="697" y="120"/>
      <point x="701" y="120" type="curve" smooth="yes"/>
      <point x="705" y="120"/>
      <point x="712" y="119"/>
      <point x="715" y="116" type="curve"/>
      <point x="706" y="87"/>
      <point x="687" y="20"/>
      <point x="678" y="-2" type="curve"/>
      <point x="448" y="-2" type="line"/>
      <point x="444" y="0"/>
      <point x="438" y="8"/>
      <point x="438" y="12" type="curve"/>
      <point x="481" y="59"/>
      <point x="520" y="96"/>
      <point x="564" y="152" type="curve" smooth="yes"/>
      <point x="598" y="195"/>
      <point x="616" y="233"/>
      <point x="616" y="272" type="curve" smooth="yes"/>
      <point x="616" y="313"/>
      <point x="588" y="340"/>
      <point x="550" y="340" type="curve" smooth="yes"/>
      <point x="506" y="340"/>
      <point x="484" y="305"/>
      <point x="472" y="291" type="curve"/>
      <point x="468" y="289"/>
      <point x="455" y="298"/>
      <point x="455" y="306" type="curve"/>
      <point x="472" y="338"/>
      <point x="520" y="389"/>
    </contour>
    <contour>
      <point x="186" y="535" type="curve" smooth="yes"/>
      <point x="186" y="341" type="line" smooth="yes"/>
      <point x="186" y="322"/>
      <point x="188" y="300"/>
      <point x="194" y="289" type="curve" smooth="yes"/>
      <point x="199" y="281"/>
      <point x="237" y="276"/>
      <point x="243" y="276" type="curve"/>
      <point x="247" y="274"/>
      <point x="245" y="254"/>
      <point x="244" y="252" type="curve"/>
      <point x="212" y="253"/>
      <point x="182" y="255"/>
      <point x="150" y="255" type="curve" smooth="yes"/>
      <point x="118" y="255"/>
      <point x="86" y="253"/>
      <point x="54" y="252" type="curve"/>
      <point x="50" y="255"/>
      <point x="50" y="274"/>
      <point x="54" y="276" type="curve"/>
      <point x="64" y="276"/>
      <point x="97" y="282"/>
      <point x="102" y="290" type="curve" smooth="yes"/>
      <point x="107" y="300"/>
      <point x="112" y="330"/>
      <point x="112" y="340" type="curve" smooth="yes"/>
      <point x="112" y="516" type="line" smooth="yes"/>
      <point x="112" y="539"/>
      <point x="105" y="556"/>
      <point x="94" y="556" type="curve" smooth="yes"/>
      <point x="84" y="556"/>
      <point x="63" y="547"/>
      <point x="47" y="541" type="curve"/>
      <point x="41" y="543"/>
      <point x="36" y="558"/>
      <point x="36" y="564" type="curve"/>
      <point x="81" y="585"/>
      <point x="138" y="615"/>
      <point x="182" y="640" type="curve"/>
      <point x="188" y="636"/>
      <point x="196" y="627"/>
      <point x="196" y="622" type="curve"/>
      <point x="194" y="616"/>
      <point x="186" y="574"/>
    </contour>
    <contour>
      <point x="572" y="656" type="curve"/>
      <point x="227" y="-4" type="line" smooth="yes"/>
      <point x="224" y="-10"/>
      <point x="210" y="-23"/>
      <point x="193" y="-23" type="curve" smooth="yes"/>
      <point x="180" y="-23"/>
      <point x="178" y="-14"/>
      <point x="178" y="-14" type="curve"/>
      <point x="526" y="650" type="line"/>
      <point x="530" y="656"/>
      <point x="542" y="664"/>
      <point x="559" y="664" type="curve" smooth="yes"/>
      <point x="566" y="664"/>
      <point x="571" y="660"/>
    </contour>
  </outline>
</glyph>
<glyph name="Oslash" format="1">
  <advance width="752"/>
  <unicode hex="00D8"/>
  <outline>
    <contour>
      <point x="554" y="672" type="line"/>
      <point x="562" y="670"/>
      <point x="590" y="656"/>
      <point x="587" y="650" type="curve"/>
      <point x="190" y="-16" type="line"/>
      <point x="182" y="-13"/>
      <point x="153" y="1"/>
      <point x="156" y="7" type="curve"/>
    </contour>
    <component base="O"/>
  </outline>
</glyph>
<glyph name="Thorn" format="1">
  <advance width="558"/>
  <unicode hex="00DE"/>
  <outline>
    <contour>
      <point x="173" y="656" type="curve" smooth="yes"/>
      <point x="213" y="656"/>
      <point x="262" y="659"/>
      <point x="302" y="662" type="curve"/>
      <point x="306" y="656"/>
      <point x="306" y="635"/>
      <point x="302" y="629" type="curve"/>
      <point x="290" y="629"/>
      <point x="240" y="624"/>
      <point x="236" y="612" type="curve" smooth="yes"/>
      <point x="230" y="596"/>
      <point x="229" y="571"/>
      <point x="229" y="541" type="curve"/>
      <point x="229" y="538"/>
      <point x="230" y="513"/>
      <point x="230" y="509" type="curve"/>
      <point x="253" y="514"/>
      <point x="287" y="515"/>
      <point x="311" y="515" type="curve" smooth="yes"/>
      <point x="429" y="515"/>
      <point x="532" y="442"/>
      <point x="532" y="334" type="curve" smooth="yes"/>
      <point x="532" y="222"/>
      <point x="444" y="135"/>
      <point x="328" y="135" type="curve" smooth="yes"/>
      <point x="298" y="135"/>
      <point x="279" y="146"/>
      <point x="271" y="152" type="curve" smooth="yes"/>
      <point x="268" y="155"/>
      <point x="259" y="168"/>
      <point x="259" y="175" type="curve" smooth="yes"/>
      <point x="259" y="179"/>
      <point x="261" y="182"/>
      <point x="263" y="182" type="curve"/>
      <point x="273" y="179"/>
      <point x="287" y="179"/>
      <point x="302" y="179" type="curve" smooth="yes"/>
      <point x="366" y="179"/>
      <point x="415" y="233"/>
      <point x="415" y="316" type="curve" smooth="yes"/>
      <point x="415" y="402"/>
      <point x="368" y="477"/>
      <point x="281" y="477" type="curve" smooth="yes"/>
      <point x="263" y="477"/>
      <point x="238" y="474"/>
      <point x="234" y="464" type="curve" smooth="yes"/>
      <point x="229" y="452"/>
      <point x="230" y="411"/>
      <point x="230" y="396" type="curve"/>
      <point x="230" y="130" type="line" smooth="yes"/>
      <point x="230" y="94"/>
      <point x="230" y="64"/>
      <point x="236" y="46" type="curve" smooth="yes"/>
      <point x="240" y="34"/>
      <point x="290" y="29"/>
      <point x="302" y="29" type="curve"/>
      <point x="306" y="23"/>
      <point x="306" y="2"/>
      <point x="302" y="-4" type="curve"/>
      <point x="262" y="-1"/>
      <point x="212" y="2"/>
      <point x="172" y="2" type="curve" smooth="yes"/>
      <point x="132" y="2"/>
      <point x="83" y="-1"/>
      <point x="43" y="-4" type="curve"/>
      <point x="39" y="2"/>
      <point x="39" y="23"/>
      <point x="43" y="29" type="curve"/>
      <point x="55" y="29"/>
      <point x="105" y="34"/>
      <point x="109" y="46" type="curve" smooth="yes"/>
      <point x="115" y="64"/>
      <point x="116" y="94"/>
      <point x="116" y="130" type="curve" smooth="yes"/>
      <point x="116" y="528" type="line" smooth="yes"/>
      <point x="116" y="564"/>
      <point x="115" y="594"/>
      <point x="109" y="612" type="curve" smooth="yes"/>
      <point x="105" y="624"/>
      <point x="55" y="629"/>
      <point x="43" y="629" type="curve"/>
      <point x="39" y="635"/>
      <point x="39" y="656"/>
      <point x="43" y="662" type="curve"/>
      <point x="83" y="659"/>
      <point x="133" y="656"/>
    </contour>
  </outline>
</glyph>
<glyph name="germandbls" format="1">
  <advance width="567"/>
  <unicode hex="00DF"/>
  <outline>
    <contour>
      <point x="299" y="696" type="curve" smooth="yes"/>
      <point x="389" y="696"/>
      <point x="474" y="649"/>
      <point x="474" y="562" type="curve" smooth="yes"/>
      <point x="474" y="513"/>
      <point x="446" y="482"/>
      <point x="419" y="458" type="curve" smooth="yes"/>
      <point x="389" y="431"/>
      <point x="350" y="406"/>
      <point x="350" y="380" type="curve" smooth="yes"/>
      <point x="350" y="341"/>
      <point x="410" y="303"/>
      <point x="448" y="276" type="curve" smooth="yes"/>
      <point x="490" y="246"/>
      <point x="538" y="210"/>
      <point x="538" y="145" type="curve" smooth="yes"/>
      <point x="538" y="55"/>
      <point x="463" y="-10"/>
      <point x="387" y="-10" type="curve" smooth="yes"/>
      <point x="339" y="-10"/>
      <point x="295" y="8"/>
      <point x="282" y="25" type="curve"/>
      <point x="280" y="32"/>
      <point x="278" y="41"/>
      <point x="278" y="50" type="curve" smooth="yes"/>
      <point x="279" y="79"/>
      <point x="292" y="106"/>
      <point x="319" y="106" type="curve" smooth="yes"/>
      <point x="346" y="106"/>
      <point x="357" y="79"/>
      <point x="368" y="60" type="curve" smooth="yes"/>
      <point x="378" y="43"/>
      <point x="390" y="28"/>
      <point x="411" y="28" type="curve" smooth="yes"/>
      <point x="441" y="28"/>
      <point x="458" y="52"/>
      <point x="458" y="92" type="curve" smooth="yes"/>
      <point x="458" y="139"/>
      <point x="416" y="170"/>
      <point x="374" y="202" type="curve" smooth="yes"/>
      <point x="327" y="237"/>
      <point x="270" y="270"/>
      <point x="270" y="336" type="curve" smooth="yes"/>
      <point x="270" y="372"/>
      <point x="304" y="396"/>
      <point x="332" y="428" type="curve" smooth="yes"/>
      <point x="358" y="457"/>
      <point x="377" y="486"/>
      <point x="377" y="537" type="curve" smooth="yes"/>
      <point x="377" y="598"/>
      <point x="349" y="656"/>
      <point x="288" y="656" type="curve" smooth="yes"/>
      <point x="224" y="656"/>
      <point x="200" y="571"/>
      <point x="200" y="480" type="curve" smooth="yes"/>
      <point x="200" y="130" type="line" smooth="yes"/>
      <point x="200" y="94"/>
      <point x="200" y="64"/>
      <point x="206" y="46" type="curve" smooth="yes"/>
      <point x="210" y="34"/>
      <point x="249" y="30"/>
      <point x="261" y="30" type="curve"/>
      <point x="265" y="24"/>
      <point x="265" y="2"/>
      <point x="261" y="-4" type="curve"/>
      <point x="221" y="-1"/>
      <point x="188" y="2"/>
      <point x="148" y="2" type="curve" smooth="yes"/>
      <point x="108" y="2"/>
      <point x="66" y="-1"/>
      <point x="26" y="-4" type="curve"/>
      <point x="22" y="2"/>
      <point x="22" y="24"/>
      <point x="26" y="30" type="curve"/>
      <point x="38" y="30"/>
      <point x="86" y="34"/>
      <point x="90" y="46" type="curve" smooth="yes"/>
      <point x="96" y="64"/>
      <point x="96" y="94"/>
      <point x="96" y="130" type="curve" smooth="yes"/>
      <point x="96" y="130"/>
      <point x="96" y="342"/>
      <point x="96" y="386" type="curve"/>
      <point x="82" y="386"/>
      <point x="51" y="386"/>
      <point x="38" y="386" type="curve"/>
      <point x="34" y="387"/>
      <point x="33" y="393"/>
      <point x="33" y="397" type="curve"/>
      <point x="38" y="406"/>
      <point x="56" y="424"/>
      <point x="62" y="430" type="curve"/>
      <point x="76" y="430"/>
      <point x="86" y="430"/>
      <point x="96" y="430" type="curve"/>
      <point x="96" y="430"/>
      <point x="96" y="438"/>
      <point x="96" y="440" type="curve"/>
      <point x="96" y="570"/>
      <point x="207" y="696"/>
    </contour>
  </outline>
</glyph>
<glyph name="ae" format="1">
  <advance width="674"/>
  <unicode hex="00E6"/>
  <outline>
    <contour>
      <point x="191" y="192" type="curve" smooth="yes"/>
      <point x="159" y="176"/>
      <point x="142" y="150"/>
      <point x="142" y="120" type="curve" smooth="yes"/>
      <point x="142" y="80"/>
      <point x="175" y="54"/>
      <point x="207" y="54" type="curve" smooth="yes"/>
      <point x="237" y="54"/>
      <point x="287" y="79"/>
      <point x="287" y="103" type="curve"/>
      <point x="279" y="123"/>
      <point x="272" y="162"/>
      <point x="270" y="194" type="curve" smooth="yes"/>
      <point x="269" y="205"/>
      <point x="270" y="211"/>
      <point x="270" y="222" type="curve"/>
      <point x="248" y="214"/>
      <point x="209" y="202"/>
    </contour>
    <contour>
      <point x="461" y="404" type="curve"/>
      <point x="389" y="404"/>
      <point x="368" y="300"/>
      <point x="369" y="283" type="curve"/>
      <point x="378" y="283"/>
      <point x="498" y="285"/>
      <point x="515" y="287" type="curve" smooth="yes"/>
      <point x="527" y="287"/>
      <point x="533" y="295"/>
      <point x="533" y="307" type="curve"/>
      <point x="533" y="342"/>
      <point x="514" y="404"/>
    </contour>
    <contour>
      <point x="475" y="442" type="curve" smooth="yes"/>
      <point x="601" y="442"/>
      <point x="637" y="348"/>
      <point x="637" y="299" type="curve" smooth="yes"/>
      <point x="637" y="273"/>
      <point x="628" y="255"/>
      <point x="611" y="254" type="curve" smooth="yes"/>
      <point x="561" y="250"/>
      <point x="408" y="246"/>
      <point x="365" y="245" type="curve"/>
      <point x="363" y="111"/>
      <point x="451" y="66"/>
      <point x="517" y="66" type="curve" smooth="yes"/>
      <point x="573" y="66"/>
      <point x="611" y="98"/>
      <point x="628" y="117" type="curve"/>
      <point x="632" y="116"/>
      <point x="638" y="108"/>
      <point x="638" y="101" type="curve"/>
      <point x="638" y="95"/>
      <point x="635" y="86"/>
      <point x="633" y="82" type="curve" smooth="yes"/>
      <point x="615" y="54"/>
      <point x="556" y="-8"/>
      <point x="470" y="-8" type="curve" smooth="yes"/>
      <point x="406" y="-8"/>
      <point x="341" y="18"/>
      <point x="307" y="70" type="curve"/>
      <point x="269" y="37"/>
      <point x="191" y="-8"/>
      <point x="157" y="-8" type="curve" smooth="yes"/>
      <point x="86" y="-8"/>
      <point x="33" y="48"/>
      <point x="33" y="110" type="curve" smooth="yes"/>
      <point x="33" y="150"/>
      <point x="59" y="180"/>
      <point x="83" y="190" type="curve" smooth="yes"/>
      <point x="126" y="208"/>
      <point x="227" y="244"/>
      <point x="267" y="260" type="curve"/>
      <point x="274" y="264"/>
      <point x="276" y="270"/>
      <point x="277" y="278" type="curve" smooth="yes"/>
      <point x="278" y="289"/>
      <point x="278" y="298"/>
      <point x="277" y="310" type="curve" smooth="yes"/>
      <point x="272" y="361"/>
      <point x="240" y="404"/>
      <point x="198" y="404" type="curve" smooth="yes"/>
      <point x="162" y="404"/>
      <point x="149" y="373"/>
      <point x="141" y="331" type="curve" smooth="yes"/>
      <point x="135" y="303"/>
      <point x="120" y="286"/>
      <point x="90" y="286" type="curve" smooth="yes"/>
      <point x="66" y="286"/>
      <point x="47" y="306"/>
      <point x="47" y="330" type="curve" smooth="yes"/>
      <point x="47" y="340"/>
      <point x="51" y="354"/>
      <point x="57" y="363" type="curve"/>
      <point x="75" y="381"/>
      <point x="163" y="442"/>
      <point x="243" y="442" type="curve" smooth="yes"/>
      <point x="288" y="442"/>
      <point x="326" y="418"/>
      <point x="348" y="384" type="curve"/>
      <point x="378" y="413"/>
      <point x="423" y="442"/>
    </contour>
  </outline>
</glyph>
<glyph name="eth" format="1">
  <advance width="530"/>
  <unicode hex="00F0"/>
  <outline>
    <contour>
      <point x="247" y="444" type="curve" smooth="yes"/>
      <point x="274" y="444"/>
      <point x="301" y="440"/>
      <point x="321" y="432" type="curve"/>
      <point x="306.598" y="472.806"/>
      <point x="282.113" y="524.415"/>
      <point x="231.122" y="573.429" type="curve"/>
      <point x="131" y="506" type="line"/>
      <point x="125" y="512"/>
      <point x="107" y="533"/>
      <point x="113" y="539" type="curve" smooth="yes"/>
      <point x="201.68" y="598.968" type="line"/>
      <point x="171.841" y="622.364"/>
      <point x="134.928" y="644.569"/>
      <point x="89" y="664" type="curve"/>
      <point x="88" y="673"/>
      <point x="91" y="687"/>
      <point x="99" y="690" type="curve"/>
      <point x="141.652" y="681.798"/>
      <point x="194.172" y="660.737"/>
      <point x="245.768" y="628.782" type="curve"/>
      <point x="357" y="704" type="line"/>
      <point x="363" y="698"/>
      <point x="382" y="677"/>
      <point x="376" y="671" type="curve" smooth="yes"/>
      <point x="279.623" y="606.093" type="line"/>
      <point x="310.448" y="583.788"/>
      <point x="340.05" y="557.609"/>
      <point x="366" y="528" type="curve" smooth="yes"/>
      <point x="429" y="456"/>
      <point x="476" y="364"/>
      <point x="476" y="253" type="curve" smooth="yes"/>
      <point x="476" y="96"/>
      <point x="377" y="-6"/>
      <point x="259" y="-6" type="curve" smooth="yes"/>
      <point x="138" y="-6"/>
      <point x="37" y="74"/>
      <point x="37" y="214" type="curve" smooth="yes"/>
      <point x="37" y="346"/>
      <point x="129" y="444"/>
    </contour>
    <contour>
      <point x="249" y="406" type="curve" smooth="yes"/>
      <point x="173" y="406"/>
      <point x="149" y="312"/>
      <point x="149" y="220" type="curve" smooth="yes"/>
      <point x="149" y="113"/>
      <point x="202" y="32"/>
      <point x="262" y="32" type="curve" smooth="yes"/>
      <point x="335" y="32"/>
      <point x="363" y="120"/>
      <point x="363" y="214" type="curve" smooth="yes"/>
      <point x="363" y="267"/>
      <point x="354" y="320"/>
      <point x="338" y="352" type="curve" smooth="yes"/>
      <point x="318" y="387"/>
      <point x="290" y="406"/>
    </contour>
  </outline>
</glyph>
<glyph name="dcroat" format="1">
  <advance width="533"/>
  <unicode hex="0111"/>
  <outline>
    <contour>
      <point x="204" y="562" type="curve"/>
      <point x="233" y="562"/>
      <point x="487" y="562"/>
      <point x="501" y="562" type="curve"/>
      <point x="504" y="562"/>
      <point x="506" y="558"/>
      <point x="506" y="554" type="curve"/>
      <point x="506" y="547"/>
      <point x="504" y="533"/>
      <point x="501" y="526" type="curve"/>
      <point x="472" y="526"/>
      <point x="218" y="526"/>
      <point x="204" y="526" type="curve"/>
      <point x="201" y="526"/>
      <point x="199" y="532"/>
      <point x="199" y="536" type="curve"/>
      <point x="199" y="543"/>
      <point x="200" y="556"/>
    </contour>
    <component base="d"/>
  </outline>
</glyph>
<glyph name="Eogonek" format="1">
  <advance width="596"/>
  <unicode hex="0118"/>
  <outline>
    <contour>
      <point x="173" y="656" type="curve" smooth="yes"/>
      <point x="241" y="656"/>
      <point x="413" y="664"/>
      <point x="497" y="664" type="curve"/>
      <point x="504" y="614"/>
      <point x="517" y="567"/>
      <point x="526" y="522" type="curve"/>
      <point x="523" y="519"/>
      <point x="512" y="517"/>
      <point x="505" y="517" type="curve" smooth="yes"/>
      <point x="498" y="517"/>
      <point x="492" y="519"/>
      <point x="490" y="524" type="curve" smooth="yes"/>
      <point x="468" y="592"/>
      <point x="435" y="620"/>
      <point x="378" y="620" type="curve" smooth="yes"/>
      <point x="294" y="620" type="line" smooth="yes"/>
      <point x="276" y="620"/>
      <point x="238" y="619"/>
      <point x="234" y="609" type="curve" smooth="yes"/>
      <point x="229" y="595"/>
      <point x="230" y="571"/>
      <point x="230" y="543" type="curve" smooth="yes"/>
      <point x="230" y="362" type="line" smooth="yes"/>
      <point x="230" y="356"/>
      <point x="250" y="353"/>
      <point x="272" y="353" type="curve" smooth="yes"/>
      <point x="325" y="353" type="line" smooth="yes"/>
      <point x="403" y="353"/>
      <point x="408" y="362"/>
      <point x="424" y="424" type="curve" smooth="yes"/>
      <point x="425" y="429"/>
      <point x="431" y="432"/>
      <point x="438" y="432" type="curve" smooth="yes"/>
      <point x="445" y="432"/>
      <point x="453" y="429"/>
      <point x="456" y="426" type="curve"/>
      <point x="456" y="236" type="line"/>
      <point x="454" y="234"/>
      <point x="446" y="232"/>
      <point x="439" y="232" type="curve" smooth="yes"/>
      <point x="432" y="232"/>
      <point x="426" y="235"/>
      <point x="424" y="240" type="curve" smooth="yes"/>
      <point x="410" y="292"/>
      <point x="401" y="299"/>
      <point x="392" y="304" type="curve" smooth="yes"/>
      <point x="380" y="310"/>
      <point x="339" y="311"/>
      <point x="301" y="311" type="curve" smooth="yes"/>
      <point x="273" y="311"/>
      <point x="230" y="310"/>
      <point x="230" y="300" type="curve" smooth="yes"/>
      <point x="230" y="128" type="line" smooth="yes"/>
      <point x="230" y="118"/>
      <point x="229" y="66"/>
      <point x="236" y="54" type="curve" smooth="yes"/>
      <point x="246" y="42"/>
      <point x="270" y="40"/>
      <point x="304" y="40" type="curve" smooth="yes"/>
      <point x="361" y="40" type="line" smooth="yes"/>
      <point x="403" y="40"/>
      <point x="445" y="48"/>
      <point x="471" y="68" type="curve" smooth="yes"/>
      <point x="497" y="88"/>
      <point x="513" y="122"/>
      <point x="529" y="166" type="curve" smooth="yes"/>
      <point x="530" y="170"/>
      <point x="536" y="172"/>
      <point x="543" y="172" type="curve" smooth="yes"/>
      <point x="553" y="172"/>
      <point x="568" y="169"/>
      <point x="571" y="166" type="curve"/>
      <point x="552" y="112"/>
      <point x="524" y="41"/>
      <point x="517" y="-3" type="curve"/>
      <point x="463" y="-9"/>
      <point x="393" y="-68"/>
      <point x="393" y="-112" type="curve" smooth="yes"/>
      <point x="393" y="-130"/>
      <point x="402" y="-157"/>
      <point x="438" y="-157" type="curve" smooth="yes"/>
      <point x="478" y="-157"/>
      <point x="508" y="-122"/>
      <point x="516" y="-118" type="curve"/>
      <point x="518" y="-118"/>
      <point x="521" y="-122"/>
      <point x="521" y="-130" type="curve" smooth="yes"/>
      <point x="521" y="-135"/>
      <point x="518" y="-148"/>
      <point x="515" y="-152" type="curve" smooth="yes"/>
      <point x="497" y="-176"/>
      <point x="451" y="-221"/>
      <point x="401" y="-221" type="curve" smooth="yes"/>
      <point x="357" y="-221"/>
      <point x="329" y="-184"/>
      <point x="329" y="-144" type="curve" smooth="yes"/>
      <point x="329" y="-91"/>
      <point x="389" y="-31"/>
      <point x="444" y="-3" type="curve"/>
      <point x="365" y="-2"/>
      <point x="264" y="-1"/>
      <point x="167" y="-1" type="curve" smooth="yes"/>
      <point x="111" y="-1"/>
      <point x="69" y="-3"/>
      <point x="43" y="-3" type="curve"/>
      <point x="39" y="3"/>
      <point x="39" y="24"/>
      <point x="43" y="30" type="curve"/>
      <point x="55" y="30"/>
      <point x="105" y="34"/>
      <point x="109" y="46" type="curve" smooth="yes"/>
      <point x="115" y="64"/>
      <point x="116" y="94"/>
      <point x="116" y="130" type="curve" smooth="yes"/>
      <point x="116" y="528" type="line" smooth="yes"/>
      <point x="116" y="564"/>
      <point x="115" y="594"/>
      <point x="109" y="612" type="curve" smooth="yes"/>
      <point x="105" y="624"/>
      <point x="55" y="628"/>
      <point x="43" y="628" type="curve"/>
      <point x="39" y="634"/>
      <point x="39" y="655"/>
      <point x="43" y="661" type="curve"/>
      <point x="86" y="659"/>
      <point x="133" y="656"/>
    </contour>
  </outline>
</glyph>
<glyph name="hbar" format="1">
  <advance width="553"/>
  <unicode hex="0127"/>
  <outline>
    <contour>
      <point x="32" y="562" type="curve"/>
      <point x="61" y="562"/>
      <point x="315" y="562"/>
      <point x="329" y="562" type="curve"/>
      <point x="332" y="562"/>
      <point x="334" y="558"/>
      <point x="334" y="554" type="curve"/>
      <point x="334" y="547"/>
      <point x="332" y="533"/>
      <point x="329" y="526" type="curve"/>
      <point x="300" y="526"/>
      <point x="46" y="526"/>
      <point x="32" y="526" type="curve"/>
      <point x="29" y="526"/>
      <point x="27" y="532"/>
      <point x="27" y="536" type="curve"/>
      <point x="27" y="543"/>
      <point x="28" y="556"/>
    </contour>
    <component base="h"/>
  </outline>
</glyph>
<glyph name="Iogonek" format="1">
  <advance width="345"/>
  <unicode hex="012E"/>
  <outline>
    <contour>
      <point x="173" y="656" type="curve" smooth="yes"/>
      <point x="213" y="656"/>
      <point x="262" y="659"/>
      <point x="302" y="662" type="curve"/>
      <point x="306" y="656"/>
      <point x="306" y="635"/>
      <point x="302" y="629" type="curve"/>
      <point x="290" y="629"/>
      <point x="240" y="624"/>
      <point x="236" y="612" type="curve" smooth="yes"/>
      <point x="230" y="594"/>
      <point x="230" y="564"/>
      <point x="230" y="528" type="curve" smooth="yes"/>
      <point x="230" y="130" type="line" smooth="yes"/>
      <point x="230" y="94"/>
      <point x="230" y="64"/>
      <point x="236" y="46" type="curve" smooth="yes"/>
      <point x="240" y="34"/>
      <point x="290" y="29"/>
      <point x="302" y="29" type="curve"/>
      <point x="306" y="23"/>
      <point x="306" y="2"/>
      <point x="302" y="-4" type="curve"/>
      <point x="274" y="-2"/>
      <point x="241" y="1"/>
      <point x="210" y="2" type="curve"/>
      <point x="171" y="-36"/>
      <point x="150" y="-71"/>
      <point x="150" y="-112" type="curve" smooth="yes"/>
      <point x="150" y="-130"/>
      <point x="159" y="-157"/>
      <point x="195" y="-157" type="curve" smooth="yes"/>
      <point x="235" y="-157"/>
      <point x="265" y="-122"/>
      <point x="273" y="-118" type="curve" smooth="yes"/>
      <point x="275" y="-118"/>
      <point x="278" y="-122"/>
      <point x="278" y="-130" type="curve" smooth="yes"/>
      <point x="278" y="-135"/>
      <point x="275" y="-148"/>
      <point x="272" y="-152" type="curve" smooth="yes"/>
      <point x="254" y="-176"/>
      <point x="208" y="-221"/>
      <point x="158" y="-221" type="curve" smooth="yes"/>
      <point x="114" y="-221"/>
      <point x="86" y="-184"/>
      <point x="86" y="-144" type="curve" smooth="yes"/>
      <point x="86" y="-99"/>
      <point x="129" y="-33"/>
      <point x="163" y="2" type="curve"/>
      <point x="124" y="2"/>
      <point x="80" y="-1"/>
      <point x="43" y="-4" type="curve"/>
      <point x="39" y="2"/>
      <point x="39" y="23"/>
      <point x="43" y="29" type="curve"/>
      <point x="55" y="29"/>
      <point x="105" y="34"/>
      <point x="109" y="46" type="curve" smooth="yes"/>
      <point x="115" y="64"/>
      <point x="116" y="94"/>
      <point x="116" y="130" type="curve" smooth="yes"/>
      <point x="116" y="528" type="line" smooth="yes"/>
      <point x="116" y="564"/>
      <point x="115" y="594"/>
      <point x="109" y="612" type="curve" smooth="yes"/>
      <point x="105" y="624"/>
      <point x="55" y="629"/>
      <point x="43" y="629" type="curve"/>
      <point x="39" y="635"/>
      <point x="39" y="656"/>
      <point x="43" y="662" type="curve"/>
      <point x="83" y="659"/>
      <point x="133" y="656"/>
    </contour>
  </outline>
</glyph>
<glyph name="iogonek" format="1">
  <advance width="294"/>
  <unicode hex="012F"/>
  <outline>
    <contour>
      <point x="84" y="604" type="curve" smooth="yes"/>
      <point x="84" y="638"/>
      <point x="111" y="666"/>
      <point x="145" y="666" type="curve" smooth="yes"/>
      <point x="179" y="666"/>
      <point x="207" y="638"/>
      <point x="207" y="604" type="curve" smooth="yes"/>
      <point x="207" y="570"/>
      <point x="179" y="544"/>
      <point x="145" y="544" type="curve" smooth="yes"/>
      <point x="111" y="544"/>
      <point x="84" y="570"/>
    </contour>
    <contour>
      <point x="206" y="317" type="curve" smooth="yes"/>
      <point x="206" y="130" type="line" smooth="yes"/>
      <point x="206" y="96"/>
      <point x="206" y="64"/>
      <point x="212" y="46" type="curve" smooth="yes"/>
      <point x="216" y="34"/>
      <point x="260" y="29"/>
      <point x="272" y="29" type="curve"/>
      <point x="276" y="23"/>
      <point x="276" y="2"/>
      <point x="272" y="-4" type="curve"/>
      <point x="244" y="-2"/>
      <point x="217" y="1"/>
      <point x="190" y="2" type="curve"/>
      <point x="151" y="-35"/>
      <point x="130" y="-71"/>
      <point x="130" y="-112" type="curve" smooth="yes"/>
      <point x="130" y="-130"/>
      <point x="139" y="-157"/>
      <point x="175" y="-157" type="curve" smooth="yes"/>
      <point x="215" y="-157"/>
      <point x="245" y="-122"/>
      <point x="253" y="-118" type="curve" smooth="yes"/>
      <point x="255" y="-118"/>
      <point x="258" y="-122"/>
      <point x="258" y="-130" type="curve" smooth="yes"/>
      <point x="258" y="-135"/>
      <point x="255" y="-148"/>
      <point x="252" y="-152" type="curve" smooth="yes"/>
      <point x="234" y="-176"/>
      <point x="188" y="-221"/>
      <point x="138" y="-221" type="curve" smooth="yes"/>
      <point x="94" y="-221"/>
      <point x="66" y="-184"/>
      <point x="66" y="-144" type="curve" smooth="yes"/>
      <point x="66" y="-99"/>
      <point x="109" y="-33"/>
      <point x="143" y="2" type="curve"/>
      <point x="106" y="2"/>
      <point x="69" y="-1"/>
      <point x="32" y="-4" type="curve"/>
      <point x="28" y="2"/>
      <point x="28" y="23"/>
      <point x="32" y="29" type="curve"/>
      <point x="44" y="29"/>
      <point x="91" y="34"/>
      <point x="95" y="46" type="curve" smooth="yes"/>
      <point x="102" y="64"/>
      <point x="102" y="94"/>
      <point x="102" y="130" type="curve" smooth="yes"/>
      <point x="102" y="279" type="line" smooth="yes"/>
      <point x="102" y="291"/>
      <point x="102" y="332"/>
      <point x="95" y="346" type="curve" smooth="yes"/>
      <point x="87" y="362"/>
      <point x="38" y="365"/>
      <point x="31" y="365" type="curve"/>
      <point x="29" y="367"/>
      <point x="27" y="391"/>
      <point x="31" y="393" type="curve"/>
      <point x="95" y="399"/>
      <point x="161" y="421"/>
      <point x="200" y="441" type="curve"/>
      <point x="206" y="440"/>
      <point x="214" y="428"/>
      <point x="214" y="424" type="curve"/>
      <point x="212" y="416"/>
      <point x="207" y="377"/>
      <point x="206" y="365" type="curve" smooth="yes"/>
      <point x="206" y="354"/>
      <point x="206" y="320"/>
    </contour>
  </outline>
</glyph>
<glyph name="Eng" format="1">
  <advance width="768"/>
  <unicode hex="014A"/>
  <outline>
    <contour>
      <point x="652" y="130" type="line" smooth="yes"/>
      <point x="652" y="-87"/>
      <point x="551" y="-222"/>
      <point x="387" y="-222" type="curve" smooth="yes"/>
      <point x="367" y="-222"/>
      <point x="337" y="-212"/>
      <point x="327" y="-204" type="curve"/>
      <point x="321" y="-196"/>
      <point x="315" y="-186"/>
      <point x="315" y="-172" type="curve" smooth="yes"/>
      <point x="315" y="-140"/>
      <point x="338" y="-110"/>
      <point x="370" y="-110" type="curve" smooth="yes"/>
      <point x="390" y="-110"/>
      <point x="407" y="-126"/>
      <point x="422" y="-141" type="curve" smooth="yes"/>
      <point x="436" y="-155"/>
      <point x="452" y="-168"/>
      <point x="466" y="-168" type="curve" smooth="yes"/>
      <point x="509" y="-168"/>
      <point x="561" y="-88"/>
      <point x="572" y="56" type="curve"/>
      <point x="181" y="544" type="line"/>
      <point x="181" y="136" type="line" smooth="yes"/>
      <point x="181" y="100"/>
      <point x="183" y="68"/>
      <point x="191" y="53" type="curve" smooth="yes"/>
      <point x="197" y="39"/>
      <point x="258" y="30"/>
      <point x="270" y="30" type="curve"/>
      <point x="276" y="22"/>
      <point x="274" y="2"/>
      <point x="272" y="-4" type="curve"/>
      <point x="232" y="-2"/>
      <point x="196" y="3"/>
      <point x="152" y="3" type="curve" smooth="yes"/>
      <point x="106" y="3"/>
      <point x="82" y="-2"/>
      <point x="36" y="-4" type="curve"/>
      <point x="32" y="3"/>
      <point x="32" y="23"/>
      <point x="36" y="29" type="curve"/>
      <point x="48" y="29"/>
      <point x="107" y="37"/>
      <point x="115" y="52" type="curve" smooth="yes"/>
      <point x="123" y="67"/>
      <point x="126" y="99"/>
      <point x="126" y="137" type="curve" smooth="yes"/>
      <point x="126" y="203"/>
      <point x="126" y="465"/>
      <point x="126" y="531" type="curve" smooth="yes"/>
      <point x="126" y="564"/>
      <point x="123" y="593"/>
      <point x="112" y="610" type="curve" smooth="yes"/>
      <point x="104" y="622"/>
      <point x="52" y="630"/>
      <point x="40" y="630" type="curve"/>
      <point x="35" y="636"/>
      <point x="35" y="658"/>
      <point x="39" y="663" type="curve"/>
      <point x="77" y="661"/>
      <point x="108" y="658"/>
      <point x="148" y="658" type="curve" smooth="yes"/>
      <point x="180" y="658"/>
      <point x="217" y="660"/>
      <point x="240" y="662" type="curve"/>
      <point x="284" y="583"/>
      <point x="480" y="361"/>
      <point x="597" y="207" type="curve"/>
      <point x="598" y="211"/>
      <point x="598" y="249"/>
      <point x="598" y="256" type="curve" smooth="yes"/>
      <point x="598" y="510" type="line" smooth="yes"/>
      <point x="598" y="547"/>
      <point x="595" y="593"/>
      <point x="587" y="609" type="curve" smooth="yes"/>
      <point x="580" y="623"/>
      <point x="523" y="630"/>
      <point x="509" y="630" type="curve"/>
      <point x="505" y="634"/>
      <point x="504" y="655"/>
      <point x="508" y="663" type="curve"/>
      <point x="551" y="661"/>
      <point x="581" y="656"/>
      <point x="626" y="656" type="curve" smooth="yes"/>
      <point x="671" y="656"/>
      <point x="701" y="661"/>
      <point x="744" y="663" type="curve"/>
      <point x="746" y="657"/>
      <point x="749" y="640"/>
      <point x="743" y="630" type="curve"/>
      <point x="733" y="630"/>
      <point x="670" y="624"/>
      <point x="662" y="608" type="curve" smooth="yes"/>
      <point x="655" y="594"/>
      <point x="652" y="550"/>
      <point x="652" y="512" type="curve" smooth="yes"/>
    </contour>
  </outline>
</glyph>
<glyph name="oe" format="1">
  <advance width="781"/>
  <unicode hex="0153"/>
  <outline>
    <contour>
      <point x="568" y="404" type="curve"/>
      <point x="496" y="404"/>
      <point x="475" y="300"/>
      <point x="476" y="283" type="curve"/>
      <point x="485" y="283"/>
      <point x="605" y="285"/>
      <point x="622" y="287" type="curve" smooth="yes"/>
      <point x="634" y="287"/>
      <point x="640" y="295"/>
      <point x="640" y="307" type="curve"/>
      <point x="640" y="342"/>
      <point x="621" y="404"/>
    </contour>
    <contour>
      <point x="248" y="406" type="curve"/>
      <point x="169" y="406"/>
      <point x="150" y="315"/>
      <point x="150" y="235" type="curve"/>
      <point x="150" y="143"/>
      <point x="188" y="31"/>
      <point x="270" y="31" type="curve"/>
      <point x="349" y="31"/>
      <point x="369" y="122"/>
      <point x="369" y="200" type="curve"/>
      <point x="369" y="293"/>
      <point x="329" y="406"/>
    </contour>
    <contour>
      <point x="624" y="66" type="curve" smooth="yes"/>
      <point x="680" y="66"/>
      <point x="718" y="98"/>
      <point x="735" y="117" type="curve"/>
      <point x="739" y="116"/>
      <point x="745" y="108"/>
      <point x="745" y="101" type="curve"/>
      <point x="745" y="95"/>
      <point x="742" y="86"/>
      <point x="740" y="82" type="curve" smooth="yes"/>
      <point x="722" y="54"/>
      <point x="663" y="-8"/>
      <point x="577" y="-8" type="curve" smooth="yes"/>
      <point x="513" y="-8"/>
      <point x="457" y="19"/>
      <point x="420" y="64" type="curve"/>
      <point x="381" y="21"/>
      <point x="324" y="-7"/>
      <point x="260" y="-7" type="curve" smooth="yes"/>
      <point x="124" y="-7"/>
      <point x="36" y="89"/>
      <point x="36" y="215" type="curve" smooth="yes"/>
      <point x="36" y="343"/>
      <point x="132" y="443"/>
      <point x="258" y="443" type="curve" smooth="yes"/>
      <point x="334" y="443"/>
      <point x="395" y="413"/>
      <point x="434" y="364" type="curve"/>
      <point x="474" y="412"/>
      <point x="530" y="442"/>
      <point x="582" y="442" type="curve" smooth="yes"/>
      <point x="708" y="442"/>
      <point x="744" y="348"/>
      <point x="744" y="299" type="curve" smooth="yes"/>
      <point x="744" y="273"/>
      <point x="735" y="255"/>
      <point x="718" y="254" type="curve" smooth="yes"/>
      <point x="670" y="250"/>
      <point x="530" y="247"/>
      <point x="473" y="245" type="curve"/>
      <point x="473" y="101"/>
      <point x="566" y="66"/>
    </contour>
  </outline>
</glyph>
<glyph name="Tbar" format="1">
  <advance width="629"/>
  <unicode hex="0166"/>
  <outline>
    <contour>
      <point x="480" y="310" type="curve"/>
      <point x="451" y="310"/>
      <point x="161" y="310"/>
      <point x="147" y="310" type="curve"/>
      <point x="143" y="310"/>
      <point x="142" y="339"/>
      <point x="148" y="348" type="curve"/>
      <point x="177" y="348"/>
      <point x="466" y="348"/>
      <point x="480" y="348" type="curve"/>
      <point x="484" y="348"/>
      <point x="484" y="319"/>
    </contour>
    <component base="T"/>
  </outline>
</glyph>
<glyph name="uogonek" format="1">
  <advance width="540"/>
  <unicode hex="0173"/>
  <outline>
    <contour>
      <point x="352" y="288" type="line" smooth="yes"/>
      <point x="352" y="300"/>
      <point x="352" y="341"/>
      <point x="344" y="356" type="curve" smooth="yes"/>
      <point x="335" y="372"/>
      <point x="294" y="376"/>
      <point x="284" y="376" type="curve"/>
      <point x="281" y="378"/>
      <point x="281" y="402"/>
      <point x="285" y="404" type="curve"/>
      <point x="349" y="408"/>
      <point x="414" y="426"/>
      <point x="451" y="441" type="curve"/>
      <point x="457" y="440"/>
      <point x="465" y="426"/>
      <point x="465" y="422" type="curve"/>
      <point x="461" y="414"/>
      <point x="456" y="384"/>
      <point x="456" y="362" type="curve" smooth="yes"/>
      <point x="456" y="351"/>
      <point x="456" y="310"/>
      <point x="456" y="307" type="curve" smooth="yes"/>
      <point x="456" y="124" type="line" smooth="yes"/>
      <point x="456" y="111"/>
      <point x="456" y="87"/>
      <point x="464" y="68" type="curve"/>
      <point x="471" y="54"/>
      <point x="510" y="54"/>
      <point x="516" y="54" type="curve"/>
      <point x="518" y="52"/>
      <point x="519" y="47"/>
      <point x="519" y="42" type="curve" smooth="yes"/>
      <point x="519" y="38"/>
      <point x="516" y="27"/>
      <point x="512" y="24" type="curve"/>
      <point x="432" y="8"/>
      <point x="378" y="-61"/>
      <point x="378" y="-112" type="curve" smooth="yes"/>
      <point x="378" y="-130"/>
      <point x="387" y="-157"/>
      <point x="423" y="-157" type="curve" smooth="yes"/>
      <point x="463" y="-157"/>
      <point x="493" y="-122"/>
      <point x="501" y="-118" type="curve" smooth="yes"/>
      <point x="503" y="-118"/>
      <point x="506" y="-122"/>
      <point x="506" y="-130" type="curve" smooth="yes"/>
      <point x="506" y="-135"/>
      <point x="503" y="-148"/>
      <point x="500" y="-152" type="curve" smooth="yes"/>
      <point x="482" y="-176"/>
      <point x="436" y="-221"/>
      <point x="386" y="-221" type="curve" smooth="yes"/>
      <point x="342" y="-221"/>
      <point x="314" y="-184"/>
      <point x="314" y="-144" type="curve" smooth="yes"/>
      <point x="314" y="-96"/>
      <point x="355" y="-40"/>
      <point x="391" y="-6" type="curve" smooth="yes"/>
      <point x="395" y="-2"/>
      <point x="397" y="-1"/>
      <point x="403" y="3" type="curve"/>
      <point x="375" y="-4"/>
      <point x="364" y="-8"/>
      <point x="361" y="-8" type="curve" smooth="yes"/>
      <point x="357" y="-8"/>
      <point x="352" y="1"/>
      <point x="352" y="12" type="curve" smooth="yes"/>
      <point x="352" y="44" type="line" smooth="yes"/>
      <point x="352" y="48"/>
      <point x="352" y="49"/>
      <point x="350" y="48" type="curve" smooth="yes"/>
      <point x="328" y="28"/>
      <point x="268" y="-6"/>
      <point x="208" y="-6" type="curve" smooth="yes"/>
      <point x="106" y="-6"/>
      <point x="82" y="94"/>
      <point x="82" y="183" type="curve" smooth="yes"/>
      <point x="82" y="288" type="line" smooth="yes"/>
      <point x="82" y="300"/>
      <point x="81" y="341"/>
      <point x="73" y="356" type="curve" smooth="yes"/>
      <point x="64" y="372"/>
      <point x="24" y="376"/>
      <point x="14" y="376" type="curve"/>
      <point x="11" y="378"/>
      <point x="10" y="402"/>
      <point x="14" y="404" type="curve"/>
      <point x="78" y="408"/>
      <point x="143" y="426"/>
      <point x="180" y="441" type="curve"/>
      <point x="186" y="440"/>
      <point x="194" y="426"/>
      <point x="194" y="422" type="curve"/>
      <point x="190" y="414"/>
      <point x="186" y="384"/>
      <point x="186" y="362" type="curve" smooth="yes"/>
      <point x="186" y="351"/>
      <point x="186" y="311"/>
      <point x="186" y="308" type="curve" smooth="yes"/>
      <point x="186" y="212" type="line" smooth="yes"/>
      <point x="186" y="106"/>
      <point x="208" y="52"/>
      <point x="274" y="52" type="curve" smooth="yes"/>
      <point x="310" y="52"/>
      <point x="352" y="78"/>
      <point x="352" y="98" type="curve" smooth="yes"/>
    </contour>
  </outline>
</glyph>
<glyph name="uni02BF" format="1">
  <advance width="189"/>
  <unicode hex="02BF"/>
  <outline>
    <contour>
      <point x="158" y="700" type="curve"/>
      <point x="159" y="690"/>
      <point x="161" y="682"/>
      <point x="158" y="672" type="curve"/>
      <point x="112" y="672"/>
      <point x="82" y="626"/>
      <point x="82" y="574" type="curve" smooth="yes"/>
      <point x="82" y="531"/>
      <point x="113" y="472"/>
      <point x="159" y="472" type="curve"/>
      <point x="160" y="462"/>
      <point x="160" y="453"/>
      <point x="159" y="443" type="curve"/>
      <point x="82" y="443"/>
      <point x="30" y="502"/>
      <point x="30" y="574" type="curve" smooth="yes"/>
      <point x="30" y="636"/>
      <point x="82" y="700"/>
    </contour>
  </outline>
</glyph>
<glyph name="breve" format="1">
  <advance width="474"/>
  <unicode hex="02D8"/>
  <outline>
    <contour>
      <point x="503" y="635" type="curve"/>
      <point x="510" y="635"/>
      <point x="523" y="623"/>
      <point x="523" y="617" type="curve" smooth="yes"/>
      <point x="523" y="615"/>
      <point x="523" y="612"/>
      <point x="522" y="610" type="curve" smooth="yes"/>
      <point x="508" y="553"/>
      <point x="466" y="515"/>
      <point x="413" y="515" type="curve" smooth="yes"/>
      <point x="360" y="515"/>
      <point x="314" y="553"/>
      <point x="300" y="610" type="curve" smooth="yes"/>
      <point x="299" y="612"/>
      <point x="299" y="615"/>
      <point x="299" y="617" type="curve" smooth="yes"/>
      <point x="299" y="623"/>
      <point x="311" y="635"/>
      <point x="318" y="635" type="curve"/>
      <point x="325" y="611"/>
      <point x="361" y="566"/>
      <point x="413" y="566" type="curve" smooth="yes"/>
      <point x="467" y="566"/>
      <point x="495" y="611"/>
    </contour>
  </outline>
</glyph>
<glyph name="acutecomb" format="1">
  <advance width="237"/>
  <unicode hex="0301"/>
  <outline>
    <contour>
      <point x="164" y="685" type="curve" smooth="yes"/>
      <point x="199" y="685"/>
      <point x="208" y="665"/>
      <point x="208" y="659" type="curve" smooth="yes"/>
      <point x="208" y="620"/>
      <point x="62" y="523"/>
      <point x="52" y="523" type="curve" smooth="yes"/>
      <point x="45" y="523"/>
      <point x="38" y="532"/>
      <point x="38" y="538" type="curve" smooth="yes"/>
      <point x="38" y="544"/>
      <point x="94" y="634"/>
      <point x="130" y="676" type="curve" smooth="yes"/>
      <point x="135" y="681"/>
      <point x="150" y="685"/>
    </contour>
  </outline>
</glyph>
<glyph name="uni0305" format="1">
  <advance width="561"/>
  <unicode hex="0305"/>
  <outline>
    <contour>
      <point x="-16" y="746" type="curve" smooth="yes"/>
      <point x="-16" y="748"/>
      <point x="-13" y="804"/>
      <point x="-2" y="804" type="curve" smooth="yes"/>
      <point x="580" y="804" type="line" smooth="yes"/>
      <point x="582" y="804"/>
      <point x="586" y="803"/>
      <point x="586" y="795" type="curve" smooth="yes"/>
      <point x="586" y="777"/>
      <point x="579" y="748"/>
      <point x="578" y="744" type="curve" smooth="yes"/>
      <point x="576" y="738"/>
      <point x="570" y="736"/>
      <point x="570" y="736" type="curve"/>
      <point x="-10" y="736" type="line"/>
      <point x="-10" y="736"/>
      <point x="-16" y="736"/>
    </contour>
  </outline>
</glyph>
<glyph name="uni030B" format="1">
  <advance width="374"/>
  <unicode hex="030B"/>
  <outline>
    <contour>
      <point x="298" y="686" type="curve" smooth="yes"/>
      <point x="333" y="686"/>
      <point x="342" y="666"/>
      <point x="342" y="660" type="curve" smooth="yes"/>
      <point x="342" y="621"/>
      <point x="195" y="524"/>
      <point x="185" y="524" type="curve" smooth="yes"/>
      <point x="178" y="524"/>
      <point x="170" y="534"/>
      <point x="170" y="540" type="curve" smooth="yes"/>
      <point x="170" y="546"/>
      <point x="228" y="636"/>
      <point x="264" y="678" type="curve" smooth="yes"/>
      <point x="269" y="683"/>
      <point x="284" y="686"/>
    </contour>
    <contour>
      <point x="164" y="686" type="curve" smooth="yes"/>
      <point x="199" y="686"/>
      <point x="208" y="666"/>
      <point x="208" y="660" type="curve" smooth="yes"/>
      <point x="208" y="621"/>
      <point x="62" y="524"/>
      <point x="52" y="524" type="curve" smooth="yes"/>
      <point x="45" y="524"/>
      <point x="38" y="534"/>
      <point x="38" y="540" type="curve" smooth="yes"/>
      <point x="38" y="546"/>
      <point x="94" y="636"/>
      <point x="130" y="678" type="curve" smooth="yes"/>
      <point x="135" y="683"/>
      <point x="150" y="686"/>
    </contour>
  </outline>
</glyph>
<glyph name="uni030C" format="1">
  <advance width="365"/>
  <unicode hex="030C"/>
  <outline>
    <contour>
      <point x="165" y="581" type="curve"/>
      <point x="193" y="605"/>
      <point x="255" y="651"/>
      <point x="266" y="651" type="curve" smooth="yes"/>
      <point x="272" y="651"/>
      <point x="274" y="638"/>
      <point x="274" y="628" type="curve"/>
      <point x="270" y="623"/>
      <point x="246" y="600"/>
      <point x="212" y="556" type="curve" smooth="yes"/>
      <point x="196" y="536"/>
      <point x="187" y="518"/>
      <point x="176" y="502" type="curve" smooth="yes"/>
      <point x="172" y="496"/>
      <point x="171" y="493"/>
      <point x="166" y="493" type="curve"/>
      <point x="162" y="493"/>
      <point x="158" y="495"/>
      <point x="154" y="502" type="curve" smooth="yes"/>
      <point x="144" y="518"/>
      <point x="134" y="535"/>
      <point x="116" y="557" type="curve" smooth="yes"/>
      <point x="83" y="599"/>
      <point x="63" y="620"/>
      <point x="56" y="628" type="curve"/>
      <point x="56" y="636"/>
      <point x="60" y="651"/>
      <point x="66" y="651" type="curve" smooth="yes"/>
      <point x="77" y="651"/>
      <point x="137" y="606"/>
    </contour>
  </outline>
</glyph>
<glyph name="uni0312" format="1">
  <advance width="222"/>
  <unicode hex="0312"/>
  <outline>
    <contour>
      <point x="84" y="478" type="curve" smooth="yes"/>
      <point x="66" y="475"/>
      <point x="42" y="481"/>
      <point x="32" y="486" type="curve"/>
      <point x="24" y="495"/>
      <point x="19" y="512"/>
      <point x="19" y="526" type="curve" smooth="yes"/>
      <point x="19" y="585"/>
      <point x="78" y="632"/>
      <point x="134" y="652" type="curve"/>
      <point x="142" y="651"/>
      <point x="153" y="644"/>
      <point x="153" y="640" type="curve"/>
      <point x="137" y="632"/>
      <point x="96" y="606"/>
      <point x="96" y="578" type="curve" smooth="yes"/>
      <point x="96" y="560"/>
      <point x="140" y="558"/>
      <point x="140" y="523" type="curve" smooth="yes"/>
      <point x="140" y="509"/>
      <point x="126" y="486"/>
    </contour>
  </outline>
</glyph>
<glyph name="uni0315" format="1">
  <advance width="216"/>
  <unicode hex="0315"/>
  <outline>
    <contour>
      <point x="143" y="670" type="curve" smooth="yes"/>
      <point x="151" y="670"/>
      <point x="161" y="667"/>
      <point x="168" y="664" type="curve"/>
      <point x="175" y="654"/>
      <point x="184" y="642"/>
      <point x="184" y="609" type="curve" smooth="yes"/>
      <point x="184" y="559"/>
      <point x="150" y="503"/>
      <point x="104" y="459" type="curve"/>
      <point x="97" y="459"/>
      <point x="83" y="465"/>
      <point x="83" y="470" type="curve"/>
      <point x="104" y="493"/>
      <point x="118" y="520"/>
      <point x="118" y="550" type="curve" smooth="yes"/>
      <point x="118" y="597"/>
      <point x="86" y="594"/>
      <point x="86" y="628" type="curve" smooth="yes"/>
      <point x="86" y="646"/>
      <point x="108" y="670"/>
    </contour>
  </outline>
</glyph>
<glyph name="uni0326" format="1">
  <advance width="222"/>
  <unicode hex="0326"/>
  <outline>
    <contour>
      <point x="89" y="-46" type="curve" smooth="yes"/>
      <point x="107" y="-43"/>
      <point x="132" y="-48"/>
      <point x="142" y="-53" type="curve"/>
      <point x="150" y="-62"/>
      <point x="154" y="-79"/>
      <point x="154" y="-93" type="curve" smooth="yes"/>
      <point x="154" y="-152"/>
      <point x="96" y="-200"/>
      <point x="40" y="-220" type="curve"/>
      <point x="32" y="-219"/>
      <point x="20" y="-211"/>
      <point x="20" y="-207" type="curve"/>
      <point x="36" y="-199"/>
      <point x="78" y="-174"/>
      <point x="78" y="-146" type="curve" smooth="yes"/>
      <point x="78" y="-128"/>
      <point x="34" y="-125"/>
      <point x="34" y="-90" type="curve" smooth="yes"/>
      <point x="34" y="-76"/>
      <point x="47" y="-54"/>
    </contour>
  </outline>
</glyph>
<glyph name="figuredash" format="1">
  <advance width="490"/>
  <unicode hex="2012"/>
  <outline>
    <contour>
      <point x="29" y="206" type="curve" smooth="yes"/>
      <point x="29" y="208"/>
      <point x="32" y="265"/>
      <point x="43" y="265" type="curve" smooth="yes"/>
      <point x="452" y="265" type="line" smooth="yes"/>
      <point x="454" y="265"/>
      <point x="458" y="264"/>
      <point x="458" y="257" type="curve" smooth="yes"/>
      <point x="458" y="245"/>
      <point x="453" y="215"/>
      <point x="450" y="204" type="curve" smooth="yes"/>
      <point x="448" y="198"/>
      <point x="442" y="197"/>
      <point x="442" y="197" type="curve"/>
      <point x="35" y="197" type="line"/>
      <point x="35" y="197"/>
      <point x="29" y="196"/>
    </contour>
  </outline>
</glyph>
<glyph name="endash" format="1">
  <advance width="559"/>
  <unicode hex="2013"/>
  <outline>
    <contour>
      <point x="56" y="206" type="curve" smooth="yes"/>
      <point x="56" y="208"/>
      <point x="59" y="265"/>
      <point x="70" y="265" type="curve" smooth="yes"/>
      <point x="495" y="265" type="line" smooth="yes"/>
      <point x="497" y="265"/>
      <point x="501" y="264"/>
      <point x="501" y="256" type="curve" smooth="yes"/>
      <point x="501" y="238"/>
      <point x="493" y="208"/>
      <point x="492" y="204" type="curve" smooth="yes"/>
      <point x="490" y="198"/>
      <point x="485" y="197"/>
      <point x="485" y="197" type="curve"/>
      <point x="62" y="197" type="line"/>
      <point x="62" y="197"/>
      <point x="56" y="196"/>
    </contour>
  </outline>
</glyph>
<glyph name="quoteright" format="1">
  <advance width="189"/>
  <unicode hex="2019"/>
  <outline>
    <contour>
      <point x="162" y="630" type="curve" smooth="yes"/>
      <point x="162" y="536"/>
      <point x="63" y="479"/>
      <point x="54" y="479" type="curve" smooth="yes"/>
      <point x="46" y="479"/>
      <point x="37" y="486"/>
      <point x="33" y="497" type="curve"/>
      <point x="93" y="533"/>
      <point x="98" y="571"/>
      <point x="98" y="580" type="curve" smooth="yes"/>
      <point x="98" y="600"/>
      <point x="86" y="614"/>
      <point x="76" y="626" type="curve" smooth="yes"/>
      <point x="66" y="638"/>
      <point x="57" y="647"/>
      <point x="57" y="660" type="curve" smooth="yes"/>
      <point x="57" y="684"/>
      <point x="88" y="707"/>
      <point x="120" y="707" type="curve" smooth="yes"/>
      <point x="127" y="707"/>
      <point x="140" y="704"/>
      <point x="148" y="700" type="curve"/>
      <point x="157" y="687"/>
      <point x="162" y="658"/>
    </contour>
  </outline>
</glyph>
<glyph name="quotesinglbase" format="1">
  <advance width="195"/>
  <unicode hex="201A"/>
  <outline>
    <contour>
      <point x="146" y="48" type="curve" smooth="yes"/>
      <point x="146" y="-46"/>
      <point x="46" y="-102"/>
      <point x="37" y="-102" type="curve" smooth="yes"/>
      <point x="29" y="-102"/>
      <point x="20" y="-95"/>
      <point x="16" y="-84" type="curve"/>
      <point x="76" y="-48"/>
      <point x="82" y="-11"/>
      <point x="82" y="-2" type="curve" smooth="yes"/>
      <point x="82" y="18"/>
      <point x="70" y="32"/>
      <point x="60" y="44" type="curve" smooth="yes"/>
      <point x="50" y="56"/>
      <point x="40" y="66"/>
      <point x="40" y="79" type="curve" smooth="yes"/>
      <point x="40" y="103"/>
      <point x="72" y="126"/>
      <point x="104" y="126" type="curve" smooth="yes"/>
      <point x="111" y="126"/>
      <point x="124" y="122"/>
      <point x="132" y="118" type="curve"/>
      <point x="141" y="105"/>
      <point x="146" y="76"/>
    </contour>
  </outline>
</glyph>
